<svg viewBox="0 0 64 64" version="1.1" xmlns="http://www.w3.org/2000/svg">
  <g id="for-T" stroke="none" stroke-width="1" fill="none" fill-rule="evenodd">
    <g id="bit" fill="#F59A23">
      <path
        d="M0,32 C0,43.4324987 6.09916534,53.9965634 16,59.7128129 C25.9008344,65.4290624 38.0991656,65.4290624 48,59.7128129 C57.9008347,53.9965634 64,43.4324987 64,32 C64,14.3268879 49.673112,0 32,0 C14.326888,0 0,14.3268879 0,32 Z"
        id="coin"/>
    </g>
    <g id="coin" transform="translate(15.000000, 14.000000)" fill="#FFFFFF">
      <path
        d="M1.06172772e-14,24.6208569 L1.06172772e-14,27.2643492 C0.00972818312,32.0856912 7.61230329,36 16.9951359,36 C26.3731044,36 33.9805436,32.0905416 33.9902718,27.2643492 L33.9902718,24.6208569 C30.81402,28.0937753 24.4712446,30.4171382 16.9951359,30.4171382 C9.51902718,30.4171382 3.1713877,28.0937753 1.06172772e-14,24.6208569 Z"
        id="path"/>
      <path
        d="M30.9599428,19.2805174 C30.916166,19.3047696 30.867525,19.3290218 30.8286123,19.3532741 C30.38598,19.6151981 29.9190272,19.8625707 29.4277539,20.1002425 C29.1845494,20.2166532 28.9267525,20.323363 28.6738197,20.4349232 C28.313877,20.5901374 27.9490701,20.7405012 27.569671,20.8811641 C27.30701,20.978173 27.0443491,21.0751819 26.7719599,21.1673403 C26.2660944,21.3371059 25.7456366,21.4874697 25.2154506,21.6281326 C25.0354793,21.676637 24.8652361,21.7299919 24.6804006,21.7736459 C24.0188841,21.9337106 23.3281831,22.0743735 22.6277539,22.1907842 C22.3845494,22.2344382 22.1364807,22.2635408 21.888412,22.3023444 C21.3339056,22.3848019 20.7745351,22.4478577 20.2005722,22.5012126 C19.9573677,22.5254648 19.7141631,22.5497171 19.4660944,22.5642684 C18.6586552,22.6224737 17.8414878,22.6612773 17,22.6612773 C16.1633763,22.6612773 15.3413448,22.6224737 14.5339056,22.5642684 C14.2858369,22.5448666 14.0426323,22.5206144 13.7994278,22.5012126 C13.2254649,22.4478577 12.6660944,22.3799515 12.111588,22.3023444 C11.8635193,22.2683913 11.6154506,22.2344382 11.367382,22.1907842 C10.6718169,22.0743735 9.98597997,21.9337106 9.32932761,21.7736459 C9.13962804,21.7251415 8.95965665,21.6717866 8.77482117,21.6232821 C8.24463519,21.4826192 7.7241774,21.3322555 7.22317597,21.1624899 C6.95078684,21.0703314 6.68812589,20.9733226 6.42546495,20.8763137 C6.04606581,20.7356508 5.68125894,20.585287 5.32131617,20.4300728 C5.0683834,20.3185125 4.81058655,20.2118027 4.56738197,20.0953921 C4.08097282,19.8625707 3.60915594,19.6103476 3.16652361,19.3484236 C3.12274678,19.3241714 3.07410587,19.2999192 3.03032904,19.2756669 C1.83862661,18.5578011 0.81230329,17.7477769 3.5390924e-15,16.8601455 L3.5390924e-15,19.5084883 C3.5390924e-15,20.5610348 0.384263233,21.5699272 1.05064378,22.5012126 C1.07010014,22.5303153 1.08955651,22.5545675 1.10901288,22.5836702 C1.25493562,22.7825384 1.41545064,22.9814066 1.59055794,23.1754244 C1.61001431,23.1996766 1.63433476,23.2239289 1.65379113,23.2433306 C2.38826896,24.0388036 3.3416309,24.7615198 4.48469242,25.4017785 C4.56251788,25.4454325 4.63547926,25.4890865 4.71816881,25.5327405 C4.94678112,25.6540016 5.18025751,25.7704123 5.42346209,25.886823 C5.54992847,25.9498787 5.68125894,26.0080841 5.81258941,26.0662894 C6.04120172,26.1681487 6.26981402,26.2700081 6.50329041,26.3621665 C6.66866953,26.4300728 6.83404864,26.4931285 7.00429185,26.5561843 C7.22804006,26.6386419 7.45178827,26.7259499 7.68526466,26.803557 C7.91387697,26.8811641 8.14735336,26.9490703 8.38082976,27.021827 C8.65321888,27.1042846 8.9304721,27.1867421 9.21745351,27.2643492 C9.55307582,27.3565077 9.89842632,27.4389652 10.2486409,27.5214228 C10.4334764,27.5602264 10.623176,27.5990299 10.8080114,27.632983 C11.0998569,27.6911884 11.3965665,27.7493937 11.6981402,27.8027486 C11.8927039,27.8367017 12.0921316,27.8658044 12.2915594,27.894907 C12.6028612,27.938561 12.9141631,27.982215 13.230329,28.0210186 C13.4248927,28.0452708 13.6194564,28.0646726 13.8188841,28.0840744 C14.1642346,28.1180275 14.5193133,28.1422797 14.874392,28.1665319 C15.0446352,28.1762328 15.2148784,28.1907842 15.3851216,28.200485 C15.9153076,28.2247373 16.4503577,28.244139 16.9902718,28.244139 C17.5350501,28.244139 18.0652361,28.2295877 18.595422,28.200485 C18.7656652,28.1907842 18.9359084,28.1762328 19.1061516,28.1665319 C19.4612303,28.1422797 19.8114449,28.1180275 20.1616595,28.0840744 C20.3610873,28.0646726 20.5556509,28.0404204 20.7502146,28.0210186 C21.0663805,27.982215 21.3776824,27.9434115 21.6889843,27.894907 C21.888412,27.8658044 22.0878398,27.8367017 22.2824034,27.8027486 C22.5839771,27.7542441 22.8806867,27.6960388 23.1725322,27.632983 C23.3622318,27.5941795 23.5519313,27.5602264 23.7319027,27.5214228 C24.0821173,27.4438157 24.4226037,27.3565077 24.7630901,27.2643492 C25.0452074,27.1867421 25.3224607,27.109135 25.5997139,27.021827 C25.8331903,26.9490703 26.0715308,26.8811641 26.295279,26.803557 C26.5287554,26.7259499 26.7525036,26.6386419 26.9762518,26.5561843 C27.146495,26.4931285 27.3118741,26.4300728 27.4772532,26.3621665 C27.7155937,26.2651576 27.944206,26.1681487 28.1679542,26.0662894 C28.2992847,26.0080841 28.4257511,25.9450283 28.5570815,25.886823 C28.795422,25.7704123 29.0337625,25.6540016 29.2623748,25.5327405 L29.4958512,25.4017785 C30.6389127,24.7615198 31.5922747,24.0388036 32.3267525,23.2433306 C32.351073,23.2190784 32.3705293,23.1948262 32.3948498,23.170574 C32.5699571,22.9765562 32.7304721,22.7825384 32.8763948,22.5836702 C32.8958512,22.5545675 32.9153076,22.5254648 32.9347639,22.5012126 C33.6011445,21.5650768 33.9854077,20.5610348 33.9854077,19.5084883 L33.9854077,16.864996 C33.1779685,17.7574778 32.1565093,18.567502 30.9599428,19.2805174 C30.9599428,19.2853678 30.9599428,19.2805174 30.9599428,19.2805174 L30.9599428,19.2805174 Z"
        id="path"/>
      <path
        d="M33.9902718,8.74535166 C33.9902718,3.91430881 26.3828326,0 16.9951359,0 C7.6074392,0 1.06172772e-14,3.91430881 1.06172772e-14,8.74535166 L1.06172772e-14,11.7574778 C1.06172772e-14,12.8100243 0.384263233,13.8189167 1.05064378,14.7502021 C1.07010014,14.7793048 1.08955651,14.803557 1.10901288,14.8326597 C1.25493562,15.0315279 1.41545064,15.2303961 1.59055794,15.4244139 C1.61001431,15.4486661 1.63433476,15.4729184 1.65379113,15.4923201 C2.38826896,16.287793 3.3416309,17.0105093 4.48469242,17.650768 L4.71816881,17.78173 C4.94678112,17.9029911 5.18025751,18.0194018 5.42346209,18.1358124 C5.54992847,18.1988682 5.67639485,18.2570736 5.80772532,18.3152789 C6.03633763,18.4171382 6.26494993,18.5189976 6.50329041,18.6160065 C6.66380544,18.6839127 6.83404864,18.742118 6.99942775,18.8051738 C7.22804006,18.8924818 7.45178827,18.9749394 7.68526466,19.0573969 C7.90901288,19.135004 8.14248927,19.2029103 8.37596567,19.2708165 C8.58998569,19.3338723 8.79427754,19.4017785 9.01316166,19.4599838 C9.02288984,19.4599838 9.02775393,19.4648343 9.03748212,19.4648343 C9.10071531,19.4842361 9.16881259,19.4987874 9.23690987,19.5133387 C9.5676681,19.6006467 9.90329041,19.6879547 10.2486409,19.7655618 C10.3216023,19.7801132 10.3945637,19.799515 10.4723891,19.8140663 L10.6329041,19.843169 C10.6912732,19.8528698 10.7496423,19.8625707 10.8080114,19.8771221 C11.0998569,19.9353274 11.3965665,19.9935327 11.6981402,20.0468876 C11.8002861,20.0662894 11.897568,20.0856912 12.004578,20.1002425 C12.1018598,20.1147939 12.2040057,20.1244947 12.3012876,20.1390461 C12.6077253,20.1827001 12.9190272,20.2263541 13.230329,20.2603072 C13.3567954,20.2748585 13.4783977,20.2942603 13.6048641,20.3088116 C13.6826896,20.3185125 13.760515,20.3185125 13.8383405,20.3282134 C14.1788269,20.3621665 14.5241774,20.3864188 14.874392,20.410671 C15.0105866,20.4203719 15.1370529,20.4349232 15.2732475,20.4397736 C15.3170243,20.4397736 15.3559371,20.4397736 15.3997139,20.4446241 C15.9250358,20.4688763 16.4552217,20.4834276 16.9951359,20.4834276 C17.5350501,20.4834276 18.0652361,20.4688763 18.5905579,20.4446241 C18.6343348,20.4446241 18.6732475,20.4446241 18.7170243,20.4397736 C18.8532189,20.4349232 18.9796853,20.4203719 19.1158798,20.410671 C19.4660944,20.3864188 19.8114449,20.3621665 20.1519313,20.3282134 C20.2297568,20.3185125 20.3075823,20.3185125 20.3854077,20.3088116 C20.5118741,20.2942603 20.6334764,20.2748585 20.7599428,20.2603072 C21.0712446,20.2215036 21.3825465,20.1827001 21.6889843,20.1390461 C21.7862661,20.1244947 21.888412,20.1147939 21.9856938,20.1002425 C22.0878398,20.0856912 22.1899857,20.061439 22.2921316,20.0468876 C22.5937053,19.9983832 22.8904149,19.9401778 23.1822604,19.8771221 C23.2406295,19.8674212 23.2989986,19.8577203 23.3525036,19.843169 C23.4060086,19.8334681 23.4643777,19.8237672 23.5227468,19.8092158 C23.5957082,19.7946645 23.6686695,19.7752627 23.746495,19.7607114 C24.0918455,19.6831043 24.4274678,19.5957963 24.758226,19.5084883 C24.8214592,19.4890865 24.8944206,19.4745352 24.9576538,19.4599838 C24.967382,19.4599838 24.9722461,19.4551334 24.9819742,19.4551334 C25.2008584,19.3969281 25.4051502,19.3290218 25.6191702,19.265966 C25.8526466,19.1932094 26.086123,19.1253032 26.3098712,19.0525465 C26.5433476,18.9749394 26.7670959,18.8876314 26.9957082,18.8003234 C27.1610873,18.7372676 27.3313305,18.6742118 27.4918455,18.611156 C27.730186,18.5141471 27.9587983,18.4122878 28.1874106,18.3104285 C28.3187411,18.2522231 28.4452074,18.1891673 28.5716738,18.130962 C28.8100143,18.0145513 29.0483548,17.8981407 29.2769671,17.7768795 C29.3596567,17.7332255 29.432618,17.6895715 29.5104435,17.6459175 C30.653505,17.0056589 31.606867,16.2829426 32.3413448,15.4874697 C32.3656652,15.4632175 32.3851216,15.4389652 32.4094421,15.414713 C32.5845494,15.2206952 32.7450644,15.0266774 32.8909871,14.8278092 C32.9104435,14.7987065 32.9298999,14.7696039 32.9493562,14.7453517 C33.6157368,13.8092158 34,12.8051738 34,11.7526273 L34,8.74535166 L33.9902718,8.74535166 L33.9902718,8.74535166 Z"
        id="path"/>
    </g>
  </g>
</svg>
