<svg viewBox="0 0 26 26" version="1.1" xmlns="http://www.w3.org/2000/svg">
  <g id="page-1" stroke="none" stroke-width="1" fill="none" fill-rule="evenodd">
    <g id="BTC" fill-rule="nonzero">
      <path
        d="M25.8706468,12.9353234 C25.8706468,20.0795025 20.0795025,25.8706468 12.9353234,25.8706468 C5.79140301,25.8706468 0,20.0795025 0,12.9353234 C0,5.79127364 5.79140298,0 12.9353234,0 C20.0795025,0 25.8706468,5.79127364 25.8706468,12.9353234"
        id="path" fill="#F17B0B"/>
      <path
        d="M17.4764783,11.8242233 C17.6637455,10.5633098 16.7106525,9.88547248 15.4074257,9.4332848 L15.8301733,7.72521778 L14.7979988,7.46610567 L14.3864226,9.12916122 C14.1150762,9.06105175 13.8363803,8.99679195 13.5594482,8.9331244 L13.9739643,7.25911211 L12.9423778,7 L12.5193362,8.70747477 C12.2947331,8.65594848 12.0742459,8.60501444 11.8602262,8.55141525 L11.8614022,8.54608494 L10.4379362,8.18806604 L10.1633561,9.29854651 C10.1633561,9.29854651 10.9291819,9.475335 10.9130129,9.48629175 C11.3310567,9.59141721 11.4066104,9.87007382 11.3939691,10.0909854 L10.9124249,12.0368433 C10.9412352,12.0442465 10.9785711,12.0549071 11.0197287,12.0714902 C10.9853327,12.0629025 10.9485848,12.0534265 10.910661,12.0442465 L10.2356759,14.7701058 C10.1845228,14.8980332 10.0548763,15.0899242 9.7626572,15.0170768 C9.77294656,15.0321792 9.01241245,14.8284431 9.01241245,14.8284431 L8.5,16.0185821 L9.84320855,16.355872 C10.0930941,16.4189473 10.337982,16.4849839 10.5790481,16.5471707 L10.1518908,18.2747822 L11.1828893,18.5338943 L11.6059309,16.8246428 C11.8875667,16.9016361 12.1609709,16.9727069 12.4284954,17.0396318 L12.0069238,18.7408879 L13.0390982,19 L13.4662556,17.2756459 C15.2263321,17.6111591 16.5498438,17.4758285 17.1069416,15.8722948 C17.5558538,14.5811761 17.084599,13.8364139 16.1585523,13.3507638 C16.8329495,13.194112 17.3409522,12.7472547 17.4764783,11.8242233 L17.4764783,11.8242233 Z M15.1181463,15.1553685 C14.7991748,16.4464872 12.6410452,15.7485132 11.9413655,15.5735015 L12.5081648,13.2847272 C13.2078445,13.4606273 15.4515231,13.808874 15.1181463,15.1553685 Z M15.4374119,11.8055672 C15.1463687,12.9800113 13.3501323,12.3833132 12.7674579,12.2370259 L13.2813402,10.1611677 C13.8640147,10.307455 15.7405085,10.5804852 15.4374119,11.8055672 Z"
        id="Shape" fill="#FFFFFF"/>
    </g>
  </g>
</svg>
