<svg viewBox="0 0 83 83" version="1.1" xmlns="http://www.w3.org/2000/svg">
  <g id="page-1" stroke="none" stroke-width="1" fill="none" fill-rule="evenodd">
    <g id="logo" fill-rule="nonzero">
      <g id="group-2">
        <polygon id="Fill-1" fill="#37DBFF"
                 points="6.85847521 34.5831816 0 41.500065 6.85847521 48.4169484 17.9624034 59.6717321 24.8208787 52.7548487 13.7169504 41.500065 18.7386438 36.3577877 11.8801686 29.4409044"/>
        <polygon id="Fill-2" fill="#37DBFF"
                 points="75.4409712 34.5831166 64.3271773 23.4962723 57.4687021 30.4125056 68.582496 41.5 63.530668 46.6192881 70.3884986 53.5361714 82.2994464 41.5"/>
        <polygon id="Fill-3" fill="#1346FF"
                 points="41.1496265 0 34.2911513 6.91688336 24.0034385 17.2915583 17.1462525 24.2077916 24.0034385 31.125325 51.4373393 58.7915583 41.1496265 69.1662333 30.1272073 57.996523 23.2687321 64.9134064 34.2911513 76.0837667 41.1496265 83 48.0081017 76.0837667 65.1536452 58.7915583 58.2958145 51.875325 30.8619137 24.2077916 41.1496265 13.8337667 52.2623038 25.0990738 59.0988059 18.189944 48.0081017 6.91688336"/>
      </g>
    </g>
  </g>
</svg>
