<svg
  viewBox="0 0 64 64"
  version="1.1"
  id="svg13"
  xmlns="http://www.w3.org/2000/svg">
  <g
    id="for-T"
    stroke="none"
    stroke-width="1"
    fill="none"
    fill-rule="evenodd">
    <path
      d="M0,32 C0,43.4324987 6.09916534,53.9965634 16,59.7128129 C25.9008344,65.4290624 38.0991656,65.4290624 48,59.7128129 C57.9008347,53.9965634 64,43.4324987 64,32 C64,14.3268879 49.673112,0 32,0 C14.326888,0 0,14.3268879 0,32 Z"
      id="path"
      fill="#1346FF"
      fill-rule="nonzero"/>
    <g
      id="group-2"
      transform="translate(11.000000, 11.000000)">
      <polygon
        id="Fill-1"
        fill="#37DBFF"
        points="3.58343156 17.9165881 0 21.5000337 3.58343156 25.0834793 9.38503698 30.9142708 12.9684685 27.3308252 7.16686313 21.5000337 9.79060881 18.8359623 6.20717724 15.2525167"/>
      <polygon
        id="Fill-2"
        fill="#37DBFF"
        points="39.4165684 17.9165544 33.6098084 12.1727676 30.0263768 15.7558764 35.8331369 21.5 33.1936464 24.1521613 36.7767412 27.7356069 43 21.5"/>
      <polygon
        id="Fill-3"
        fill="#FFFFFF"
        points="21.4999495 0 17.9165179 3.5834456 12.5413706 8.9582772 8.95861259 12.541386 12.5413706 16.1251684 26.8750968 30.4582772 21.4999495 35.8331088 15.7409311 30.0463914 12.1574995 33.629837 17.9165179 39.4168912 21.4999495 43 25.083381 39.4168912 34.0416232 30.4582772 30.4585284 26.8751684 16.1248021 12.541386 21.4999495 7.16689119 27.3061261 13.0031346 30.8780771 9.42370594 25.083381 3.5834456"/>
    </g>
  </g>
</svg>
