<svg viewBox="0 0 26 26" version="1.1" xmlns="http://www.w3.org/2000/svg">
    <g id="page-1" stroke="none" stroke-width="1" fill="none" fill-rule="evenodd">
        <g id="group-21" fill-rule="nonzero">
            <path d="M12.9353234,25.8706468 C5.79140301,25.8706468 0,20.0795025 0,12.9353234 C0,5.79127364 5.79140298,0 12.9353234,0 C20.0795025,0 25.8706468,5.79127364 25.8706468,12.9353234 C25.8706468,20.0795025 20.0795025,25.8706468 12.9353234,25.8706468 Z" id="path" fill="#1346FF"/>
            <path d="M14.0171399,3.99967098 C18.4777313,4.534011 21.9353234,8.33083095 21.9353234,12.9353234 C21.9353234,17.5375707 18.4812274,21.3328079 14.0239062,21.870164 M11.9929368,21.8865771 C7.46531648,21.4154804 3.93532339,17.5877548 3.93532339,12.9353234 C3.93532339,8.290849 7.45337958,4.46813444 11.9699603,3.98649112" id="shape" stroke="#FFFFFF"/>
            <path d="M12.225,10.4285714 L15.725,10.4285714 C16.2081968,10.428499 16.599866,10.0447643 16.599866,9.57142858 C16.599866,9.09809289 16.2081968,8.71435819 15.725,8.71428573 L13.975,8.71428573 L13.975,7.85714286 C13.975,7.38375593 13.5832491,7 13.1,7 C12.6167508,7 12.225,7.38375593 12.225,7.85714286 L12.225,8.71428573 C10.7752525,8.71428576 9.6,9.86555353 9.6,11.2857143 C9.6,12.7058751 10.7752525,13.8571428 12.225,13.8571429 L13.975,13.8571429 C14.4581968,13.8572153 14.849866,14.24095 14.849866,14.7142857 C14.849866,15.1876214 14.4581968,15.5713561 13.975,15.5714286 L10.475,15.5714286 C9.99180311,15.571501 9.6001339,15.9552357 9.6001339,16.4285714 C9.6001339,16.9019071 9.99180311,17.2856418 10.475,17.2857143 L12.225,17.2857143 L12.225,18.1428571 C12.225,18.6162441 12.6167508,19 13.1,19 C13.5832491,19 13.975,18.6162441 13.975,18.1428571 L13.975,17.2857143 C15.4247475,17.2857143 16.6,16.1344465 16.6,14.7142857 C16.6,13.2941249 15.4247475,12.1428571 13.975,12.1428571 L12.225,12.1428571 C11.7418031,12.1427847 11.3501339,11.75905 11.3501339,11.2857143 C11.3501339,10.8123786 11.7418031,10.4286439 12.225,10.4285714 Z" id="path2" fill="#FFFFFF"/>
        </g>
    </g>
</svg>
