<svg viewBox="0 0 26 26" version="1.1" xmlns="http://www.w3.org/2000/svg">
  <g id="page-1" stroke="none" stroke-width="1" fill="none" fill-rule="evenodd">
    <g id="USDT" fill-rule="nonzero">
      <path
        d="M25.8751539,12.9446914 C25.8751539,20.0888705 20.0840096,25.8800148 12.9398305,25.8800148 C5.79591015,25.8800148 0.00450714063,20.0888705 0.00450714063,12.9446914 C0.00450714063,5.80064164 5.79591012,0.00936799805 12.9398305,0.00936799805 C20.0840096,0.00936799805 25.8751539,5.80064164 25.8751539,12.9446914"
        id="path" fill="#1BA27A"/>
      <g id="group-16" transform="translate(7.500000, 8.000000)" fill="#FFFFFF">
        <polygon id="path" points="9.48400271 3.14899622e-14 1.13278154 3.14899622e-14 1.13278154 2.01614655 4.30031887 2.01614655 4.30031887 4.97951153 6.3164654 4.97951153 6.3164654 2.01614655 9.48400271 2.01614655"/>
        <path
          d="M5.32753053,5.29516282 C2.70724559,5.29516282 0.582883305,4.8804681 0.582883305,4.36884669 C0.582883305,3.85731344 2.70715739,3.44253054 5.32753053,3.44253054 C7.94781547,3.44253054 10.0720896,3.85731344 10.0720896,4.36884669 C10.0720896,4.88046812 7.94781547,5.29516282 5.32753053,5.29516282 M10.6549729,4.5232768 C10.6549729,3.8635753 8.26981682,3.32884668 5.32753053,3.32884668 C2.38533243,3.32884668 -2.7856505e-14,3.8635753 -2.7856505e-14,4.5232768 C-2.7856505e-14,5.10421982 1.84954545,5.5882361 4.30040705,5.69548168 L4.30040705,9.94949797 L6.31637721,9.94949797 L6.31637721,5.69715739 C8.78611263,5.59326323 10.6549729,5.10721844 10.6549729,4.5232768"
          id="shape"/>
      </g>
    </g>
  </g>
</svg>
