<svg viewBox="0 0 1550 400" xmlns="http://www.w3.org/2000/svg">
  <g transform="translate(-350.0, -500.0)">
    <path
      d="M766.5 789.2V769.7H859.2C868 769.7 872.4 765.4 872.4 756.8V734C872.4 726.4 869 721.9 862.2 720.5L801.3 708.2C778.1 703.6 766.5 688 766.5 661.4V644.9C766.5 612.3 782.8 596 815.4 596H885.3L903 609.8V629.3H816.3C807.5 629.3 803.1 633.6 803.1 642.2V662.3C803.1 669.9 806.5 674.4 813.3 675.8L874.2 687.8C897.4 692.6 909 708.2 909 734.6V754.1C909 786.7 892.7 803 860.1 803H784.2L766.5 789.2ZM945.588 755.6V692.9C945.588 661.3 961.388 645.5 992.988 645.5H1031.99C1063.39 645.5 1079.09 661.3 1079.09 692.9V737.3H980.688V758.6C980.688 767.8 985.288 772.4 994.488 772.4H1073.09V791.3L1057.19 803H992.988C961.388 803 945.588 787.2 945.588 755.6ZM980.688 710H1043.99V689.9C1043.99 680.7 1039.39 676.1 1030.19 676.1H994.488C985.288 676.1 980.688 680.7 980.688 689.9V710ZM1119.32 755.6V692.9C1119.32 661.3 1135.12 645.5 1166.72 645.5H1223.42L1239.32 657.2V676.1H1168.22C1159.02 676.1 1154.42 680.7 1154.42 689.9V758.6C1154.42 767.8 1159.02 772.4 1168.22 772.4H1239.32V791.3L1223.42 803H1166.72C1135.12 803 1119.32 787.2 1119.32 755.6ZM1274.33 755.6V645.5H1309.43V758.6C1309.43 767.8 1314.03 772.4 1323.23 772.4H1372.73V645.5H1407.83V803H1321.73C1290.13 803 1274.33 787.2 1274.33 755.6ZM1451.57 803V665C1458.77 652 1472.57 645.5 1492.97 645.5H1524.47L1540.37 657.2V676.1H1501.07C1494.27 676.1 1489.47 677.8 1486.67 681.2V803H1451.57ZM1568.15 755.6V692.9C1568.15 661.3 1583.95 645.5 1615.55 645.5H1654.55C1685.95 645.5 1701.65 661.3 1701.65 692.9V737.3H1603.25V758.6C1603.25 767.8 1607.85 772.4 1617.05 772.4H1695.65V791.3L1679.75 803H1615.55C1583.95 803 1568.15 787.2 1568.15 755.6ZM1603.25 710H1666.55V689.9C1666.55 680.7 1661.95 676.1 1652.75 676.1H1617.05C1607.85 676.1 1603.25 680.7 1603.25 689.9V710Z"
      fill="#202B2D"/>
    <path
      d="M1741.58 789.2V769.7H1828.58C1837.18 769.7 1841.48 765.4 1841.48 756.8V725.3C1841.48 716.7 1837.18 712.4 1828.58 712.4H1763.78V679.1H1828.58C1837.18 679.1 1841.48 674.7 1841.48 665.9V642.2C1841.48 633.6 1837.18 629.3 1828.58 629.3H1744.58V609.8L1762.28 596H1829.48C1862.08 596 1878.38 612.3 1878.38 644.9V665C1878.38 673 1875.88 679.5 1870.88 684.5L1860.38 695L1870.88 705.5C1875.88 710.5 1878.38 717 1878.38 725V754.1C1878.38 786.7 1862.08 803 1829.48 803H1759.28L1741.58 789.2Z"
      fill="url(#paint0_linear_29_48)"/>
    <path
      d="M427.426 578.584L532.474 536.461C532.522 536.427 532.522 536.461 532.522 536.461C534.608 535.73 536.022 534.189 536.022 532.333V519.465C536.022 517.013 533.417 515 530.247 515C529.446 515 528.774 515.146 528.067 515.326H528.019C527.689 515.439 527.312 515.585 526.982 515.765L402.099 565.514C394.65 567.539 389.275 572.949 389.275 579.394C389.275 585.569 394.202 590.844 401.167 593.049C401.297 593.094 401.403 593.15 401.533 593.195C436.207 606.872 468.713 620.032 502.161 633.485C502.208 633.485 502.255 633.519 502.302 633.552C502.727 633.698 503.245 633.845 503.681 634.07C503.729 634.07 503.729 634.103 503.776 634.103C506.145 635.059 508.467 636.004 510.836 636.96H510.883C510.883 636.994 510.883 637.039 510.93 637.073V844.078C510.93 845.945 508.985 847.475 506.522 847.475C505.626 847.475 504.766 847.25 504.059 846.89C503.964 846.856 503.87 846.778 503.776 846.71C503.634 846.643 503.493 846.53 503.351 846.418C503.304 846.384 503.257 846.384 503.257 846.339C464.458 819.828 396.524 759.404 392.257 659.445V659.119C392.257 658.792 392.257 658.455 392.21 658.129C392.21 658.095 392.163 658.05 392.21 658.016C391.503 653.483 386.812 649.895 380.884 649.423C380.46 649.389 380.035 649.389 379.599 649.389C379.175 649.389 378.751 649.389 378.326 649.423C372.598 649.895 368.002 653.303 367.141 657.69C367.047 658.163 367 658.635 367 659.119C367 659.85 367.094 660.581 367.283 661.244C374.201 810.267 510.883 875.595 516.893 878.373L528.785 883.929C529.54 884.334 530.447 884.548 531.39 884.548C533.948 884.548 536.034 882.939 536.034 880.96V632.18C536.034 631.82 536.081 631.449 536.081 631.044C536.081 630.684 536.034 630.279 536.034 629.908C535.562 626.32 533.005 623.215 529.304 621.495C529.304 621.461 529.257 621.461 529.21 621.461L527.689 620.842C527.548 620.763 527.359 620.696 527.124 620.662L427.379 580.609"
      fill="#202B2D"/>
    <path
      d="M653.198 580.777L553.442 620.853C553.171 620.853 552.97 620.921 552.829 621.044L551.344 621.629C551.273 621.629 551.214 621.629 551.214 621.697C547.561 623.373 544.991 626.533 544.52 630.088C544.52 630.47 544.449 630.864 544.449 631.246C544.449 631.572 544.52 631.831 544.52 632.09V644.935C544.52 646.802 546.146 648.354 548.515 649.063H548.586L569.624 656.486L664.371 690.826C670.523 692.693 675.191 695.865 677.76 700.252C679.587 704.121 680.058 709.092 678.915 714.908C658.089 782.226 608.506 825.148 577.532 846.316C577.532 846.384 577.462 846.384 577.403 846.44C577.273 846.507 577.132 846.631 577.002 846.699C576.931 846.766 576.802 846.822 576.731 846.89C576.731 846.89 576.731 846.89 576.66 846.957C576.589 846.957 576.531 847.025 576.46 847.081C575.918 847.34 574.704 848.048 573.007 849.016C565.841 853.211 550.213 862.052 544.732 864.054V880.959C544.732 882.894 546.83 884.514 549.399 884.514C550.342 884.514 551.226 884.323 551.969 883.929L563.872 878.384C564.686 878.001 567.998 876.517 573.007 873.738C573.077 873.671 573.136 873.671 573.207 873.615C601.953 857.733 687.566 802.551 708.875 698.317C708.875 698.25 708.875 698.193 708.945 698.126C709.217 696.832 709.488 695.539 709.688 694.189C709.759 693.739 709.818 693.345 709.888 692.896C709.959 692.772 709.959 692.569 709.959 692.378C710.159 690.117 709.617 688.115 708.604 686.507C708.062 685.472 707.319 684.572 706.506 683.796C703.866 681.085 700.283 679.409 697.784 678.498C696.429 677.981 695.415 677.722 695.014 677.599C694.885 677.531 694.814 677.531 694.814 677.531L687.236 674.888L687.106 674.82L574.433 635.25C575.246 634.924 575.988 634.609 576.802 634.283C576.872 634.283 576.872 634.283 576.872 634.283C577.344 634.024 577.815 633.901 578.298 633.766C578.298 633.698 578.369 633.698 578.428 633.698C611.841 620.212 644.37 607.041 679.056 593.363C679.186 593.363 679.257 593.296 679.398 593.24C686.364 591.046 691.302 585.749 691.302 579.551C691.302 573.162 685.963 567.741 678.455 565.671L553.607 515.978C553.265 515.787 552.864 515.652 552.523 515.528C551.78 515.337 551.096 515.202 550.295 515.202C547.184 515.202 544.544 517.204 544.544 519.656V532.501C544.544 534.368 545.958 535.921 548.056 536.629C548.056 536.629 548.056 536.629 548.126 536.629L653.151 578.775"
      fill="url(#paint1_linear_29_48)"/>
  </g>
  <defs>
    <linearGradient id="paint0_linear_29_48" x1="1399.5" y1="528" x2="1399.5" y2="814" gradientUnits="userSpaceOnUse">
      <stop stop-color="#8798F8"/>
      <stop offset="0.739583" stop-color="#5FA7F9"/>
      <stop offset="1" stop-color="#4CBFFD"/>
    </linearGradient>

    <linearGradient id="paint1_linear_29_48" x1="627.225" y1="515.202" x2="627.225" y2="884.514"
                    gradientUnits="userSpaceOnUse">
      <stop stop-color="#8798F8"/>
      <stop offset="0.739583" stop-color="#5FA7F9"/>
      <stop offset="1" stop-color="#4CBFFD"/>
    </linearGradient>
  </defs>
</svg>
