<?xml version="1.0" encoding="UTF-8" standalone="no"?>
<svg
  width="400mm"
  height="100mm"
  viewBox="0 0 400 100"
  version="1.1"
  id="svg122"
  xmlns="http://www.w3.org/2000/svg">
  <defs
    id="defs119">
    <linearGradient
      id="paint0_linear_29_33"
      x1="1399.5"
      y1="528"
      x2="1399.5"
      y2="814"
      gradientUnits="userSpaceOnUse">
      <stop
        stop-color="#8798F8"
        id="stop19"/>
      <stop
        offset="0.739583"
        stop-color="#5FA7F9"
        id="stop21"/>
      <stop
        offset="1"
        stop-color="#4CBFFD"
        id="stop23"/>
    </linearGradient>
    <linearGradient
      id="paint1_linear_29_33"
      x1="627.22498"
      y1="515.20203"
      x2="627.22498"
      y2="884.51398"
      gradientUnits="userSpaceOnUse">
      <stop
        stop-color="#8798F8"
        id="stop26"/>
      <stop
        offset="0.739583"
        stop-color="#5FA7F9"
        id="stop28"/>
      <stop
        offset="1"
        stop-color="#4CBFFD"
        id="stop30"/>
    </linearGradient>
  </defs>
  <g
    id="layer1">
    <g
      id="g130"
      transform="matrix(0.26458333,0,0,0.26458333,-97.102082,-135.26041)">
      <path
        d="m 766.5,789.2 v -19.5 h 92.7 c 8.8,0 13.2,-4.3 13.2,-12.9 V 734 c 0,-7.6 -3.4,-12.1 -10.2,-13.5 L 801.3,708.2 C 778.1,703.6 766.5,688 766.5,661.4 v -16.5 c 0,-32.6 16.3,-48.9 48.9,-48.9 h 69.9 l 17.7,13.8 v 19.5 h -86.7 c -8.8,0 -13.2,4.3 -13.2,12.9 v 20.1 c 0,7.6 3.4,12.1 10.2,13.5 l 60.9,12 c 23.2,4.8 34.8,20.4 34.8,46.8 v 19.5 c 0,32.6 -16.3,48.9 -48.9,48.9 h -75.9 z m 179.088,-33.6 v -62.7 c 0,-31.6 15.8,-47.4 47.4,-47.4 h 39.002 c 31.4,0 47.1,15.8 47.1,47.4 v 44.4 h -98.402 v 21.3 c 0,9.2 4.6,13.8 13.8,13.8 h 78.602 v 18.9 l -15.9,11.7 h -64.202 c -31.6,0 -47.4,-15.8 -47.4,-47.4 z m 35.1,-45.6 h 63.302 v -20.1 c 0,-9.2 -4.6,-13.8 -13.8,-13.8 h -35.702 c -9.2,0 -13.8,4.6 -13.8,13.8 z m 138.632,45.6 v -62.7 c 0,-31.6 15.8,-47.4 47.4,-47.4 h 56.7 l 15.9,11.7 v 18.9 h -71.1 c -9.2,0 -13.8,4.6 -13.8,13.8 v 68.7 c 0,9.2 4.6,13.8 13.8,13.8 h 71.1 v 18.9 l -15.9,11.7 h -56.7 c -31.6,0 -47.4,-15.8 -47.4,-47.4 z m 155.01,0 V 645.5 h 35.1 v 113.1 c 0,9.2 4.6,13.8 13.8,13.8 h 49.5 V 645.5 h 35.1 V 803 h -86.1 c -31.6,0 -47.4,-15.8 -47.4,-47.4 z M 1451.57,803 V 665 c 7.2,-13 21,-19.5 41.4,-19.5 h 31.5 l 15.9,11.7 v 18.9 h -39.3 c -6.8,0 -11.6,1.7 -14.4,5.1 V 803 Z m 116.58,-47.4 v -62.7 c 0,-31.6 15.8,-47.4 47.4,-47.4 h 39 c 31.4,0 47.1,15.8 47.1,47.4 v 44.4 h -98.4 v 21.3 c 0,9.2 4.6,13.8 13.8,13.8 h 78.6 v 18.9 l -15.9,11.7 h -64.2 c -31.6,0 -47.4,-15.8 -47.4,-47.4 z m 35.1,-45.6 h 63.3 v -20.1 c 0,-9.2 -4.6,-13.8 -13.8,-13.8 h -35.7 c -9.2,0 -13.8,4.6 -13.8,13.8 z"
        fill="#ffffff"
        id="path11"/>
      <path
        d="m 1741.58,789.2 v -19.5 h 87 c 8.6,0 12.9,-4.3 12.9,-12.9 v -31.5 c 0,-8.6 -4.3,-12.9 -12.9,-12.9 h -64.8 v -33.3 h 64.8 c 8.6,0 12.9,-4.4 12.9,-13.2 v -23.7 c 0,-8.6 -4.3,-12.9 -12.9,-12.9 h -84 v -19.5 l 17.7,-13.8 h 67.2 c 32.6,0 48.9,16.3 48.9,48.9 V 665 c 0,8 -2.5,14.5 -7.5,19.5 l -10.5,10.5 10.5,10.5 c 5,5 7.5,11.5 7.5,19.5 v 29.1 c 0,32.6 -16.3,48.9 -48.9,48.9 h -70.2 z"
        fill="url(#paint0_linear_29_33)"
        id="path13"
        style="fill:url(#paint0_linear_29_33)"/>
      <path
        d="m 427.426,578.584 105.048,-42.123 c 0.048,-0.034 0.048,0 0.048,0 2.086,-0.731 3.5,-2.272 3.5,-4.128 v -12.868 c 0,-2.452 -2.605,-4.465 -5.775,-4.465 -0.801,0 -1.473,0.146 -2.18,0.326 h -0.048 c -0.33,0.113 -0.707,0.259 -1.037,0.439 l -124.883,49.749 c -7.449,2.025 -12.824,7.435 -12.824,13.88 0,6.175 4.927,11.45 11.892,13.655 0.13,0.045 0.236,0.101 0.366,0.146 34.674,13.677 67.18,26.837 100.628,40.29 0.047,0 0.094,0.034 0.141,0.067 0.425,0.146 0.943,0.293 1.379,0.518 0.048,0 0.048,0.033 0.095,0.033 2.369,0.956 4.691,1.901 7.06,2.857 h 0.047 c 0,0.034 0,0.079 0.047,0.113 v 207.005 c 0,1.867 -1.945,3.397 -4.408,3.397 -0.896,0 -1.756,-0.225 -2.463,-0.585 -0.095,-0.034 -0.189,-0.112 -0.283,-0.18 -0.142,-0.067 -0.283,-0.18 -0.425,-0.292 -0.047,-0.034 -0.094,-0.034 -0.094,-0.079 -38.799,-26.511 -106.733,-86.935 -111,-186.894 v -0.326 c 0,-0.327 0,-0.664 -0.047,-0.99 0,-0.034 -0.047,-0.079 0,-0.113 -0.707,-4.533 -5.398,-8.121 -11.326,-8.593 -0.424,-0.034 -0.849,-0.034 -1.285,-0.034 -0.424,0 -0.848,0 -1.273,0.034 -5.728,0.472 -10.324,3.88 -11.185,8.267 -0.094,0.473 -0.141,0.945 -0.141,1.429 0,0.731 0.094,1.462 0.283,2.125 6.918,149.023 143.6,214.351 149.61,217.129 l 11.892,5.556 c 0.755,0.405 1.662,0.619 2.605,0.619 2.558,0 4.644,-1.609 4.644,-3.588 V 632.18 c 0,-0.36 0.047,-0.731 0.047,-1.136 0,-0.36 -0.047,-0.765 -0.047,-1.136 -0.472,-3.588 -3.029,-6.693 -6.73,-8.413 0,-0.034 -0.047,-0.034 -0.094,-0.034 l -1.521,-0.619 c -0.141,-0.079 -0.33,-0.146 -0.565,-0.18 l -99.745,-40.053"
        fill="#ffffff"
        id="path15"/>
      <path
        d="m 653.198,580.777 -99.756,40.076 c -0.271,0 -0.472,0.068 -0.613,0.191 l -1.485,0.585 c -0.071,0 -0.13,0 -0.13,0.068 -3.653,1.676 -6.223,4.836 -6.694,8.391 0,0.382 -0.071,0.776 -0.071,1.158 0,0.326 0.071,0.585 0.071,0.844 v 12.845 c 0,1.867 1.626,3.419 3.995,4.128 h 0.071 l 21.038,7.423 94.747,34.34 c 6.152,1.867 10.82,5.039 13.389,9.426 1.827,3.869 2.298,8.84 1.155,14.656 -20.826,67.318 -70.409,110.24 -101.383,131.408 0,0.068 -0.07,0.068 -0.129,0.124 -0.13,0.067 -0.271,0.191 -0.401,0.259 -0.071,0.067 -0.2,0.123 -0.271,0.191 0,0 0,0 -0.071,0.067 -0.071,0 -0.129,0.068 -0.2,0.124 -0.542,0.259 -1.756,0.967 -3.453,1.935 -7.166,4.195 -22.794,13.036 -28.275,15.038 v 16.905 c 0,1.935 2.098,3.555 4.667,3.555 0.943,0 1.827,-0.191 2.57,-0.585 l 11.903,-5.545 c 0.814,-0.383 4.126,-1.867 9.135,-4.646 0.07,-0.067 0.129,-0.067 0.2,-0.123 28.746,-15.882 114.359,-71.064 135.668,-175.298 0,-0.067 0,-0.124 0.07,-0.191 0.272,-1.294 0.543,-2.587 0.743,-3.937 0.071,-0.45 0.13,-0.844 0.2,-1.293 0.071,-0.124 0.071,-0.327 0.071,-0.518 0.2,-2.261 -0.342,-4.263 -1.355,-5.871 -0.542,-1.035 -1.285,-1.935 -2.098,-2.711 -2.64,-2.711 -6.223,-4.387 -8.722,-5.298 -1.355,-0.517 -2.369,-0.776 -2.77,-0.899 -0.129,-0.068 -0.2,-0.068 -0.2,-0.068 l -7.578,-2.643 -0.13,-0.068 -112.673,-39.57 c 0.813,-0.326 1.555,-0.641 2.369,-0.967 0.07,0 0.07,0 0.07,0 0.472,-0.259 0.943,-0.382 1.426,-0.517 0,-0.068 0.071,-0.068 0.13,-0.068 33.413,-13.486 65.942,-26.657 100.628,-40.335 0.13,0 0.201,-0.067 0.342,-0.123 6.966,-2.194 11.904,-7.491 11.904,-13.689 0,-6.389 -5.339,-11.81 -12.847,-13.88 L 553.607,515.978 c -0.342,-0.191 -0.743,-0.326 -1.084,-0.45 -0.743,-0.191 -1.427,-0.326 -2.228,-0.326 -3.111,0 -5.751,2.002 -5.751,4.454 v 12.845 c 0,1.867 1.414,3.42 3.512,4.128 0,0 0,0 0.07,0 l 105.025,42.146"
        fill="url(#paint1_linear_29_33)"
        id="path17"
        style="fill:url(#paint1_linear_29_33)"/>
    </g>
  </g>
</svg>
