<?xml version="1.0" encoding="UTF-8"?>
<svg viewBox="0 0 1618 506" version="1.1" xmlns="http://www.w3.org/2000/svg">
  <g id="page-1" stroke="none" stroke-width="1" fill="none" fill-rule="evenodd">
    <g id="group-35" transform="translate(0.871088, 0.000000)" fill="#234B7D">
      <rect id="rect-1" x="784.128912" y="238" width="35" height="265" rx="17.5"/>
      <rect id="rect-10" x="1079.12891" y="238" width="35" height="265" rx="17.5"/>
      <rect id="rect-11" x="1021.12891" y="141" width="35" height="362" rx="17.5"/>
      <circle id="oval" cx="801.628912" cy="174" r="24"/>
      <circle id="oval-30" cx="1096.62891" cy="174" r="24"/>
      <circle id="oval-31" cx="1591.62891" cy="480" r="25"/>
      <rect id="rect" x="649.128912" y="237" width="35" height="266" rx="17.5"/>
      <path
        d="M488.96534,0 C478.687722,97.7517114 454.03949,189.577296 415.020643,275.476754 C376.001796,361.376213 323.987751,435.18873 258.978508,496.914307 C222.158574,463.070359 190.917602,427.637998 165.255593,390.617223 C139.593583,353.596449 119.443478,320.362382 104.805277,290.915022 C67.4177198,302.741008 46.2041354,309.233622 41.164524,310.392863 C33.605107,312.131726 13.9945333,288.68871 5.86482387,255.782866 C-2.26488557,222.877022 -2.34428125,179.360361 8.16098903,176.807626 C15.1645026,175.105803 33.0554303,177.795806 61.8337724,184.877637 C54.0238705,161.361979 47.7575482,137.225494 43.0348055,112.468182 C35.9506914,75.3322142 29.9500214,33.3780333 34.3556005,28.2278959 C41.164524,21.438883 83.3639461,7.4504307 180.896054,2.52151758 C245.917459,-0.764424497 298.711736,3.70949605 339.278885,15.9432792 C245.53448,16.6415552 187.526716,28.6884307 165.255593,52.0839056 C136.667159,80.4389331 127.729881,127.314708 138.443761,192.71123 C173.017306,191.744976 196.257886,190.163439 208.1655,187.966619 C235.969961,182.83701 250.972224,175.334043 254.975366,182.83701 C258.978508,190.339978 237.0014,216.488418 214.18979,236.207442 C204.648179,244.45549 187.043376,255.692189 161.375382,269.917539 C174.092582,301.22737 189.018438,331.062436 206.152951,359.422735 C223.287465,387.783034 242.818576,414.97964 264.746285,441.012552 C293.369389,412.05779 310.318621,379.802845 315.59398,344.247716 C324.240194,255.77814 249.322597,222.132682 277.356089,143.710851 C305.38958,65.28902 400.606612,108.926054 442.324174,68.5789386 C462.671498,50.9195757 478.218553,28.0599295 488.96534,0 Z M356.628912,143 C337.851231,143 322.628912,158.222319 322.628912,177 C322.628912,195.777681 337.851231,211 356.628912,211 C375.406594,211 390.628912,195.777681 390.628912,177 C390.628912,158.222319 375.406594,143 356.628912,143 Z"
        id="shape-combine-1"/>
      <path
        d="M528.288302,235.260968 C546.043328,235.260968 581.891177,240.986182 607.540856,274.520014 C624.640642,296.875901 631.37049,327.125695 627.730399,365.269396 C627.179319,368.46214 625.510712,371.480235 622.724577,374.32368 C619.938443,377.167125 616.289502,378.660762 611.777753,378.80459 L453.840075,378.80459 C453.840075,378.80459 450.329521,411.566446 462.913308,436.160626 C475.497095,460.754807 502.586971,475.568943 531.25154,474.242621 C590.621241,471.49556 585.044619,436.192092 609.961875,436.160626 C631.747759,441.321499 622.724577,468.764176 600.400235,485.999341 C578.075892,503.234506 537.431055,506 526.310548,506 C515.190041,506 483.816558,504.567567 453.840075,480.323895 C433.855753,464.161448 422.498376,438.833261 419.767945,404.339335 L419.767945,339.605541 C420.813168,311.031056 430.252057,286.866702 448.084613,267.112477 C474.833446,237.481141 510.533277,235.260968 528.288302,235.260968 Z M524.228331,266.032612 C478.048096,269.819983 454.529922,297.302606 453.673811,348.480484 L594.48804,348.480484 C591.817946,295.14909 568.398043,267.666466 524.228331,266.032612 Z"
        id="shape-combine-2"/>
      <path
        d="M1448.2883,235.260968 C1466.04333,235.260968 1501.89118,240.986182 1527.54086,274.520014 C1544.64064,296.875901 1551.37049,327.125695 1547.7304,365.269396 C1547.17932,368.46214 1545.51071,371.480235 1542.72458,374.32368 C1539.93844,377.167125 1536.2895,378.660762 1531.77775,378.80459 L1373.84007,378.80459 C1373.84007,378.80459 1370.32952,411.566446 1382.91331,436.160626 C1395.4971,460.754807 1422.58697,475.568943 1451.25154,474.242621 C1510.62124,471.49556 1505.04462,436.192092 1529.96187,436.160626 C1551.74776,441.321499 1542.72458,468.764176 1520.40023,485.999341 C1498.07589,503.234506 1457.43106,506 1446.31055,506 C1435.19004,506 1403.81656,504.567567 1373.84007,480.323895 C1353.85575,464.161448 1342.49838,438.833261 1339.76795,404.339335 L1339.76795,339.605541 C1340.81317,311.031056 1350.25206,286.866702 1368.08461,267.112477 C1394.83345,237.481141 1430.53328,235.260968 1448.2883,235.260968 Z M1444.22833,266.032612 C1398.0481,269.819983 1374.52992,297.302606 1373.67381,348.480484 L1514.48804,348.480484 C1511.81795,295.14909 1488.39804,267.666466 1444.22833,266.032612 Z"
        id="shape-combine-bak"/>
      <path
        d="M684.128912,274.822502 C691.779299,257.963845 705.605734,245.795093 725.608217,238.316248 C746.650136,232.75713 760.847229,235.73834 768.121022,242.409579 C775.394814,249.080819 773.411219,261.849493 764.168892,266.032612 C754.926565,270.215731 725.608217,265.32873 709.347486,278.220503 C693.56488,290.163887 685.158689,306.638054 684.128912,327.643005 L684.128912,274.822502 Z"
        id="path-129"/>
      <path
        d="M939.723061,235.25855 C977.028321,235.357129 1004.16361,251.30251 1021.12891,283.094693 L1021.12891,456.442695 C1014.73409,472.021365 1004.77491,483.849666 991.251359,491.927599 C977.727809,500.005533 960.55171,504.696333 939.723061,506 C908.89464,504.161725 885.705185,494.795338 870.154695,477.900838 C851.204867,458.653765 841.343077,434.450468 840.569324,405.290948 L840.569324,327.643005 C849.844451,268.839545 882.895697,238.044727 939.723061,235.25855 Z M948.404407,266.629275 C906.063991,267.59395 881.648634,291.138655 875.158337,337.263388 L875.158337,393.304335 C875.491511,418.763669 882.657332,438.851175 896.6558,453.566853 C913.714493,472.748566 932.322102,473.613667 947.932293,473.629051 L948.404407,473.629275 C964.110643,473.629275 982.195046,471.460703 999.577001,452.145581 C1011.16497,439.268832 1018.34894,422.637174 1021.12891,402.250606 L1019.39868,329.138161 C1010.56167,289.766908 986.89691,268.930613 948.404407,266.629275 Z"
        id="shape-combine"/>
      <path
        d="M1311.88771,307.256548 C1328.48805,301.64225 1323.65652,267.050076 1284.7605,247.550931 C1243.32758,227.630046 1171.03634,231.207743 1147.86225,272.091718 C1122.13944,317.741741 1139.2485,371.671609 1222.92583,382.985153 C1303.76256,396.888423 1299.18516,433.040041 1285.65842,455.363337 C1273.86763,474.426718 1225.40511,481.60123 1198.85852,469.684045 C1165.0275,461.290496 1165.82903,421.273703 1139.03842,432.110909 C1126.14423,441.22017 1130.7423,469.154077 1160.13527,487.764801 C1176.55407,498.160677 1230.36342,516.250645 1279.21233,497.389153 C1328.06124,478.527661 1327.90898,433.923559 1326.44857,419.654337 C1326.44857,414.901451 1320.97448,386.486602 1295.31196,372.848447 C1256.5768,349.230056 1175.79337,356.339913 1172.78374,314.326356 C1168.43922,288.581085 1185.08303,264.619865 1226.90037,264.619865 C1285.88077,265.793031 1286.61631,315.766842 1311.88771,307.256548 Z"
        id="path-133"/>
    </g>
  </g>
</svg>
