<svg viewBox="0 0 17 15" version="1.1" xmlns="http://www.w3.org/2000/svg">
  <g id="for-T" stroke="none" stroke-width="1" fill="none" fill-rule="evenodd">
    <path
      d="M14.3511585,4.83982245 C14.1854408,4.83982245 14.0515275,4.70792644 14.0515275,4.54470514 L14.0515275,3.36258719 C14.0515275,2.87457197 13.6481136,2.47558656 13.1509604,2.47558656 L7.60025302,2.47558656 C7.43453528,2.47558656 7.30062195,2.34369055 7.30062195,2.18046925 C7.30062195,2.01724794 7.43453528,1.88535193 7.60025302,1.88535193 L13.1509604,1.88535193 C13.9778751,1.88535193 14.6507896,2.54812936 14.6507896,3.36258719 L14.6507896,4.54470514 C14.6507896,4.70792644 14.5168763,4.83982245 14.3511585,4.83982245 L14.3511585,4.83982245 Z"
      id="shape" stroke="#1346FF" fill="#1346FF"/>
    <path
      d="M14.5001371,14 L2.49982924,14 C1.67291446,14 1,13.3372226 1,12.5227647 L1,2.47723526 C1,1.66277743 1.67291446,1 2.49982924,1 L5.84988146,1 C6.54957858,1 7.06012314,1.17805961 7.27605837,2.04527584 C7.45851528,2.77894737 7.75479851,4.39961953 7.88369009,4.83982245 L14.5001371,4.83982245 C15.3270519,4.83982245 16,5.50259987 16,6.3170577 L16,12.5244134 C16.0016403,13.3372226 15.3287258,14 14.5001371,14 Z M1.59926213,2.47723526 L1.59926213,12.5244134 C1.59926213,13.0124287 2.00267602,13.4114141 2.49982924,13.4114141 L14.5001371,13.4114141 C14.9956164,13.4114141 15.4007042,13.0140774 15.4007042,12.5244134 L15.4007042,6.15030552 C15.4007042,5.6622903 14.9972903,5.31795001 14.5001371,5.31795001 L7.52957908,5.31795001 C7.39566575,5.31795001 7.33744812,4.79799997 7.30062195,4.67269876 C7.2956002,4.65786046 7.02513385,3.15737501 6.78576378,2.19288547 C6.65854612,1.68013975 6.47274138,1.59770475 5.94210983,1.59770475 L2.49982924,1.58858592 C2.00434994,1.59023462 1.59926213,1.98757134 1.59926213,2.47723526 Z"
      id="shape" stroke="#333333" fill="#333333"/>
  </g>
</svg>
