<svg viewBox="0 0 15 15" version="1.1" xmlns="http://www.w3.org/2000/svg">
  <g id="for-T" stroke="none" stroke-width="1" fill="none" fill-rule="evenodd">
    <path
      d="M7.5,0 C3.36472234,0 0,3.36472234 0,7.5 C0,11.6358158 3.36418424,15 7.5,15 C11.6358158,15 15,11.6358158 15,7.5 C15,3.36472234 11.6358158,0 7.5,0 Z M7.5,13.9238054 C3.95770555,13.9238054 1.07619458,11.0417563 1.07619458,7.5 C1.07619458,3.95770555 3.95770555,1.07619458 7.5,1.07619458 C11.0417563,1.07619458 13.9238054,3.95770555 13.9238054,7.5 C13.9238054,11.0417563 11.0417563,13.9238054 7.5,13.9238054 Z"
      id="shape" fill="#333333"/>
    <g id="group-4" transform="translate(5.145286, 3.181769)" fill="#1346FF">
      <path
        d="M1.5475678,8.38624623 C1.5475678,8.83202062 1.90893934,9.19339217 2.35471373,9.19339217 C2.80048812,9.19339217 3.16185966,8.83202062 3.16185966,8.38624623 C3.16185966,7.94047184 2.80048812,7.5791003 2.35471373,7.5791003 C1.90893934,7.5791003 1.5475678,7.94047184 1.5475678,8.38624623 Z"
        id="path"/>
      <path
        d="M2.35471373,0 C1.05628498,0 0,1.04713732 0,2.33426604 C0,2.63129574 0.241067585,2.87236332 0.538097288,2.87236332 C0.835126991,2.87236332 1.07619458,2.63129574 1.07619458,2.33426604 C1.07619458,1.62882049 1.63743005,1.07619458 2.35471373,1.07619458 C3.06015928,1.07619458 3.63323289,1.65411106 3.63323289,2.36493758 C3.63323289,2.63344813 3.24903142,3.01711149 2.91003013,3.35611279 C2.39776152,3.86784331 1.81661644,4.44845028 1.81661644,5.22653896 L1.81661644,5.99494189 C1.81661644,6.29250969 2.05768403,6.53303917 2.35471373,6.53303917 C2.65174344,6.53303917 2.89281102,6.29250969 2.89281102,5.99494189 L2.89281102,5.22653896 C2.89281102,4.89453293 3.28831253,4.49903142 3.6708997,4.11698235 C4.15733965,3.6305424 4.70942746,3.07899268 4.70942746,2.36493758 C4.70942746,1.06058975 3.65314249,0 2.35471373,0 Z"
        id="path"/>
    </g>
  </g>
</svg>
