<svg viewBox="0 0 15 15" version="1.1" xmlns="http://www.w3.org/2000/svg">
  <g id="for-T" stroke="none" stroke-width="1" fill="none" fill-rule="evenodd">
    <g id="group-1" fill="#333333">
      <path
        d="M7.5,0 C3.36472234,0 0,3.36472234 0,7.5 C0,11.6358158 3.36418424,15 7.5,15 C11.6358158,15 15,11.6358158 15,7.5 C15,3.36472234 11.6358158,0 7.5,0 Z M7.5,13.9238054 C3.95770555,13.9238054 1.07619458,11.0417563 1.07619458,7.5 C1.07619458,3.95770555 3.95770555,1.07619458 7.5,1.07619458 C11.0417563,1.07619458 13.9238054,3.95770555 13.9238054,7.5 C13.9238054,11.0417563 11.0417563,13.9238054 7.5,13.9238054 Z"
        id="shape"/>
    </g>
    <g id="telegram" transform="translate(3.461538, 4.615385)" fill="#1346FF">
      <path
        d="M2.60446224,5.42019942 L2.71201368,3.80661905 L5.66199597,1.16690839 C5.79259414,1.04865545 5.63510811,0.991436288 5.46225759,1.09443078 L1.82087319,3.37938265 L0.246012853,2.88348324 C-0.0920059544,2.78811797 -0.0958470802,2.55542672 0.322835306,2.38758384 L6.45710839,0.0377835958 C6.73751034,-0.0880985604 7.00638894,0.10644659 6.8988375,0.533682993 L5.85405211,5.42019942 C5.78107077,5.767329 5.56980903,5.85125044 5.27788369,5.69103679 L3.68765886,4.52376589 L2.92327542,5.25998577 C2.8349296,5.34772182 2.76194827,5.42019942 2.60446224,5.42019942 Z"
        id="path"/>
    </g>
  </g>
</svg>
