<svg viewBox="0 0 15 15" version="1.1" xmlns="http://www.w3.org/2000/svg">
  <g id="for-T" stroke="none" stroke-width="1" fill="none" fill-rule="evenodd">
    <g id="twitter" transform="translate(0, 0)">
      <rect id="rect" fill="#000000" opacity="0" x="0" y="0" width="15" height="15"/>
      <path
        d="M7.5,0.188752031 C3.46206772,0.188752031 0.188752031,3.46208272 0.188752031,7.5 C0.188752031,11.5379323 3.46206772,14.811248 7.5,14.811248 C11.5379323,14.811248 14.811248,11.5379323 14.811248,7.5 C14.811248,3.46208271 11.5379323,0.188752031 7.5,0.188752031 M7.5,14.1465836 C3.82912386,14.1465836 0.853416387,11.1708761 0.853416387,7.5 C0.853416387,3.82943864 3.82912386,0.853431372 7.5,0.853431372 C11.1708761,0.853431372 14.1465686,3.82945364 14.1465686,7.5 C14.1465686,11.1708761 11.1708761,14.1465836 7.5,14.1465836 Z"
        id="shape" stroke="#333333" stroke-width="0.3" fill="#333333"/>
      <path
        d="M10.1060731,5.26585475 C9.85746664,5.00492666 9.50307691,4.84200212 9.11071793,4.84200212 C8.35777843,4.84200212 7.74731732,5.44304962 7.74731732,6.18396727 C7.74731732,6.28879119 7.75897941,6.39135166 7.78236356,6.48999979 C6.64905694,6.43384786 5.64428817,5.89932526 4.97184409,5.08734078 C4.85435375,5.28595611 4.78718429,5.51605011 4.78718429,5.76236312 C4.78718429,6.22775259 5.02766624,6.638624 5.39374803,6.87943575 C5.17753833,6.87265073 4.96596192,6.81506571 4.77613677,6.71133971 C4.77579201,6.71718574 4.77579201,6.72238723 4.77579201,6.72820327 C4.77579201,7.37858231 5.24605317,7.92119941 5.86982525,8.0445508 C5.75260547,8.07569648 5.63182077,8.09140368 5.51053386,8.09127412 C5.42450723,8.09121949 5.33867157,8.08317538 5.25413271,8.06724541 C5.4274452,8.60080865 5.93111871,8.98829593 6.52762427,8.99931347 C6.06094567,9.35954924 5.47319417,9.573754 4.83417743,9.573754 C4.7255214,9.57378684 4.61694917,9.56772141 4.50897292,9.55558632 C5.11262864,9.93596842 5.82921779,10.1582677 6.59933565,10.1582677 C9.10768998,10.1582677 10.4792151,8.11332417 10.4792151,6.33939688 C10.4792151,6.28129627 10.477926,6.22354043 10.4753327,6.16608439 C10.7412981,5.97655088 10.9715999,5.74141777 11.1555715,5.47157527 C10.9108475,5.5780331 10.6483005,5.65008924 10.3724575,5.68252724 C10.6538317,5.51637989 10.8700001,5.25350312 10.9718861,4.93999069 C10.7037009,5.09655626 10.4109684,5.20671355 10.1060731,5.26585475 Z"
        id="path" fill="#1346FF"/>
    </g>
  </g>
</svg>
