<svg xmlns="http://www.w3.org/2000/svg" baseProfile="tiny" version="1.2" viewBox="0 0 100 100">
  <path
    d="M27.5 70h-15c-1.4 0-2.5 1.1-2.5 2.5v15c0 1.4 1.1 2.5 2.5 2.5h15c1.4 0 2.5-1.1 2.5-2.5v-15C30 71.1 28.9 70 27.5 70zM25 85H15V75h10V85zM27.5 40h-15c-1.4 0-2.5 1.1-2.5 2.5v15c0 1.4 1.1 2.5 2.5 2.5h15c1.4 0 2.5-1.1 2.5-2.5v-15C30 41.1 28.9 40 27.5 40zM25 55H15V45h10V55zM27.5 10h-15c-1.4 0-2.5 1.1-2.5 2.5v15c0 1.4 1.1 2.5 2.5 2.5h15c1.4 0 2.5-1.1 2.5-2.5v-15C30 11.1 28.9 10 27.5 10zM25 25H15V15h10V25zM57.5 22.5h-20c-1.4 0-2.5-1.1-2.5-2.5v0c0-1.4 1.1-2.5 2.5-2.5h20c1.4 0 2.5 1.1 2.5 2.5v0C60 21.4 58.9 22.5 57.5 22.5zM57.5 52.5h-20c-1.4 0-2.5-1.1-2.5-2.5v0c0-1.4 1.1-2.5 2.5-2.5h20c1.4 0 2.5 1.1 2.5 2.5v0C60 51.4 58.9 52.5 57.5 52.5zM57.5 82.5h-20c-1.4 0-2.5-1.1-2.5-2.5l0 0c0-1.4 1.1-2.5 2.5-2.5h20c1.4 0 2.5 1.1 2.5 2.5l0 0C60 81.4 58.9 82.5 57.5 82.5zM87.5 22.5h-20c-1.4 0-2.5-1.1-2.5-2.5v0c0-1.4 1.1-2.5 2.5-2.5h20c1.4 0 2.5 1.1 2.5 2.5v0C90 21.4 88.9 22.5 87.5 22.5zM87.5 52.5h-20c-1.4 0-2.5-1.1-2.5-2.5v0c0-1.4 1.1-2.5 2.5-2.5h20c1.4 0 2.5 1.1 2.5 2.5v0C90 51.4 88.9 52.5 87.5 52.5zM87.5 82.5h-20c-1.4 0-2.5-1.1-2.5-2.5l0 0c0-1.4 1.1-2.5 2.5-2.5h20c1.4 0 2.5 1.1 2.5 2.5l0 0C90 81.4 88.9 82.5 87.5 82.5z"/>
</svg>
