<svg viewBox="0 0 17 15" version="1.1" xmlns="http://www.w3.org/2000/svg">
  <g id="page-1" fill="currentColor" fill-rule="evenodd">
    <path
      d="M14.1916668,10.2609811 C14.1916668,11.0306899 13.8650002,12.0757306 13.2116669,13.3961031 C13.1373765,13.5229647 13.1382674,13.6791724 13.2140002,13.8052111 C13.3330002,13.9996976 13.5971335,14.0582723 13.8043335,13.9360891 C13.8508065,13.9086935 13.9068943,13.8550708 13.9608923,13.7445753 C14.0148903,13.6340797 15.0666288,11.5378991 15.0666667,10.260981 C15.0666667,8.36462343 14.2089335,6.65634572 12.8369337,5.45830902 L12.2405338,6.05870022 C13.4408002,7.10663919 14.1916668,8.60166819 14.1916668,10.2609811 Z M9.86566747,4.77051338 L9.86566734,4.77051334 C9.28130743,4.60292605 8.67550565,4.51817142 8.06666824,4.51882495 C4.68380151,4.51882495 1.94166863,7.08970739 1.94166863,10.260981 L1.94166846,10.261251 C1.94100977,11.3411844 2.26328778,12.3975992 2.86861997,13.2997734 L2.86861997,13.2997734 C2.88696245,13.3194668 2.90322315,13.3409318 2.9171533,13.3638395 C3.03615328,13.5578684 2.96475329,13.8141329 2.75755332,13.9358585 C2.55035336,14.0584994 2.28622007,13.9999853 2.16722008,13.8054382 L2.1672201,13.8054382 C2.15793056,13.7904336 2.1496679,13.7748404 2.14248677,13.7587615 L2.14248651,13.7587611 C1.44007163,12.7223341 1.06578169,11.5054207 1.06666824,10.260979 C1.06666824,6.63666625 4.20080264,3.69831878 8.06666824,3.69831878 C8.78206856,3.69831878 9.47273511,3.79899413 10.1228017,3.98615876 L9.86613505,4.77051129 L9.86566747,4.77051338 Z M7.18341052,11.6087086 C6.60891195,11.2829742 6.68206799,10.5245674 7.31673456,9.72053746 C7.95186779,8.91650748 12.5000004,3 12.5000004,3 C12.5000004,3 9.59126752,9.26749837 8.90946763,10.5259403 C8.22720107,11.7843822 7.75790909,11.934443 7.18341052,11.6087086 Z"
      id="shape"/>
  </g>
</svg>
