<svg width="127px" height="80px" viewBox="0 0 127 80" version="1.1" xmlns="http://www.w3.org/2000/svg">
  <defs>
    <linearGradient x1="-46.2810869%" y1="-185.963888%" x2="68.7253303%" y2="100%" id="linearGradient-1">
      <stop stop-color="#D2D2D2" offset="0%"/>
      <stop stop-color="#D2D2D2" stop-opacity="0" offset="100%"/>
    </linearGradient>
    <linearGradient x1="118.475166%" y1="-110.864112%" x2="54.4676254%" y2="55.5871768%" id="linearGradient-2">
      <stop stop-color="#D2D2D2" offset="0%"/>
      <stop stop-color="#D2D2D2" stop-opacity="0" offset="100%"/>
    </linearGradient>
    <linearGradient x1="50%" y1="-221.156912%" x2="50%" y2="100%" id="linearGradient-3">
      <stop stop-color="#D2D2D2" offset="0%"/>
      <stop stop-color="#D2D2D2" stop-opacity="0" offset="100%"/>
    </linearGradient>
    <linearGradient x1="99.7000438%" y1="-97.780461%" x2="38.911293%" y2="104.736078%" id="linearGradient-4">
      <stop stop-color="#D2D2D2" offset="0%"/>
      <stop stop-color="#D2D2D2" stop-opacity="0" offset="100%"/>
    </linearGradient>
    <linearGradient x1="50%" y1="-230.116303%" x2="50%" y2="100%" id="linearGradient-5">
      <stop stop-color="#D2D2D2" offset="0%"/>
      <stop stop-color="#D2D2D2" stop-opacity="0" offset="100%"/>
    </linearGradient>
    <linearGradient x1="50%" y1="-169.203289%" x2="50%" y2="100%" id="linearGradient-6">
      <stop stop-color="#D2D2D2" offset="0%"/>
      <stop stop-color="#D2D2D2" stop-opacity="0" offset="100%"/>
    </linearGradient>
    <linearGradient x1="50.0240964%" y1="7.13818556%" x2="50.0240964%" y2="84.6398206%" id="linearGradient-7">
      <stop stop-color="#D7D7D7" offset="0%"/>
      <stop stop-color="#E4E4E4" offset="100%"/>
    </linearGradient>
    <linearGradient x1="50.0755967%" y1="1.21891189%" x2="49.5942108%" y2="95.1595134%" id="linearGradient-8">
      <stop stop-color="#F4F4F4" offset="0%"/>
      <stop stop-color="#DDDDDE" offset="96%"/>
    </linearGradient>
    <linearGradient x1="49.9999958%" y1="91.2695941%" x2="49.9999958%" y2="6.71649538%" id="linearGradient-9">
      <stop stop-color="#EAEAEA" offset="0%"/>
      <stop stop-color="#EFEFF0" offset="100%"/>
    </linearGradient>
  </defs>
  <g id="for-T" stroke="none" stroke-width="1" fill="none" fill-rule="evenodd">
    <g id="Pool-PRIVATE" transform="translate(-657.000000, -1232.000000)">
      <g id="no-data" transform="translate(657.000000, 1232.000000)">
        <g id="group-6" transform="translate(0.000000, 5.714286)" fill-rule="nonzero">
          <path
            d="M25.0823099,54.8366428 C22.3728794,53.6061589 19.4351973,50.3050678 20.2678928,47.1991565 C20.6843794,47.0921517 21.1225766,47.2626451 21.358428,47.6234614 C21.358428,47.6234614 26.0587193,54.9936355 24.7399326,48.2132452 C24.1185811,45.0267163 23.0491803,41.9462636 22.9646427,38.6536585 C22.8251556,32.6709612 28.2947392,31.0119295 29.8671388,37.6225979 C30.074256,38.4966658 30.8689095,45.6037707 32.6780145,44.7891057 C32.9110328,44.6660805 33.1001259,44.473298 33.2190552,44.2375095 C34.1362883,42.7269844 34.4110356,40.5078705 36.093334,39.9944618 C37.5685154,39.5277264 39.0225625,40.81337 39.8172158,42.1414438 C41.4276575,44.8400222 43.5833665,51.5482805 40.2863998,53.8225541 C36.9894327,56.0968277 28.6709316,56.4574869 25.1118981,54.8663439 L25.0823099,54.8366428 Z"
            id="路径" fill="url(#linearGradient-1)"/>
          <path
            d="M93.5324154,62.0116365 C92.3404352,59.2748707 92.3700231,54.8493719 95.0752269,53.1012362 C95.4575559,53.3075211 95.6640478,53.7375016 95.5866794,54.166241 C95.5866794,54.166241 94.1453133,62.8008432 97.7001199,56.8817917 C99.390872,54.0941094 100.658936,51.0942746 102.772377,48.5951195 C106.65688,44.0380863 111.834809,46.5117828 108.584338,52.4732649 C108.161649,53.262472 103.993945,59.0669614 105.879134,59.6864463 C106.134356,59.7494517 106.402621,59.7331757 106.648426,59.6397726 C108.339179,59.139093 110.029931,57.6794848 111.627692,58.4177751 C113.031016,59.0669614 113.250814,60.993305 112.954932,62.5165592 C112.346261,65.6012547 109.362757,69.0508573 105.397943,68.5162332 C101.348592,67.9646371 95.1048152,65.618227 93.545096,62.0413379 L93.5324154,62.0116365 Z"
            id="路径" fill="url(#linearGradient-2)"/>
          <path
            d="M126.857143,68.5162287 C110.917576,57.539464 88.3925288,50.6954281 63.4285713,50.6954281 C38.4646141,50.6954281 15.939567,57.539464 0,68.5162287 L126.857143,68.5162287 Z"
            id="路径" fill="url(#linearGradient-3)"/>
          <path
            d="M100.47718,35.4204563 C99.4669561,36.6933704 98.8202433,38.4966658 99.4246872,40.109024 C99.8431483,41.2207025 101.102759,41.2291885 101.013994,42.7736578 C100.927081,43.5448406 100.6638,44.2854277 100.244702,44.9376124 C99.5305465,46.1915234 98.6551113,47.34564 97.6409434,48.3702379 C98.4863142,49.0321771 98.9163688,50.0960664 98.7695205,51.1621634 C98.6037242,52.2203382 98.1044956,53.1973344 97.345062,53.9498458 C97.1214522,54.2243309 96.8299303,54.4350299 96.4996858,54.5608447 C96.1798355,54.6350041 95.8473535,54.6350041 95.5275033,54.5608447 C93.9548669,54.2929161 92.4279144,53.8029365 90.9920602,53.1054793 C90.0959614,52.6769313 89.1829551,52.0913906 88.87862,51.1579203 C88.5299022,50.0865507 89.0843501,49.7461124 89.6895702,49.4104392 L89.8457802,49.323771 C90.1582919,49.1488155 90.4649079,48.9586577 90.6496828,48.654522 C91.0935052,47.924718 91.1061858,46.9488168 91.2625807,46.1341517 C91.490832,44.9333693 91.1526817,42.7439567 92.6489973,42.2729782 C93.22808,42.0905272 93.8578851,42.1329578 94.4369678,41.9462636 C95.6949347,41.5443528 96.2157149,40.3564826 96.7199207,39.1554077 L96.811572,38.9370569 C97.1022394,38.2462415 97.4018898,37.5665739 97.8480605,37.0455436 C98.4820926,36.3030101 100.054492,35.9381078 100.47718,35.4204563 Z M96.8251555,42.5445335 C96.8251555,42.5445335 92.2728051,47.8738012 92.420746,52.7999798 L93.8917004,52.7999798 C93.8917004,52.7999798 94.4242871,46.8597128 96.8251555,42.5445335 Z"
            id="形状结合" fill="url(#linearGradient-4)"/>
          <path
            d="M35.6537383,7.5648476 L35.6537383,7.5648476 C35.6772524,5.92007762 34.506918,4.50184647 32.8926649,4.21893149 C31.2784119,3.9360165 29.6985712,4.87225029 29.1654766,6.42771079 C28.1484144,6.40769794 27.2016057,6.9466594 26.6966039,7.83309204 C26.1916022,8.71952467 26.2089821,9.81199545 26.7419231,10.6817892 C27.2748642,11.5515829 28.2383341,12.0599213 29.2542411,12.0073186 L35.3789911,12.0073186 C36.541887,11.9917476 37.4963416,11.0791697 37.5684041,9.91396535 C37.640467,8.74876105 36.805786,7.72468492 35.6537383,7.5648476 L35.6537383,7.5648476 Z"
            id="路径" fill="url(#linearGradient-5)"/>
          <path
            d="M60.9685268,4.19586769 L60.9685268,4.17465245 C60.966036,2.1417014 59.5066368,0.40543172 57.5107321,0.0608607767 C55.5148277,-0.283710165 53.5614345,0.863378556 52.882504,2.77868973 C50.9624256,2.80915355 49.4304965,4.39633385 49.4608442,6.32375613 C49.4911918,8.25117842 51.0723246,9.78896713 52.992403,9.75850331 L60.6007882,9.75850331 C62.0666685,9.7611256 63.2813346,8.61795819 63.3731222,7.14935619 C63.4649098,5.68075419 62.4021045,4.39415378 60.9473925,4.21283988 L60.9685268,4.19586769 Z"
            id="路径" fill="url(#linearGradient-6)"/>
        </g>
        <g id="source-1" transform="translate(45.772434, 24.273377)">
          <path
            d="M33.2155515,4.12424242 L41.0019547,4.12424242 C41.1091329,4.12424242 41.0837394,4.20202364 41.1585769,4.27200145 C41.2479052,4.35552877 41.2427627,4.44822854 41.2427627,4.58516167 L41.7700348,15.4659091 L33.2106014,15.4659091 L33.2106014,4.12742142 L33.2155515,4.12424242 Z"
            id="path" fill="url(#linearGradient-7)" fill-rule="nonzero"/>
          <path
            d="M4.45090535,6.26036818 L4.45090535,45.3666666 L28.9313281,45.3666666 C32.1341471,45.3660793 34.7302562,42.5633892 34.7302562,39.1062986 L34.7302562,8.5414094 C34.7302562,6.35926645 35.945491,4.45786707 37.9651653,4.3940617 C38.9633685,4.36097785 39.5890237,4.76584301 40.305969,5.51626232 C41.0229144,6.26668164 41.4276575,7.2986206 41.4276575,8.3765789 L41.4276575,6.26036818 C41.4276575,2.8028623 39.5157026,0 36.3124987,0 L10.2508188,0 C7.04761502,0 4.45090535,2.8028623 4.45090535,6.26036818 Z"
            id="path2" fill="url(#linearGradient-8)" fill-rule="nonzero"/>
          <g id="group-2" transform="translate(20.900718, 5.277422)" fill="#FFFFFF">
            <path
              d="M5.71334807,0 L6.66575513,0.95241079 L8.20587368,2.50463945 L7.25651793,3.45598262 L5.71334807,1.90482158 L4.28473748,3.33325874 L8.09436572,7.1429019 L9.04668327,8.09522318 L5.71334807,11.4285714 L4.76094101,10.4762502 L3.23030488,8.93816267 L4.18271194,7.98575188 L5.71334807,9.52374985 L7.14195866,8.09522318 L3.33233042,4.28575904 L2.38010238,3.33325874 L3.33233042,2.38093746 L4.76094101,0.95241079 L5.71334807,0 Z M1.6497481,4.05382504 L2.60215516,5.00623583 L1.90481412,5.71429467 L3.44676905,7.26400671 L2.49436199,8.2164175 L0.95240706,6.66670546 L0,5.71429467 L0.95240706,4.76188388 L1.6497481,4.05382504 Z M8.93242366,3.23528706 L10.4757486,4.76187492 L11.4281557,5.71428571 L9.77413337,7.37158987 L8.82181582,6.41917908 L9.52334153,5.71428571 L7.9800166,4.18760834 L8.93242366,3.23528706 Z"
              id="shape-group-bak"/>
          </g>
          <path
            d="M31.1209963,41.7692467 C29.1010861,41.7039558 27.5450363,39.7891137 27.5450363,37.5949122 L27.5450363,35.0560606 L0,35.0560606 L0,39.6456877 C0,42.8052973 2.35676352,45.3666666 5.26397866,45.3666666 L29.6594913,45.3666666 C32.5663219,45.3660755 34.922491,42.8048794 34.922491,39.6456877 L34.922491,37.7565337 C34.9237477,38.8419594 34.520041,39.8815655 33.8036128,40.637801 C33.0871845,41.3940365 32.1192548,41.8022798 31.1209963,41.7692467 L31.1209963,41.7692467 Z"
            id="path3" fill="url(#linearGradient-9)" fill-rule="nonzero"/>
          <rect id="rect" fill="#FFFFFF" fill-rule="nonzero" x="9.24418803" y="7.90479797" width="8" height="2.06212121" rx="0.687373737"/>
          <rect id="rect2" fill="#FFFFFF" fill-rule="nonzero" x="9.24418803" y="14.4348485" width="11.4285714" height="2.06212121"
                rx="0.687373737"/>
          <rect id="rect3" fill="#FFFFFF" fill-rule="nonzero" x="9.24418803" y="20.964899" width="20.2002627" height="2.06212121"
                rx="0.687373737"/>
          <rect id="rect4" fill="#FFFFFF" fill-rule="nonzero" x="9.24418803" y="27.4949495" width="22.8571429" height="2.06212121"
                rx="0.687373737"/>
        </g>
      </g>
    </g>
  </g>
</svg>
