<svg viewBox="0 0 22 22" version="1.1" xmlns="http://www.w3.org/2000/svg">
  <g id="for-T" stroke="currentColor" stroke-width="0.4" fill="currentColor" fill-rule="evenodd">
    <path
      d="M14.168201,3.421051 L14.168201,3.421051 C15.0306277,3.42228986 15.8272642,3.87337831 16.2595519,4.60525954 L19.3277531,9.81578726 L19.3277531,9.81578739 C19.7576545,10.5489698 19.7576545,11.4510241 19.3277531,12.1842131 L16.2595519,17.3947408 L16.2595519,17.3947408 C15.8272643,18.126622 15.0306255,18.5777102 14.1682011,18.5789492 L8.03179867,18.5789492 L8.03179869,18.5789492 C7.16937198,18.5777105 6.37273546,18.126622 5.94044782,17.3947408 L2.87224663,12.1842131 L2.87224652,12.1842129 C2.44234517,11.4510305 2.44234517,10.5489762 2.87224665,9.81578715 L5.94044784,4.60525943 L5.94044785,4.60525942 C6.37273548,3.87337819 7.16937427,3.42228997 8.03179872,3.421051 L14.1682011,3.421051 M14.1682011,2 L8.03179872,2 L8.03179873,2 C6.65147043,2 5.37603423,2.72237129 4.68587008,3.89473392 L1.61766888,9.10526164 L1.61766898,9.10526148 C0.927443705,10.2777262 0.927443705,11.7222601 1.61766879,12.8947382 L4.68586999,18.1052659 L4.68587008,18.1052661 C5.37603422,19.2776287 6.65146364,20 8.03179872,20 L14.1682011,20 L14.1682012,20 C15.5485295,20 16.8239657,19.2776287 17.5141299,18.1052661 L20.5823311,12.8947384 L20.582331,12.8947384 C21.2725563,11.7222736 21.2725563,10.2777398 20.5823311,9.10526169 L17.5141299,3.89473397 L17.5141299,3.89473392 C16.8239657,2.72237129 15.5485363,2 14.1682012,2 L14.1682011,2 Z"
      id="shape"/>
    <path
      d="M11.0999998,8.21116978 L11.0999996,8.21116978 C12.7004904,8.21116978 13.9979465,9.48362103 13.9979465,11.0532718 C13.9979465,12.6229203 12.7004926,13.8953738 11.0999996,13.8953738 C9.49950889,13.8953738 8.20205282,12.6229225 8.20205282,11.0532718 L8.20205282,11.0532722 C8.20205282,9.48362368 9.49950662,8.21116978 11.0999996,8.21116978 M11.0999996,6.79011922 L11.0999994,6.79011922 C8.69925427,6.79011922 6.75307922,8.6987972 6.75307922,11.0532722 C6.75307922,13.4077539 8.69926106,15.3164252 11.0999994,15.3164252 C13.5007446,15.3164252 15.4469197,13.4077472 15.4469197,11.0532722 L15.4469197,11.0532722 C15.4469197,8.69879054 13.5007378,6.79011922 11.0999994,6.79011922 L11.0999996,6.79011922 Z"
      id="shape-2"/>
  </g>
</svg>
