<svg viewBox="0 0 36 36" version="1.1" xmlns="http://www.w3.org/2000/svg">
  <g id="for-T" stroke="none" stroke-width="1" fill="none" fill-rule="evenodd">
    <path
      d="M29.4115462,5.29411765 L0.529411765,5.29411765 L0.529411765,28.845677 C0.529411765,32.5045144 3.479163,35.4705882 7.11786557,35.4705882 L29.4115462,35.4705882 C33.0502487,35.4705882 36,32.5045144 36,28.845677 L36,11.9190288 C36,8.26019142 33.0502487,5.29411765 29.4115462,5.29411765 L29.4115462,5.29411765 Z"
      id="path-1" fill="#1346FF"/>
    <path
      d="M11.6879292,24.3109485 C11.2382623,24.3205191 10.8047458,24.1381679 10.4900077,23.8070636 C10.1965589,23.4788285 10.041941,23.0437292 10.0602883,22.5978202 C10.0786356,22.1519113 10.2684392,21.7318625 10.5877972,21.4304061 L15.2246497,17.0634029 C15.5538481,16.7531216 15.9920744,16.595468 16.4371295,16.6272086 C16.8821845,16.6589492 17.2951605,16.8773092 17.579747,17.2313646 L19.8289057,20.0279262 L23.0478103,15.9716521 C23.416673,15.5051072 23.9995527,15.2775887 24.5757754,15.3752335 C25.151998,15.4728783 25.6334937,15.8807624 25.8379717,16.4444638 C26.0424496,17.0081653 25.9386574,17.6415279 25.5658901,18.1047652 L21.1001693,23.7398789 C20.7914938,24.1268749 20.3313079,24.3516792 19.8452039,24.3529412 C19.3604414,24.3537503 18.9004864,24.1321367 18.5902386,23.748277 L16.1455009,20.7333652 L12.7717629,23.9162387 C12.4689923,24.1790967 12.0837338,24.3193999 11.6879292,24.3109485 L11.6879292,24.3109485 Z"
      id="path-2" fill="#FFFFFF"/>
    <path
      d="M22.7080279,3.17647059 L1.64491327,3.17647059 C0.73645275,3.17647059 0,2.46539342 0,1.58823529 C0,0.711077171 0.73645275,0 1.64491327,0 L22.7080279,0 C23.6164884,0 24.3529412,0.711077171 24.3529412,1.58823529 C24.3529412,2.46539342 23.6164884,3.17647059 22.7080279,3.17647059 Z"
      id="path-3" fill="#1346FF"/>
  </g>
</svg>
