<svg viewBox="0 0 36 36" version="1.1" xmlns="http://www.w3.org/2000/svg">
  <g id="for-T" stroke="none" stroke-width="1" fill="none" fill-rule="evenodd">
    <path
      d="M22.2589286,36 L6.50892858,36 C3.05357142,36 1.44642857,34.4 1.44642857,31.68 L1.44642857,14.88 C0.32142854,14.56 0,14 0,13.04 L0,9.43999997 C0,8.23999997 0.562500016,7.68 3.29464284,7.68 L33.5892857,7.68 C35.4375,7.68 36,8.4 36,9.6 L36,13.04 C36,14.24 35.5982143,14.88 34.1517857,14.96 C34.3125,15.84 34.1517857,28.88 34.1517857,31.52 C34.1517857,34.24 32.625,36 29.1696429,36 L22.2589286,36 L22.2589286,36 Z"
      id="path" fill="#1346FF" fill-rule="nonzero"/>
    <path
      d="M12.6844499,1.20091009 C14.3783063,2.17621782 17.2820601,3.63917941 18.1693181,4.20810888 C19.3792155,4.93958968 19.3792155,6.24 17.766019,6.24 L12.0391713,6.24 C10.5066346,6.24 10.5066346,4.61448714 10.5872944,3.39535248 C10.7486141,2.17621782 11.1519132,0.388153633 12.6844499,1.20091009 Z M28.2517965,3.39535248 C28.4131162,4.61448714 28.4131162,6.24 26.7999197,6.24 L21.0730719,6.24 C19.5405352,6.24 19.5405352,4.93958968 20.6697728,4.20810888 C21.5570309,3.63917936 24.3801248,2.17621777 26.154641,1.20091009 C27.6065179,0.306878021 28.0904769,2.09494216 28.2517965,3.39535248 Z"
      id="shape" fill="#D5D5F2" fill-rule="nonzero"/>
    <path
      d="M11.7555691,0.206147094 C10.3102563,-0.612216289 9.82848539,1.18818313 9.6678951,2.41572818 C9.50730481,3.64327323 9.50730481,5.28 11.1132079,5.28 L16.8141638,5.28 C18.3397717,5.28 18.3397717,3.9706186 17.2156396,3.23409157 C16.3323929,2.74307355 13.5220625,1.18818313 11.7555691,0.206147094 Z M27.332829,2.41572818 C27.1722387,1.18818313 26.7707629,-0.612216289 25.2451549,0.206147094 C23.5589567,1.18818313 20.6683312,2.66123719 19.7850845,3.23409157 C18.5806572,3.9706186 18.5806572,5.28 20.1865602,5.28 L25.8875162,5.28 C27.4131241,5.28 27.4131241,3.64327328 27.332829,2.41572818 L27.332829,2.41572818 Z"
      id="shape-2" fill="#1346FF" fill-rule="nonzero"/>
    <line x1="12.5" y1="26.5" x2="23.5" y2="26.5" id="path-2" stroke="#FFFFFF" stroke-width="3" stroke-linecap="round"/>
  </g>
</svg>
