<svg viewBox="0 0 37 38" version="1.1" xmlns="http://www.w3.org/2000/svg">
  <g id="for-T" stroke="none" stroke-width="1" fill="none" fill-rule="evenodd">
    <path
      d="M27.3132955,0.0261136364 L8.49293182,0.0261136364 C5.29875,0.0261136364 2.70893182,2.61593182 2.70893182,5.81011364 L2.70893182,24.4799318 C2.70893182,25.2675682 3.34602273,25.9046591 4.13365909,25.9046591 L31.6725682,25.9046591 C32.4602045,25.9046591 33.0972955,25.2675682 33.0972955,24.4799318 L33.0972955,5.81011364 C33.0972955,2.61593182 30.5074773,0.0261136364 27.3132955,0.0261136364 Z"
      id="path-1" fill="#8181FF"/>
    <path
      d="M30.7714773,16.0341136 L19.3932955,21.3533864 C18.4484395,21.796281 17.3556059,21.796281 16.41075,21.3533864 L5.03475,16.0341136 C2.70020455,14.9432045 0.0231136364,16.6472045 0.0231136364,19.2239318 L0.0231136364,31.1890227 C0.0231136364,34.2370227 2.49293182,36.7068409 5.54093182,36.7068409 L30.2674773,36.7068409 C33.3154773,36.7068409 35.7852955,34.2370227 35.7852955,31.1890227 L35.7852955,19.2239318 C35.7852955,16.6472045 33.1060227,14.9432045 30.7714773,16.0341136 Z"
      id="path-2" fill="#1346FF"/>
    <path
      d="M24.7911136,8.45229545 L11.0129318,8.45229545 C9.88275,8.45229545 8.96856818,7.53593182 8.96856818,6.40793182 C8.96856818,5.27775 9.88493182,4.36356818 11.0129318,4.36356818 L24.7911136,4.36356818 C25.9212955,4.36356818 26.8354812,5.27993182 26.8354812,6.40793182 C26.8376591,7.53811364 25.9212955,8.45229545 24.7911136,8.45229545 L24.7911136,8.45229545 Z"
      id="path-3" fill="#FFFFFF"/>
    <path
      d="M24.7911136,15.5388409 L11.0129318,15.5388409 C9.88275,15.5388409 8.96856818,14.6224773 8.96856818,13.4944773 C8.96856818,12.3642955 9.88493182,11.4501136 11.0129318,11.4501136 L24.7911136,11.4501136 C25.9212955,11.4501136 26.8354812,12.3664773 26.8354812,13.4944773 C26.8376591,14.6224773 25.9212955,15.5388409 24.7911136,15.5388409 L24.7911136,15.5388409 Z"
      id="path-4" fill="#FFFFFF"/>
  </g>
</svg>
