<?xml version="1.0" encoding="UTF-8"?>
<svg width="501px" height="647px" viewBox="0 0 501 647" version="1.1" xmlns="http://www.w3.org/2000/svg">
  <defs>
    <linearGradient x1="20.0196365%" y1="0%" x2="79.9803635%" y2="100%" id="linearGradient-1">
      <stop stop-color="#160068" offset="0%"/>
      <stop stop-color="#070CDA" offset="100%"/>
    </linearGradient>
  </defs>
  <g id="page-1" stroke="none" stroke-width="1" fill="none" fill-rule="evenodd">
    <g id="group-6" transform="translate(0.000000, -153.000000)">
      <rect id="rect" fill="url(#linearGradient-1)" x="0" y="153" width="501" height="647"/>
      <rect id="rect" fill="#FFFFFF" opacity="0.200000003" x="98" y="299" width="305" height="364" rx="8"/>
      <rect id="rect" fill="#FFFFFF" opacity="0.400000006" x="74" y="319" width="353" height="349" rx="8"/>
      <rect id="rect" fill="#FFFFFF" x="50" y="339" width="401" height="363" rx="8"/>
      <g id="group-4" transform="translate(80.000000, 614.000000)" fill="#F3F6FF">
        <rect id="rect" x="0" y="0" width="341" height="48" rx="4"/>
      </g>
      <g id="group-3" transform="translate(50.000000, 193.000000)">
        <g id="group-2">
          <polygon id="Fill-1" fill="#37DBFF"
                   points="3.31492968 16.6665936 0 20.0000313 3.31492968 23.3334691 8.68182833 28.7574612 11.996758 25.4240235 6.62985937 20.0000313 9.05701119 17.5218254 5.7420815 14.1883876"/>
          <polygon id="Fill-2" fill="#37DBFF"
                   points="36.4631361 16.6665622 31.091469 11.3235047 27.7765393 14.6566292 33.1482064 20 30.7064895 22.4671268 34.0211077 25.8005646 39.7780658 20"/>
          <polygon id="Fill-3" fill="#FFFFFF"
                   points="19.8889862 0 16.5740565 3.33343776 11.6016619 8.33328112 8.28735537 11.6664056 11.6016619 15.0001566 24.8613807 28.3332811 19.8889862 33.3331245 14.5614835 27.9501316 11.2465538 31.2835693 16.5740565 36.6668755 19.8889862 40 23.2039158 36.6668755 31.4909285 28.3332811 28.1763104 25.0001566 14.9165916 11.6664056 19.8889862 6.66687553 25.2601135 12.0959392 28.5644228 8.76623808 23.2039158 3.33343776"/>
        </g>
        <g id="group" transform="translate(47.169037, 6.550518)" fill="#FFFFFF">
          <path
            d="M0,23.0876907 L2.931793,19.7677246 C3.3022789,20.6659356 3.90022882,21.3789906 4.72595434,21.9068893 C5.55136827,22.4344748 6.46932578,22.6979542 7.48045005,22.6979542 C8.71561079,22.6979542 9.69277126,22.4050252 10.4116199,21.8182274 C11.1301569,21.2314296 11.4900486,20.4416178 11.4900486,19.448479 C11.4900486,18.2864751 10.2938371,17.1185188 7.90110267,15.9449231 L6.06487607,15.030734 C3.93107668,13.9248097 2.44290117,12.8248379 1.60097273,11.730192 C0.758109508,10.6358595 0.336833694,9.34947837 0.336833694,7.87104859 C0.336833694,5.82869138 1.14292876,4.15038065 2.75449571,2.83548983 C4.36606265,1.5212256 6.45810837,0.86393684 9.03032128,0.86393684 C9.79403949,0.86393684 10.4873373,0.926282152 11.1105264,1.05034619 C11.7340271,1.17472352 12.3263683,1.3777374 12.8881732,1.66001441 C13.9775077,2.16817569 14.9378421,2.98712366 15.7691763,4.11623171 L12.6522962,7.11444594 C12.2927161,6.41423603 11.8013315,5.88069802 11.1781424,5.51351859 C10.5546418,5.14665246 9.81647429,4.96306275 8.96239367,4.96306275 C7.90702297,4.96306275 7.0613554,5.22278267 6.42726051,5.74190921 C5.79254244,6.26072245 5.4753392,6.94338795 5.4753392,7.7899057 C5.4753392,9.0875654 6.74446375,10.2834049 9.28271285,11.3780507 L10.4452721,11.8858987 C12.511767,12.8226448 14.0532252,13.9000595 15.0699582,15.1187694 C16.086068,16.337166 16.5945903,17.7197281 16.5945903,19.2652025 C16.5945903,21.567593 15.8053213,23.4150819 14.2274066,24.8086093 C12.6494918,26.20245 10.5297142,26.8989003 7.86745046,26.8989003 C5.96921654,26.8989003 4.35235249,26.5743288 3.01561193,25.9248723 C1.67887137,25.2757292 0.674290578,24.3302108 0,23.0876907"
            id="Fill-4"/>
          <path
            d="M20.4861879,26.2552712 L20.4861879,6.26586067e-05 L25.1865915,6.26586067e-05 L25.1865915,9.33337511 L25.1358016,10.8916946 L24.984055,12.3823428 C25.9503097,11.2419562 26.938376,10.4064037 27.9495003,9.87537204 C28.9600013,9.34465365 30.0720822,9.07929446 31.2848082,9.07929446 C32.5654617,9.07929446 33.6410861,9.29671982 34.5113696,9.73125724 C35.3813416,10.1664213 36.0699655,10.8296626 36.5750602,11.7216078 C36.7997199,12.1620978 36.9710969,12.6956358 37.088568,13.3225352 C37.2069739,13.9491212 37.2658653,14.8498387 37.2658653,16.0240609 L37.2658653,16.5494533 L37.2658653,26.2552712 L32.4645051,26.2552712 L32.4645051,18.0401015 C32.4645051,16.0187349 32.2258237,14.6750211 31.7481493,14.0083336 C31.2707864,13.3422726 30.4653145,13.0089289 29.3304872,13.0089289 C28.6680373,13.0089289 28.064167,13.1474044 27.5198114,13.4240421 C26.9748325,13.7009931 26.5058828,14.093236 26.1126505,14.6013973 C25.8434328,14.9739027 25.6299905,15.4259845 25.4726353,15.9563896 C25.3492438,16.4874213 25.2878597,17.2606285 25.2878597,18.276951 L25.2878597,18.937686 L25.2878597,26.2552712 L20.4861879,26.2552712 Z"
            id="Fill-6"/>
          <path
            d="M41.999516,26.2552712 L46.8011879,26.2552712 L46.8011879,9.63820922 L41.999516,9.63820922 L41.999516,26.2552712 Z M41.5788634,2.81186754 C41.5788634,2.04398634 41.8546246,1.38325135 42.4061469,0.829975876 C42.9582924,0.277013691 43.6176265,6.26586067e-05 44.3835258,6.26586067e-05 C45.1606426,6.26586067e-05 45.8280781,0.273880761 46.3855207,0.821516965 C46.943275,1.36946646 47.2224637,2.03270779 47.2224637,2.81186754 C47.2224637,3.59102729 46.943275,4.25771484 46.3855207,4.81067703 C45.8280781,5.3639525 45.1606426,5.64059024 44.3835258,5.64059024 C43.6176265,5.64059024 42.9582924,5.35549359 42.4061469,4.78530029 C41.8546246,4.21510699 41.5788634,3.55719164 41.5788634,2.81186754 L41.5788634,2.81186754 Z"
            id="Fill-8"/>
          <path
            d="M63.0418379,16.2274194 C62.907229,15.1772612 62.5308228,14.3840033 61.9132425,13.8476456 C61.2950389,13.3112879 60.4415815,13.0427958 59.3519354,13.0427958 C58.2853473,13.0427958 57.4259695,13.3084683 56.774737,13.8391867 C56.1228812,14.3699051 55.7075257,15.1662959 55.5277356,16.2274194 L63.0418379,16.2274194 Z M67.7927198,19.1410445 L55.3766123,19.1410445 C55.5669965,20.3324979 56.0022941,21.2231899 56.6818818,21.8131207 C57.3614695,22.4033648 58.2741299,22.6981735 59.4192398,22.6981735 C60.2845378,22.6981735 61.0339227,22.5330681 61.6686408,22.2025439 C62.3033588,21.8723331 62.839613,21.360099 63.2777149,20.6655284 L67.1527046,22.6082584 C66.2537544,24.0722767 65.1616155,25.1534509 63.8756649,25.8517811 C62.5894026,26.5497979 61.0703792,26.8988064 59.3182832,26.8988064 C56.66786,26.8988064 54.5561839,26.0980294 52.9838778,24.4961622 C51.4112602,22.8939816 50.6254188,20.7391522 50.6254188,18.0313606 C50.6254188,15.4253893 51.4424196,13.2818384 53.0764214,11.600708 C54.7110463,9.91989097 56.8024689,9.07932579 59.3519354,9.07932579 C61.9805469,9.07932579 64.0579477,9.86694445 65.5853841,11.4421818 C67.1131321,13.0174191 67.8765387,15.1662959 67.8765387,17.8875591 L67.8600242,18.3788026 L67.7927198,19.1410445 Z"
            id="Fill-10"/>
          <polygon id="Fill-11"
                   points="71.6165768 26.2552712 76.4182486 26.2552712 76.4182486 6.26586067e-05 71.6165768 6.26586067e-05"/>
          <path
            d="M93.4508785,17.9128419 C93.4508785,16.4250133 93.076965,15.2470315 92.3303845,14.3792099 C91.5834924,13.5110749 90.5751725,13.0768508 89.3063595,13.0768508 C88.0035828,13.0768508 86.9787483,13.502616 86.2318562,14.3535198 C85.4846525,15.204737 85.1113623,16.3798991 85.1113623,17.8790062 C85.1113623,19.3784266 85.4790438,20.5507691 86.2147185,21.3960337 C86.9503932,22.2416116 87.969619,22.6642439 89.2727073,22.6642439 C90.5979189,22.6642439 91.6255577,22.2472509 92.3559352,21.4132648 C93.0856897,20.5789655 93.4508785,19.4122623 93.4508785,17.9128419 L93.4508785,17.9128419 Z M97.8309629,26.2552085 L93.1810376,26.2552085 L93.248342,23.8669758 C92.6083268,24.9002162 91.8221738,25.6637113 90.8895714,26.1577744 C89.9575921,26.6518375 88.8455112,26.8990257 87.5542634,26.8990257 C85.3640654,26.8990257 83.5979476,26.0810176 82.2559099,24.4453147 C80.9135607,22.8096118 80.242386,20.6491431 80.242386,17.9639086 C80.242386,15.1658887 80.9023433,12.9800432 82.2222577,11.4063724 C83.541549,9.83238823 85.3749712,9.04539616 87.7228361,9.04539616 C88.9128156,9.04539616 89.9632008,9.31921426 90.8730568,9.86685047 C91.7826013,10.4148 92.641979,11.292647 93.4508785,12.5007049 L93.3156464,11.1626304 L93.248342,9.46896833 L93.248342,0 L97.8309629,0 L97.8309629,26.2552085 Z"
            id="Fill-12"/>
        </g>
      </g>
      <text id="Unlimited-upside.Lim" opacity="0.600000024" font-family="Gilroy-Medium, Gilroy" font-size="14" font-weight="400"
            fill="#FFFFFF">
        <tspan x="50" y="256">Unlimited upside.Limited downside.</tspan>
      </text>
      <g id="group-3" transform="translate(80.000000, 429.000000)" fill="#F55858">
        <rect id="rect" stroke-opacity="0.80061223" stroke="#F55858" fill-opacity="0.0620287915" x="0.5" y="0.5" width="56" height="27"
              rx="4"/>
        <text id="Short" font-family="Gilroy-Medium, Gilroy" font-size="18" font-weight="400">
          <tspan x="6" y="20">Short</tspan>
        </text>
      </g>
      <text id="shieldex.io" opacity="0.600000024" font-family="Gilroy-Medium, Gilroy" font-size="18" font-weight="400" fill="#FFFFFF">
        <tspan x="50" y="749">shieldex.io</tspan>
      </text>
      <text id="Perpetual-Options" font-family="Gilroy-Black, Gilroy" font-size="28" font-weight="800" fill="#333333">
        <tspan x="80" y="406">Perpetual Options</tspan>
      </text>
      <g id="group-2-3" opacity="0.083205" transform="translate(290.000000, 0.000000)" fill="#FFFFFF" stroke="#FFFFFF">
        <path
          d="M129.999695,0 L151.666955,21.6673455 L186.704652,56.9805475 L165.106809,78.6236045 L129.999695,43.3346909 L97.4988036,75.8316363 L184.167846,162.501018 L205.83307,184.166327 L151.666955,238.334691 L129.999695,260 L108.332434,238.334691 L73.510462,203.343201 L95.1777227,181.675855 L129.999695,216.665309 L162.500585,184.166327 L75.831543,97.5010182 L54.1683552,75.8316363 L75.831543,54.1663273 L108.332434,21.6673455 L129.999695,0 Z M37.5317694,92.2245197 L59.19903,113.891865 L43.3345212,130.000204 L78.4139959,165.256153 L56.7467352,186.923498 L21.6672606,151.667549 L0,130.000204 L21.6672606,108.332858 L37.5317694,92.2245197 Z M203.222097,73.6027807 L238.332739,108.332655 L260,130 L222.370993,167.70367 L200.705769,146.036324 L216.665479,130 L181.554837,95.2680898 L203.222097,73.6027807 Z"
          id="shape-combine"/>
      </g>
    </g>
  </g>
</svg>
