<svg viewBox="0 0 76 76" version="1.1" xmlns="http://www.w3.org/2000/svg">

  <g id="for-T" stroke="none" stroke-width="1" fill="none" fill-rule="evenodd">
    <g id="group" transform="translate(8.000000, 3.000000)" fill="#396AFC" fill-rule="nonzero">
      <path
        d="M3.95571904,24.3809524 C3.02732289,24.3809524 2.2747091,25.1312054 2.2747091,26.0566894 C2.2747091,26.9821733 3.02732289,27.7324263 3.95571904,27.7324263 C4.8841152,27.7324263 5.63672899,26.9821733 5.63672899,26.0566894 C5.63547595,25.1317233 4.88359568,24.3822015 3.95571904,24.3809524 M3.95571904,22.1133788 C6.14040228,22.1133788 7.9114379,23.8788591 7.9114379,26.0566894 C7.9114379,28.2345197 6.14040216,30 3.95571892,30 C1.77103568,30 -7.2395819e-14,28.2345197 -7.2395819e-14,26.0566894 C-7.2395819e-14,25.0108584 0.416762063,24.0078619 1.15860329,23.2683477 C1.90044452,22.5288335 2.90659713,22.1133788 3.95571904,22.1133788 L3.95571904,22.1133788 Z"
        id="shape"/>
      <path
        d="M10.7654396,11.4368859 C10.7654396,12.3018398 11.4688296,13.0030235 12.3365053,13.0030235 C13.2041809,13.0030235 13.907571,12.3018398 13.907571,11.4368859 C13.907571,10.571932 13.2041809,9.87074836 12.3365053,9.87074836 C11.4688296,9.87074836 10.7654396,10.571932 10.7654396,11.4368859 L10.7654396,11.4368859 Z"
        id="path"/>
      <path
        d="M36.9541646,13.0037793 C36.9541646,13.5806935 37.4233176,14.048375 38.0020472,14.048375 C38.5807769,14.048375 39.0499299,13.5806935 39.0499299,13.0037793 C39.0499299,12.426865 38.5807769,11.9591836 38.0020472,11.9591836 C37.4233176,11.9591836 36.9541646,12.426865 36.9541646,13.0037793 Z"
        id="path2"/>
      <path
        d="M30.5591993,0.755857895 C30.5591993,1.17330668 30.8986733,1.51171579 31.3174357,1.51171579 C31.736198,1.51171579 32.075672,1.17330668 32.075672,0.755857895 C32.075672,0.338409106 31.736198,-6.20986723e-14 31.3174357,-6.20986723e-14 C30.8986733,-6.20986723e-14 30.5591993,0.338409106 30.5591993,0.755857895 Z"
        id="path3"/>
      <path
        d="M25.4304887,7.26001512 C25.4304887,7.54847224 25.6650652,7.78231295 25.95443,7.78231295 C26.2437948,7.78231295 26.4783713,7.54847224 26.4783713,7.26001512 C26.4783713,6.97155799 26.2437948,6.73771729 25.95443,6.73771729 C25.6650652,6.73771729 25.4304887,6.97155799 25.4304887,7.26001512 Z"
        id="path4"/>
      <path
        d="M48.4770823,14.0476191 C48.476971,14.4208911 48.676672,14.7658561 49.0009337,14.9525242 C49.3251954,15.1391922 49.7247345,15.1391922 50.0489962,14.9525242 C50.3732579,14.7658561 50.5729589,14.4208911 50.5728476,14.0476191 C50.5729589,13.6743471 50.3732579,13.329382 50.0489962,13.142714 C49.7247345,12.956046 49.3251954,12.956046 49.0009337,13.142714 C48.676672,13.329382 48.476971,13.6743471 48.4770823,14.0476191 L48.4770823,14.0476191 Z"
        id="path5"/>
      <path
        d="M27.2412329,13.4905519 C27.2412329,14.6439629 28.1791995,15.5789873 29.3362399,15.5789873 C30.4932803,15.5789873 31.4312469,14.6439629 31.4312469,13.4905519 C31.4312469,12.3371409 30.4932803,11.4021165 29.3362399,11.4021165 C28.1791995,11.4021165 27.2412329,12.3371409 27.2412329,13.4905519 Z"
        id="path6"/>
      <path
        d="M56.8578686,28.1451248 C56.8578686,29.0100787 57.5612587,29.7112624 58.4289343,29.7112624 C59.2966099,29.7112624 60,29.0100787 60,28.1451248 C60,27.2801709 59.2966099,26.5789873 58.4289343,26.5789873 C57.5612587,26.5789873 56.8578686,27.2801709 56.8578686,28.1451248 Z"
        id="path7"/>
    </g>
    <g id="group-9" fill="#ffffff" transform="translate(12.000000, 21.000000)">
      <defs>
        <linearGradient x1="0" y1="0" x2="0" y2="100%" id="liner1">
          <stop stop-color="#37DBFF" offset="0" stop-opacity="0.3"/>
          <stop stop-color="#37DBFF" offset="0.2" stop-opacity="0.4"/>
          <stop stop-color="#37DBFF" offset="0.5" stop-opacity="0.5"/>
          <stop stop-color="#37DBFF" offset="1" stop-opacity="1"/>
        </linearGradient>
        <linearGradient x1="0" y1="0" x2="0" y2="100%" id="liner2">
          <stop stop-color="#AED8FF" offset="0" stop-opacity="1"/>
          <stop stop-color="#AED8FF" offset="0.7" stop-opacity="0.6"/>
          <stop stop-color="#AED8FF" offset="1" stop-opacity="0.3"/>
        </linearGradient>
        <linearGradient x1="0" y1="0" x2="0" y2="100%" id="liner3">
          <stop stop-color="#1346FF" offset="0" stop-opacity="1"/>
          <stop stop-color="#1346FF" offset="0.7" stop-opacity="1"/>
          <stop stop-color="#1346FF" offset="1" stop-opacity="0"/>
        </linearGradient>
      </defs>

      <path
        d="M-3.74913927e-12,46.9110361
        C-3.74913927e-12,35.9614868 0.11310519,25.9111248 0.595465779,25.0970668
        L13.1085551,2.54248566 C14.0437847,0.964968769 15.728191,0 17.5457971,0
        L35.3768398,0.146921338
        C37.1945729,0.146902395 38.8790998,1.11198006 39.8147167,2.68940712
        L52.7123208,25.0970668
        C53.1948294,25.9111057 52.9244989,35.8095542 52.9246703,46.7588582
        C41.0020156,46.7588582 31.9084501,46.7588582 25.643974,46.7588582
        C19.9072173,46.7588582 11.3592259,46.8095842 -3.74913927e-12,46.9110361 Z"
        id="shape2" fill="url(#liner3)"/>
      <circle id="oval" fill="#FFFFFF" opacity="0.200000003" cx="34" cy="20" r="9"/>
      <circle id="oval1" fill="#FFFFFF" cx="16" cy="24" r="5"/>
      <circle id="oval2" fill="#FFFFFF" cx="24" cy="8" r="3"/>
      <path
        d="M3.58201774,24.3217592 L7.5156634,24.3217592 C8.63856854,24.3217592 9.66657353,24.9516198 10.1765057,25.9520623 L13.8541309,33.1672429 C14.3640631,34.1676854 15.3920681,34.797546 16.5149732,34.797546 L36.0252467,34.797546 C37.11056,34.797546 38.1104486,34.2087702 38.6369059,33.2596929 L42.7417633,25.8596123 C43.2682206,24.910535 44.2681093,24.3217592 45.3534226,24.3217592 L49.35452,24.3217592 C51.0039472,24.3217592 52.341072,25.6588841 52.341072,27.3083112 L52.341072,47.013448 C52.341072,48.6628751 51.0039472,50 49.35452,50 L3.58201774,50 C1.93259064,50 0.595465779,48.6628751 0.595465779,47.013448 L0.595465779,27.3083112 C0.595465779,25.6588841 1.93259064,24.3217592 3.58201774,24.3217592 Z"
        id="路径-62" stroke="url(#liner2)" stroke-width="1.8" fill="url(#liner1)"/>
    </g>
  </g>
</svg>
