<svg viewBox="0 0 57 57" version="1.1" xmlns="http://www.w3.org/2000/svg">
  <g id="for-T" stroke="none" stroke-width="1" fill="none" fill-rule="evenodd">
    <path
      d="M12.3055556,38.2941176 L15.25,38.2941176 C17.7527778,38.2941176 19.6666667,40.2058824 19.6666667,42.7058824 L19.6666667,48.5882353 C19.6666667,51.0882353 17.7527778,53 15.25,53 L12.3055556,53 C9.80277778,53 7.88888889,51.0882353 7.88888889,48.5882353 L7.88888889,42.7058824 C7.88888889,40.2058824 9.80277778,38.2941176 12.3055556,38.2941176 L12.3055556,38.2941176 Z M41.75,38.2941176 L44.6944444,38.2941176 C47.1972222,38.2941176 49.1111111,40.2058824 49.1111111,42.7058824 L49.1111111,48.5882353 C49.1111111,51.0882353 47.1972222,53 44.6944444,53 L41.75,53 C39.2472222,53 37.3333333,51.0882353 37.3333333,48.5882353 L37.3333333,42.7058824 C37.3333333,40.2058824 39.2472222,38.2941176 41.75,38.2941176 L41.75,38.2941176 Z"
      id="shape" stroke="#AED8FF" stroke-width="1.24687228" fill-opacity="0.32" fill="#37DBFF"/>
    <path
      d="M7.88888889,3 L49.1111111,3 C52.35,3 55,5.64705882 55,8.88235294 L55,41.2352941 C55,44.4705882 52.35,47.1176471 49.1111111,47.1176471 L7.88888889,47.1176471 C4.65,47.1176471 2,44.4705882 2,41.2352941 L2,8.88235294 C2,5.64705882 4.65,3 7.88888889,3 Z"
      id="path" fill="#1346FF"/>
    <path
      d="M38.3055556,35.5882353 C44.0472222,35.5882353 48.6111111,31.0294117 48.6111111,25.2941176 C48.6111111,19.5588235 44.0472222,15 38.3055556,15 C32.5638889,15 28,19.5588235 28,25.2941176 C28,31.0294117 32.5638889,35.5882353 38.3055556,35.5882353 Z"
      id="path" fill="#FFFFFF"/>
    <path
      d="M43.2222222,25.0588235 C43.2222222,22.5588235 41.3083333,20.6470588 38.8055556,20.6470588 C36.3027778,20.6470588 34.3888889,22.5588235 34.3888889,25.0588235 C34.3888889,27.5588235 36.3027778,29.4705882 38.8055556,29.4705882 C41.3083333,29.4705882 43.2222222,27.5588235 43.2222222,25.0588235 Z"
      id="path" fill="#1346FF"/>
    <path
      d="M12.9444445,19 C14.5638889,19 15.8888889,20.3235294 15.8888889,21.9411765 L15.8888889,27.8235295 C15.8888889,29.4411765 14.5638889,30.7647059 12.9444445,30.7647059 C11.325,30.7647059 10,29.4411765 10,27.8235295 L10,21.9411765 C10,20.3235294 11.325,19 12.9444445,19 Z"
      id="path" fill="#FFFFFF"/>
  </g>
</svg>
