<svg viewBox="0 0 56 56" version="1.1" xmlns="http://www.w3.org/2000/svg">
  <defs>
    <linearGradient x1="0" y1="0" x2="0" y2="100%" id="liner1">
      <stop stop-color="#37DBFF" offset="0" stop-opacity="0.3"/>
      <stop stop-color="#37DBFF" offset="0.2" stop-opacity="0.4"/>
      <stop stop-color="#37DBFF" offset="0.5" stop-opacity="0.5"/>
      <stop stop-color="#37DBFF" offset="1" stop-opacity="1"/>
    </linearGradient>
    <linearGradient x1="0" y1="0" x2="0" y2="100%" id="liner2">
      <stop stop-color="#AED8FF" offset="0" stop-opacity="1"/>
      <stop stop-color="#AED8FF" offset="0.7" stop-opacity="0.6"/>
      <stop stop-color="#AED8FF" offset="1" stop-opacity="0.3"/>
    </linearGradient>
    <linearGradient x1="0" y1="0" x2="0" y2="100%" id="liner3">
      <stop stop-color="#1346FF" offset="0" stop-opacity="1"/>
      <stop stop-color="#1346FF" offset="0.7" stop-opacity="1"/>
      <stop stop-color="#1346FF" offset="1" stop-opacity="0"/>
    </linearGradient>
  </defs>

  <g id="for-T" stroke="none" stroke-width="1" fill="#ffffff" fill-rule="evenodd">
    <path
      d="M1,48.9110361 C1,37.9614868
      1.11310519,27.9111248 1.59546578,27.0970668
      L14.1085551,4.54248566
      C15.0437847,2.96496877 16.728191,2 18.5457971,2
      L36.3768398,2.14692134 C38.1945729,2.1469024
      39.8790998,3.11198006 40.8147167,4.68940712
      L53.7123208,27.0970668 C54.1948294,27.9111057
      53.9244989,37.8095542 53.9246703,48.7588582
      C42.0020156,48.7588582 32.9084501,48.7588582
      26.643974,48.7588582 C20.9072173,48.7588582
      12.3592259,48.8095842 1,48.9110361 Z"
      id="shape" fill="url(#liner3)"/>
    <path
      d="M19.7069042,19.9602568 L35.2315383,19.9602568 C36.9564956,19.9602568 37.8189774,20.8332411 37.8189774,22.5792034 L37.8189774,22.5792034 C37.8189774,24.3251658 36.9564956,25.1981501 35.2315383,25.1981501 L19.7069042,25.1981501 C17.981947,25.1981501 17.1194652,24.3251658 17.1194652,22.5792034 L17.1194652,22.5792034 C17.1194652,20.8332411 17.981947,19.9602568 19.7069042,19.9602568 L19.7069042,19.9602568 Z"
      id="path" fill="#FFFFFF" fill-rule="nonzero"/>
    <path
      d="M4.58201774,26.3217592 L8.5156634,26.3217592 C9.63856854,26.3217592 10.6665735,26.9516198 11.1765057,27.9520623 L14.8541309,35.1672429 C15.3640631,36.1676854 16.3920681,36.797546 17.5149732,36.797546 L37.0252467,36.797546 C38.11056,36.797546 39.1104486,36.2087702 39.6369059,35.2596929 L43.7417633,27.8596123 C44.2682206,26.910535 45.2681093,26.3217592 46.3534226,26.3217592 L50.35452,26.3217592 C52.0039472,26.3217592 53.341072,27.6588841 53.341072,29.3083112 L53.341072,49.013448 C53.341072,50.6628751 52.0039472,52 50.35452,52 L4.58201774,52 C2.93259064,52 1.59546578,50.6628751 1.59546578,49.013448 L1.59546578,29.3083112 C1.59546578,27.6588841 2.93259064,26.3217592 4.58201774,26.3217592 Z"
      id="path-62" stroke="url(#liner2)" stroke-width="1.8" fill="url(#liner1)"/>
  </g>
</svg>
