<svg viewBox="0 0 56 56" version="1.1" xmlns="http://www.w3.org/2000/svg">
  <g id="for-T" stroke="none" stroke-width="1" fill="none" fill-rule="evenodd">
    <path
      d="M11.3055556,37.2941176 L14.25,37.2941176 C16.7527778,37.2941176 18.6666667,39.2058824 18.6666667,41.7058824 L18.6666667,47.5882353 C18.6666667,50.0882353 16.7527778,52 14.25,52 L11.3055556,52 C8.80277778,52 6.88888889,50.0882353 6.88888889,47.5882353 L6.88888889,41.7058824 C6.88888889,39.2058824 8.80277778,37.2941176 11.3055556,37.2941176 L11.3055556,37.2941176 Z M40.75,37.2941176 L43.6944444,37.2941176 C46.1972222,37.2941176 48.1111111,39.2058824 48.1111111,41.7058824 L48.1111111,47.5882353 C48.1111111,50.0882353 46.1972222,52 43.6944444,52 L40.75,52 C38.2472222,52 36.3333333,50.0882353 36.3333333,47.5882353 L36.3333333,41.7058824 C36.3333333,39.2058824 38.2472222,37.2941176 40.75,37.2941176 L40.75,37.2941176 Z"
      id="shape" stroke="#AED8FF" stroke-width="1.24687228" fill-opacity="0.32" fill="#37DBFF"/>
    <path
      d="M6.88888889,2 L48.1111111,2 C51.35,2 54,4.64705882 54,7.88235294 L54,40.2352941 C54,43.4705882 51.35,46.1176471 48.1111111,46.1176471 L6.88888889,46.1176471 C3.65,46.1176471 1,43.4705882 1,40.2352941 L1,7.88235294 C1,4.64705882 3.65,2 6.88888889,2 Z"
      id="path" fill="#1346FF"/>
    <path
      d="M37.8055556,34.3529412 C43.5472222,34.3529412 48.1111111,29.7941176 48.1111111,24.0588235 C48.1111111,18.3235294 43.5472222,13.7647059 37.8055556,13.7647059 C32.0638889,13.7647059 27.5,18.3235294 27.5,24.0588235 C27.5,29.7941176 32.0638889,34.3529412 37.8055556,34.3529412 Z"
      id="path" fill="#FFFFFF" fill-rule="nonzero"/>
    <path
      d="M42.2222222,24.0588235 C42.2222222,21.5588235 40.3083333,19.6470588 37.8055556,19.6470588 C35.3027778,19.6470588 33.3888889,21.5588235 33.3888889,24.0588235 C33.3888889,26.5588235 35.3027778,28.4705882 37.8055556,28.4705882 C40.3083333,28.4705882 42.2222222,26.5588235 42.2222222,24.0588235 Z"
      id="path" fill="#1346FF" fill-rule="nonzero"/>
    <text id="S" font-family="Gilroy-Black, Gilroy" font-size="18" font-weight="800" fill="#FFFFFF">
      <tspan x="8.33416121" y="38.0064708">S</tspan>
    </text>
    <path
      d="M12.0416667,6.29411765 C13.6611111,6.29411765 14.9861111,7.61764706 14.9861111,9.23529412 L14.9861111,15.1176471 C14.9861111,16.7352941 13.6611111,18.0588235 12.0416667,18.0588235 C10.4222222,18.0588235 9.09722222,16.7352941 9.09722222,15.1176471 L9.09722222,9.23529412 C9.09722222,7.61764706 10.4222222,6.29411765 12.0416667,6.29411765 Z"
      id="path" fill="#FFFFFF" fill-rule="nonzero"/>
  </g>
</svg>
