<?xml version="1.0" encoding="UTF-8"?>
<svg viewBox="0 0 298 257" version="1.1" xmlns="http://www.w3.org/2000/svg" xmlns:xlink="http://www.w3.org/1999/xlink">
  <defs>
    <polygon id="path-1" points="0 7.24331323 20.8392475 -2.55959876e-16 17.9815605 21.5018907 4.5844489 19.1030925"/>
    <polygon id="path-3"
             points="6.20185506 13.2107694 20.7294567 15.273606 -5.16494859e-16 20.6953395 1.51634427 -4.45622317e-16"/>
    <polygon id="path-5" points="0 6.40458371 18.1923966 3.78868308e-16 15.6976724 19.0121088 4.00216527 16.8910761"/>
    <polygon id="path-7"
             points="5.41414016 11.5312508 17.8234135 13.4857218 4.99171608e-16 18.1491553 1.54355839 6.4336531e-16"/>
    <polygon id="path-9" points="0 6.40458371 18.1923966 3.78868308e-16 15.6976724 19.0121088 4.00216527 16.8910761"/>
    <polygon id="path-11"
             points="5.41414016 11.5312508 17.8234135 13.4857218 4.99171608e-16 18.1491553 1.54355839 6.4336531e-16"/>
    <path
      d="M0,169.289097 L14.8993566,160.029103 L19.5197668,165.486969 L19.5197668,178.016643 L34.402943,178.016643 L34.402943,171.143915 L42.6780257,162.169886 L42.6780257,178.016643 L57.3036805,178.016643 L57.3036805,165.486969 L114.86771,102.869262 L119.792183,46.9867912 C118.485059,36.7543695 121.247152,28.688862 128.078462,22.7902685 C134.909772,16.891675 145.365741,14.0599655 159.44637,14.2951399 C158.849013,13.1935804 155.243265,12.3781851 148.629126,11.848954 C142.014987,11.3197229 134.8325,11.3197229 127.081664,11.848954 C122.409454,5.22960042 115.608671,1.35227362 106.679313,0.216973569 C97.7499557,-0.918326479 89.6486354,2.40166106 82.3753525,10.1769362 L51.747047,49.4278575 L0,169.289097 Z"
      id="path-13"/>
    <path
      d="M0,106.371679 L80.8022905,52.1781422 L80.8022905,4.83517231 L80.8022905,0.375099144 C79.6329235,-0.125033048 78.1504126,-0.125033048 76.3547578,0.375099144 C74.559103,0.875231336 72.2171725,2.64925515 69.3289664,5.69717058 L4.40920258,75.9915263 L0,106.371679 Z"
      id="path-15"/>
    <polygon id="path-17" points="0 14.8940859 35.7794282 37.9052703 92.2013024 1.72067065e-15 10.7864602 0.727900912"/>
    <polygon id="path-19" points="0 56.782892 0 17.5257927 16.5561271 0 16.5561271 56.782892"/>
  </defs>
  <g id="final" stroke="none" stroke-width="1" fill="none" fill-rule="evenodd">
    <g id="stake-stone" transform="translate(-1125.000000, -193.000000)">
      <g id="group-16" transform="translate(1125.000000, 194.000000)">
        <g id="group-14" transform="translate(0.000000, 225.424437)">
          <g id="group-bak-9"
             transform="translate(15.019855, 13.457405) scale(-1, 1) rotate(-93.000000) translate(-15.019855, -13.457405) translate(3.046684, -0.955575)">
            <g id="path-100" transform="translate(3.107094, 0.000000)">
              <g id="mask" fill="#000000" fill-rule="nonzero">
                <polygon id="path-1"
                         points="0 7.24331323 20.8392475 -2.55959876e-16 17.9815605 21.5018907 4.5844489 19.1030925"/>
              </g>
              <g id="Clipped">
                <mask id="mask-2" fill="white">
                  <use xlink:href="#path-1"/>
                </mask>
                <g id="path-1"/>
                <line x1="4.5844489" y1="19.1030925" x2="20.8392475" y2="3.92642692e-12" id="path" stroke="#F3F4F6"
                      stroke-width="1.74274146" mask="url(#mask-2)"/>
              </g>
            </g>
            <g id="path-102" transform="translate(0.000000, 8.130620)">
              <g id="mask" fill="#000000" fill-rule="nonzero">
                <polygon id="path-3"
                         points="6.20185506 13.2107694 20.7294567 15.273606 -5.16494859e-16 20.6953395 1.51634427 -4.45622317e-16"/>
              </g>
              <g id="Clipped">
                <mask id="mask-4" fill="white">
                  <use xlink:href="#path-3"/>
                </mask>
                <g id="path-3"/>
                <line x1="-0.250572667" y1="20.9849189" x2="6.81846126" y2="12.3327077" id="path" stroke="#F3F4F6"
                      stroke-width="1.74274146" mask="url(#mask-4)"/>
              </g>
            </g>
          </g>
          <g id="group-bak-10"
             transform="translate(72.506077, 15.015092) rotate(15.000000) translate(-72.506077, -15.015092) translate(62.053652, 2.271044)">
            <g id="path-100" transform="translate(2.712454, 0.000000)">
              <g id="mask" fill="#000000" fill-rule="nonzero">
                <polygon id="path-5"
                         points="0 6.40458371 18.1923966 3.78868308e-16 15.6976724 19.0121088 4.00216527 16.8910761"/>
              </g>
              <g id="Clipped">
                <mask id="mask-6" fill="white">
                  <use xlink:href="#path-5"/>
                </mask>
                <g id="path-5"/>
                <line x1="4.00216527" y1="16.8910761" x2="18.1923966" y2="-8.23131522e-13" id="path" stroke="#F3F4F6"
                      stroke-width="1.54101653" mask="url(#mask-6)"/>
              </g>
            </g>
            <g id="path-102" transform="translate(0.000000, 7.338942)">
              <g id="mask" fill="#000000" fill-rule="nonzero">
                <polygon id="path-7"
                         points="5.41414016 11.5312508 17.8234135 13.4857218 4.99171608e-16 18.1491553 1.54355839 6.4336531e-16"/>
              </g>
              <g id="Clipped">
                <mask id="mask-8" fill="white">
                  <use xlink:href="#path-7"/>
                </mask>
                <g id="path-7"/>
                <line x1="-0.218746734" y1="18.4052033" x2="5.95242949" y2="10.7548631" id="path" stroke="#F3F4F6"
                      stroke-width="1.54101653" mask="url(#mask-8)"/>
              </g>
            </g>
          </g>
          <g id="group-bak-12"
             transform="translate(40.997732, 15.015092) scale(-1, 1) rotate(15.000000) translate(-40.997732, -15.015092) translate(30.545307, 2.271044)">
            <g id="path-100" transform="translate(2.712454, 0.000000)">
              <g id="mask" fill="#000000" fill-rule="nonzero">
                <polygon id="path-9"
                         points="0 6.40458371 18.1923966 3.78868308e-16 15.6976724 19.0121088 4.00216527 16.8910761"/>
              </g>
              <g id="Clipped">
                <mask id="mask-10" fill="white">
                  <use xlink:href="#path-9"/>
                </mask>
                <g id="path-9"/>
                <line x1="4.00216527" y1="16.8910761" x2="18.1923966" y2="-8.23131522e-13" id="path" stroke="#F3F4F6"
                      stroke-width="1.54101653" mask="url(#mask-10)"/>
              </g>
            </g>
            <g id="path-102" transform="translate(0.000000, 7.338942)">
              <g id="mask" fill="#000000" fill-rule="nonzero">
                <polygon id="path-11"
                         points="5.41414016 11.5312508 17.8234135 13.4857218 4.99171608e-16 18.1491553 1.54355839 6.4336531e-16"/>
              </g>
              <g id="Clipped">
                <mask id="mask-12" fill="white">
                  <use xlink:href="#path-11"/>
                </mask>
                <g id="path-11"/>
                <line x1="-0.218746734" y1="18.4052033" x2="5.95242949" y2="10.7548631" id="path" stroke="#F3F4F6"
                      stroke-width="1.54101653" mask="url(#mask-12)"/>
              </g>
            </g>
          </g>
        </g>
        <g id="group-8" transform="translate(62.919251, 205.254189)" stroke="#000000">
          <path
            d="M107,50.18534 C166.094468,50.18534 214,38.9924588 214,25.18534 C214,11.3782213 166.094468,0.185340006 107,0.185340006 C47.9055318,0.185340006 0,11.3782213 0,25.18534"
            id="path"/>
          <path
            d="M24.5650304,21.1770765 C24.5650304,32.0756465 61.6721841,40.9106831 107.446178,40.9106831 C120.96982,40.9106831 133.736959,40.1394989 145.014165,38.771757 M160.424279,36.3535844 C178.69595,32.7338056 190.327325,27.2788522 190.327325,21.1770765 C190.327325,10.2785065 153.220172,1.44346994 107.446178,1.44346994"
            id="形状" transform="translate(107.446178, 21.177077) rotate(-1.000000) translate(-107.446178, -21.177077) "/>
          <path
            d="M44,16.18534 C44,23.9173265 71.9822031,30.18534 106.5,30.18534 C141.017797,30.18534 169,23.9173265 169,16.18534"
            id="path"/>
        </g>
        <g id="group-8-bak-3"
           transform="translate(169.573690, 125.253277) scale(-1, 1) rotate(12.000000) translate(-169.573690, -125.253277) translate(62.274404, 20.008935)">
          <path
            d="M174.053635,5.64015652 C181.121793,5.15913647 187.577748,5.59104091 193.421498,6.93586985 C199.265249,8.28069878 204.471788,10.4402177 209.041114,13.4144268 L192.749698,14.0879187 C185.189424,13.3805319 180.71772,12.4937573 179.334586,11.4275949 C176.047976,8.89417632 174.863404,7.83128643 175.780868,8.23892514 L174.053635,5.64015652 Z"
            id="path-63" stroke="#FFF3D1" stroke-width="0.995552949" fill="#585858" fill-rule="nonzero"/>
          <g id="path-60" transform="translate(53.466805, 0.000000)">
            <path
              d="M83.0834062,10.3515679 C90.4890275,2.42731192 98.7424239,-0.933736397 107.828921,0.221542843 C116.809334,1.36333409 123.666707,5.23955798 128.413452,11.8318743 C136.084259,11.3197507 143.198323,11.3264483 149.755654,11.851134 C156.747488,12.4105864 160.350711,13.412791 160.970773,14.5562196 C161.071215,14.7414405 161.12585,14.9902448 161.131767,15.3032331 C160.930252,15.2986144 160.727957,15.2946093 160.524882,15.2912175 C146.603626,15.058705 136.24937,17.8294478 129.490606,23.6653998 C122.770978,29.4675604 120.080727,37.4098589 121.379591,47.4751993 L116.435533,103.57992 L58.8882824,166.179376 L58.8882824,179.012791 L43.2670746,179.012791 L43.2670746,163.942372 L35.9875449,171.83676 L35.9875449,179.012791 L20.1088157,179.012791 L20.1088157,166.167746 L15.883936,161.177102 L0,171.049014 L52.4021673,49.6703247 L83.0834062,10.3515679 Z"
              id="path" stroke="#FFF3D1" stroke-width="0.995552949" fill="#000000"/>
            <g id="Clipped" transform="translate(1.086825, 0.498371)">
              <mask id="mask-14" fill="white">
                <use xlink:href="#path-13"/>
              </mask>
              <g id="path-13"/>
              <polygon id="path" stroke="#FFF3D1" stroke-width="0.995552949" fill="#444342" fill-rule="nonzero"
                       mask="url(#mask-14)"
                       points="123.176834 31.0973202 120.296129 47.0348383 103.823391 64.6201173 103.315636 31.0973202"/>
            </g>
          </g>
          <path
            d="M93.6318884,40.98081 L99.7742006,40.974508 L99.7742006,40.974508 L107.782141,110.869311 L68.6876713,144.695539 L68.7686135,65.8440719 C68.7827032,52.1183068 79.9061233,40.9948925 93.6318884,40.98081 Z"
            id="矩形" stroke="#FFF3D1" stroke-width="0.995552949" fill="#585858" fill-rule="nonzero"
            transform="translate(88.234906, 92.835023) rotate(38.000000) translate(-88.234906, -92.835023) "/>
          <g id="path-57-bak" transform="translate(57.691555, 54.383557)">
            <path
              d="M76.8748015,0.392264508 C78.9657625,-0.1901174 80.6559654,-0.114709215 81.9536694,0.556527207 L81.9536694,52.9403435 L3.55271368e-15,107.906103 L4.59236632,76.2639203 L69.6212486,5.85147286 C72.5997379,2.70828184 75.0262405,0.907132324 76.8748015,0.392264508 Z"
              id="path" stroke="#FFF3D1" stroke-width="0.995552949"/>
            <g id="Clipped" transform="translate(0.653602, 0.496690)">
              <mask id="mask-16" fill="white">
                <use xlink:href="#path-15"/>
              </mask>
              <g id="path-15"/>
              <path
                d="M27.209239,88.3432265 L80.9190962,45.3908056 L78.7324216,20.465486 L78.7329822,17.4162029 C77.9445441,17.0744149 76.9448909,17.0745984 75.7340228,17.4167531 C74.5231547,17.7589079 72.9437743,18.9720703 70.9958815,21.0562403 L27.2118224,69.1234359 L27.209239,88.3432265 Z"
                id="path" stroke="#FFF3D1" stroke-width="0.995552949" fill="#383430" fill-rule="nonzero"
                mask="url(#mask-16)"
                transform="translate(54.064168, 52.751613) rotate(5.000000) translate(-54.064168, -52.751613) "/>
            </g>
          </g>
          <polygon id="path-15" stroke="#FFF3D1" stroke-width="0.995552949" fill="#515150" fill-rule="nonzero"
                   points="3.63797881e-12 205.206425 20.9623318 174.479031 74.0733971 136.363233 34.0301445 205.206425"/>
          <polygon id="path-20" stroke="#FFF3D1" stroke-width="0.995552949" fill="#383430" fill-rule="nonzero"
                   points="16.3275419 174.331893 27.0328469 158.13352 71.259678 134.879462 74.0733971 136.363233 35.4890598 174.331893"/>
          <polygon id="path-54" stroke="#FFF3D1" stroke-width="0.995552949" fill="#444342" fill-rule="nonzero"
                   points="48.6792442 118.401966 72.0772886 134.845654 43.7013211 158.516477 17.1981125 158.516477"/>
          <g id="path-56" transform="translate(45.923195, 103.540153)">
            <g id="mask" fill="#444342" fill-rule="nonzero" stroke="#FFF3D1" stroke-width="0.995552949">
              <polygon id="path-17"
                       points="0 14.8940859 35.7794282 37.9052703 92.2013024 1.72067065e-15 10.7864602 0.727900912"/>
            </g>
            <g id="Clipped">
              <mask id="mask-18" fill="white">
                <use xlink:href="#path-17"/>
              </mask>
              <g id="path-17"/>
              <polygon id="path" fill="#515150" fill-rule="nonzero" mask="url(#mask-18)"
                       points="11.6233586 21.7345001 30.89924 1.29836322 11.1619872 1.29836322 0.810697011 14.7921554"/>
            </g>
          </g>
          <path
            d="M139.644786,31.5951612 L157.825716,31.5956769 L158.386364,64.8004653 L139.645218,54.5846556 L139.644786,31.5951612 Z M160.226321,12.9215837 L139.644802,30.036036 L139.645212,12.9215837 L160.226321,12.9215837 Z"
            id="path-59" stroke="#FFF3D1" stroke-width="0.995552949" fill="#444342" fill-rule="nonzero"/>
          <g id="path-62" transform="translate(157.789686, 47.485162)">
            <polygon id="path" stroke="#FFF3D1" stroke-width="0.995552949"
                     points="16.0583506 1.25180084 16.0583506 56.2851156 0.497776475 56.2851156 0.497776475 17.7237327"/>
            <g id="Clipped">
              <mask id="mask-20" fill="white">
                <use xlink:href="#path-19"/>
              </mask>
              <g id="path-19"/>
              <polygon id="path" fill="#383430" fill-rule="nonzero" mask="url(#mask-20)"
                       points="5.77616853 13.0833609 5.77616853 55.706935 1.03911122 55.706935 1.03911122 17.9132803"/>
            </g>
          </g>
          <path
            d="M78.4401393,170.577901 L98.6055472,196.328215 L92.1628398,203.669228 L153.105875,203.668536 C151.810619,200.065733 150.236275,198.093947 148.382842,197.753179 C146.52941,197.41241 144.577316,197.93581 142.52656,199.323378 L130.240046,199.323517 L109.812285,176.564305 L101.621888,175.082961 L121.951291,196.32795 L118.624909,199.323649 L106.719353,199.323784 L86.1391089,172.061549 L78.4401393,170.577901 Z"
            id="path-64" fill="#444342" fill-rule="nonzero"
            transform="translate(115.773007, 187.123564) rotate(-11.000000) translate(-115.773007, -187.123564) "/>
          <ellipse id="oval" fill="#FF140D" fill-rule="nonzero" cx="163.565854" cy="14.4106391" rx="3.9932877"
                   ry="3.98484947"/>
        </g>
      </g>
    </g>
  </g>
</svg>
