<?xml version="1.0" encoding="UTF-8"?>
<svg viewBox="0 0 822 150" version="1.1" xmlns="http://www.w3.org/2000/svg" xmlns:xlink="http://www.w3.org/1999/xlink">
  <defs>
    <polygon id="path-1"
             points="1.54619101 4.41114176 0 8.33918421 0.537816985 11.6811132 7.5160009 11.1308525 10.3542047 9.26944336 14.1931213 5.84055661 9.07972217 4.14996507e-14"/>
    <polygon id="path-3"
             points="16.0115919 0 1.53805062 10.086348 0 16.9735107 5.64851858 20.2852482 21.3592794 20.2852482 25.5242235 12.2282176"/>
    <polygon id="path-5"
             points="0 4.27171642 12.183467 -9.71275862e-13 10.5127476 12.6806583 2.68025425 11.2659761"/>
    <polygon id="path-7"
             points="3.62585531 7.69109057 11.9363586 8.99467971 1.75209616e-13 12.1050873 1.03372267 -4.12856728e-12"/>
    <polygon id="path-9"
             points="0 5.77938103 16.5347052 -1.31407911e-12 14.2673003 17.1561847 3.63748792 15.242203"/>
    <polygon id="path-11"
             points="4.92080364 10.4055931 16.1993438 12.1692725 2.37784479e-13 16.377471 1.40290933 -5.58570867e-12"/>
    <polygon id="path-13"
             points="9.96553748 0 0.970373809 1.89456858 0 6.26090953 3.56371528 8.36049331 13.4758148 8.36049331 16.1035259 3.25247651"/>
    <polygon id="path-15"
             points="18.4844917 0 0 3.69403399 0 16 6.16070066 16 25.2419309 16 30.300391 6.22446813"/>
  </defs>
  <g id="final" stroke="none" stroke-width="1" fill="none" fill-rule="evenodd">
    <g id="stake-stone" transform="translate(-154.000000, -579.000000)">
      <g id="group-18" transform="translate(155.000000, 580.000000)">
        <g id="group-8" transform="translate(0.000000, 63.000000)" stroke="#000000">
          <path d="M802.852811,2.57078859 C740.856514,0.904867915 674.288498,0 605,0 C270.867726,0 0,21.0426168 0,47"
                id="shape"/>
          <path
            d="M138.851144,41.9642439 C138.851144,62.2813551 348.902199,78.7516278 608.013306,78.7516278 C677.835525,78.7516278 744.095339,77.5556696 803.642647,75.410755"
            id="shape"
            transform="translate(479.762065, 60.357936) rotate(-1.000000) translate(-479.762065, -60.357936) "/>
          <path
            d="M247,30 C247,44.9116882 405.491199,57 601,57 C677.006075,57 747.417509,55.1730375 805.0971,52.0634751"
            id="path"/>
        </g>
        <g id="group-24" transform="translate(103.000000, 0.000000)">
          <g id="group-20" transform="translate(142.000000, 95.996966)">
            <g id="path-35"
               transform="translate(30.871686, 15.304540) rotate(32.000000) translate(-30.871686, -15.304540) translate(23.775126, 9.463983)">
              <mask id="mask-2" fill="white">
                <use xlink:href="#path-1"/>
              </mask>
              <use id="mask" fill="#6C6C6C" xlink:href="#path-1"/>
              <polygon fill="#444342" mask="url(#mask-2)"
                       points="1.54619101 4.41114176 6.90952743 3.56192744 11.6592019 11.2565448 -1.87630932 12.0816659"/>
            </g>
            <g id="path-34-bak-2">
              <mask id="mask-4" fill="white">
                <use xlink:href="#path-3"/>
              </mask>
              <use id="mask" fill="#6C6C6C" xlink:href="#path-3"/>
              <polygon id="path-34" fill="#444342" mask="url(#mask-4)"
                       points="1.75765794 10.1426241 11.1443309 14.48707 25.5242235 12.314847 26.6992982 18.2815125 14.2284781 26.8701078 -5.0701894 16.0588943"/>
              <polygon id="path-3" fill="#151515" mask="url(#mask-4)"
                       points="11.1443309 14.48707 4.89162261 21.0382126 24.6514126 22.2444663 26.6992982 11.9882922"/>
            </g>
          </g>
          <g id="group-22" transform="translate(27.000000, 0.000000)">
            <g id="group-21">
              <g id="path-4" transform="translate(0.000000, 3.432446)">
                <polyline id="path" stroke="#FFF3D1" fill="#383430"
                          points="54.1351895 97.3857468 69.4761292 94.6638244 93.1180376 35.0729665 52.3305369 0 0 39.9921213 1.16625317 54.6709593 23.3795754 77.8028277 28.3068342 81.1571744"/>
                <path
                  d="M6.74233575,54.9150893 L6.74233575,59.6472115 L23.6145096,77.3279368 L24.4167668,77.925675 C32.1668701,83.1959586 38.0521193,87.1053201 42.0725146,89.6537594 C42.4339276,89.8828512 43.2786097,90.4105379 44.6065607,91.2368197 L44.7104073,91.0832125 L54.2960845,96.8655114 L69.1097815,94.1696278 L82.8657461,59.5735239 L6.74233575,54.9150893 Z"
                  id="path-5" fill="#000000"/>
              </g>
              <polygon id="path-256" stroke="#FFF3D1" fill="#585858"
                       points="1.16625317 58.1034049 55.4443472 9.33404585 52.3305369 3.43244552 1.92361221e-16 43.4245668"/>
              <g id="path-260" transform="translate(44.033605, 21.711915)">
                <g id="path-4" transform="translate(5.684660, 0.000000)" fill="#444342" stroke="#FFF3D1">
                  <polyline id="path"
                            points="0 23.9314412 17.9566105 0 34.5480262 12.4444238 24.278534 34.1872466"/>
                </g>
                <path d="M0.5,31.2866582" id="path-3" stroke="#979797"/>
              </g>
              <g id="path-260" transform="translate(73.634803, 34.855299)" fill="#383430" stroke="#FFF3D1">
                <polyline id="path"
                          points="9.68000241 28.354208 19.483235 3.65011342 10.0933157 0 0 21.4917447"/>
              </g>
              <ellipse id="oval" stroke="#FFF3D1" fill="#000000"
                       transform="translate(72.224287, 20.968929) rotate(40.000000) translate(-72.224287, -20.968929) "
                       cx="72.2242872" cy="20.9689288" rx="27.2777755" ry="4.48422111"/>
              <g id="path-260" transform="translate(1.447698, 58.678654)">
                <polyline id="path" stroke="#FFF3D1" fill="#585858"
                          points="22.1195849 22.8170862 0 0 6.03074512 17.5711767 14.8854114 36.1711423 52.8902213 42.139538"/>
                <polygon id="path-6" fill="#000000"
                         points="5.29463748 6.28593397 5.29463748 14.0987592 6.49307502 17.3641753 9.57443964 23.8390451 15.2199805 35.7020171 51.4644262 41.6193026 43.0148264 36.2173299 43.1588624 35.9906109 34.179733 27.6295035 29.8107242 27.1128081 29.3495253 27.8056727 21.8539706 23.0662212"/>
              </g>
              <path
                d="M11.6001095,49.2141793 C3.54801167,56.341077 6.79978341,63.8862828 12.0413328,68.249831 C17.2828822,72.6133791 24.8686132,76.8863739 43.8923537,76.8863739 C62.9160941,76.8863739 79.1489247,73.4387947 81.8303722,66.3319872 C84.5118197,59.2251797 76.3148855,54.7842263 69.093934,51.2338388 C61.8729825,47.6834513 49.8534933,44.3901671 39.6625412,43.8023477 C29.471589,43.2145282 19.6522073,42.0872816 11.6001095,49.2141793 Z"
                id="path-259" stroke="#FFF3D1" fill="#585858"/>
              <line x1="23.8677059" y1="81.2352733" x2="50.3347865" y2="44.8389543" id="path-226" stroke="#FFF3D1"/>
              <path
                d="M54.0891649,100.297957 L55.8878321,96.2601965 L56.6977579,94.4420244 M60.3902527,86.1528817 L74.4439721,54.6042145"
                id="shape" stroke="#FFF3D1"/>
            </g>
            <g id="group-bak-10"
               transform="translate(63.000000, 89.496966) scale(-1, 1) rotate(-81.000000) translate(-63.000000, -89.496966) translate(56.000000, 80.996966)">
              <g id="path-100" transform="translate(1.816533, -0.000000)">
                <mask id="mask-6" fill="white">
                  <use xlink:href="#path-5"/>
                </mask>
                <use id="mask" fill="#444342" xlink:href="#path-5"/>
                <line x1="2.68025425" y1="11.2659761" x2="12.183467" y2="-3.63797881e-12" stroke="#000000"
                      stroke-width="1.02631173" mask="url(#mask-6)"/>
              </g>
              <g id="path-102" transform="translate(0.000000, 4.894913)">
                <mask id="mask-8" fill="white">
                  <use xlink:href="#path-7"/>
                </mask>
                <use id="mask" fill="#585858" xlink:href="#path-7"/>
                <line x1="-0.146494916" y1="12.2758656" x2="3.98634824" y2="7.17325702" stroke="#000000"
                      stroke-width="1.02631173" mask="url(#mask-8)"/>
              </g>
            </g>
            <g id="group-bak-11"
               transform="translate(38.500000, 87.496966) scale(-1, 1) rotate(4.000000) translate(-38.500000, -87.496966) translate(29.000000, 75.996966)">
              <g id="path-100" transform="translate(2.465295, 0.000000)">
                <mask id="mask-10" fill="white">
                  <use xlink:href="#path-9"/>
                </mask>
                <use id="mask" fill="#585858" xlink:href="#path-9"/>
                <line x1="3.63748792" y1="15.242203" x2="16.5347052" y2="-4.92197133e-12" stroke="#000000"
                      stroke-width="1.36414789" mask="url(#mask-10)"/>
              </g>
              <g id="path-102" transform="translate(0.000000, 6.622529)">
                <mask id="mask-12" fill="white">
                  <use xlink:href="#path-11"/>
                </mask>
                <use id="mask" fill="#585858" xlink:href="#path-11"/>
                <line x1="-0.198814529" y1="16.6085241" x2="5.41004404" y2="9.7049948" stroke="#000000"
                      stroke-width="1.36414789" mask="url(#mask-12)"/>
              </g>
            </g>
            <line x1="23.5684734" y1="81.3189686" x2="54.3379196" y2="100.707993" id="path-246" stroke="#FFF3D1"/>
            <line x1="55.2268316" y1="97.7425165" x2="61.5622864" y2="83.5666408" id="path-249" stroke="#FFF3D1"/>
          </g>
          <g id="path-34-bak" transform="translate(130.000000, 108.496966)">
            <mask id="mask-14" fill="white">
              <use xlink:href="#path-13"/>
            </mask>
            <use id="mask" fill="#6C6C6C" xlink:href="#path-13"/>
            <polygon id="path-34" fill="#444342" mask="url(#mask-14)"
                     points="1.10892659 1.93024665 7.0310864 4.68454952 16.1035259 3.30739809 16.8448941 7.09015988 8.97691032 12.5351794 -3.19884075 5.68105871"/>
            <polygon id="path-3" fill="#151515" mask="url(#mask-14)"
                     points="7.0310864 4.68454952 3.08618091 8.83785963 15.5528595 9.60260341 16.8448941 3.10036805"/>
          </g>
          <g id="path-34-bak-3"
             transform="translate(15.150196, 87.996966) scale(-1, 1) translate(-15.150196, -87.996966) translate(0.000000, 79.996966)">
            <mask id="mask-16" fill="white">
              <use xlink:href="#path-15"/>
            </mask>
            <use id="mask" fill="#6C6C6C" xlink:href="#path-15"/>
            <polygon id="path-34" fill="#444342" mask="url(#mask-16)"
                     points="2.08083156e-12 3.69403399 12.8355435 8.965116 30.300391 6.32957499 31.7275575 13.5688833 16.5813407 23.9893583 1.54042396e-13 16"/>
            <polygon id="path-3" fill="#151515" mask="url(#mask-16)"
                     points="12.8355435 8.965116 5.24142587 16.9135658 29.2403338 18.3771039 31.7275575 5.93336864"/>
          </g>
        </g>
      </g>
    </g>
  </g>
</svg>
