<?xml version="1.0" encoding="UTF-8"?>
<svg viewBox="0 0 615 370" version="1.1" xmlns="http://www.w3.org/2000/svg">
  <g id="final" stroke="none" stroke-width="1" fill="none" fill-rule="evenodd">
    <g id="stake-stone" stroke="#E6E6E7" transform="translate(0 , 10)">
      <g id="group-10">
        <path
          d="M9.45800301,358 C-13.3054484,282.300958 5.02127953,231.501948 64.4381868,205.60297 C153.563548,166.754503 259.26192,226.207224 345.549689,185.600267 C425.596826,147.930148 425.596826,33.8081315 531.227958,3.5990614 C552.242221,-2.41073244 578.499568,-0.894059381 610,8.14908058"
          id="path-9"/>
        <path
          d="M40.231992,356.777316 C18.6253717,285.30727 36.0207414,237.346194 92.4181008,212.894086 C177.01414,176.215924 277.340955,232.347264 359.243609,194.008853 C435.222776,158.44321 435.222776,50.6967246 535.485769,22.175312 C555.432094,16.5012609 580.355051,17.9332036 610.254642,26.4711402"
          id="path-9-bak"/>
        <path
          d="M75.9717468,355.94804 C55.7458605,288.495542 72.0296089,243.230502 124.822992,220.152921 C204.013067,185.536549 297.928669,238.512577 374.597475,202.329284 C445.721324,168.762893 445.721324,67.0731628 539.577183,40.1550249 C558.248872,34.7999293 581.57917,36.1513782 609.568079,44.2093716"
          id="path-9-bak"/>
        <path
          d="M106.891922,355.703508 C87.8228665,292.268556 103.175257,249.699554 152.949092,227.996499 C227.609845,195.441918 316.153891,245.262634 388.43758,211.234458 C455.49346,179.667319 455.49346,84.0343444 543.981179,58.7194811 C561.584931,53.6833411 583.580839,54.9542961 609.968906,62.5323464"
          id="path-9-bak"/>
        <path
          d="M138.403183,357.517771 C120.528276,298.100367 134.919264,258.227401 181.576147,237.898873 C251.561471,207.406082 334.560684,254.071486 402.317802,222.198428 C465.174488,192.630541 465.174488,103.054321 548.120902,79.3427328 C564.622265,74.6255482 585.24074,75.8160095 609.976325,82.9141165"
          id="path-9-bak"/>
      </g>
    </g>
  </g>
</svg>
