<?xml version="1.0" encoding="UTF-8"?>
<svg viewBox="0 0 1441 1335" version="1.1" xmlns="http://www.w3.org/2000/svg">
  <rect width="1441" height="1335" />
  <g id="final" stroke="none" stroke-width="1" fill="none" fill-rule="evenodd">
    <g id="stake-stone" transform="translate(0.000000, 1300.000000), rotate(-90), scale(1.8, 2.0), skewX(10), skewY(20)" stroke="#E6E6E7">
        <g id="group-6-bak-4">
          <path
            d="M9.69057686,366 C-13.6326315,288.609359 5.14475361,236.675176 66.0227323,210.19745 C157.3397,170.48086 265.637213,231.262134 354.046813,189.747759 C436.062321,151.23585 436.062321,34.5636205 544.290941,3.67948736 C565.821948,-2.46460356 592.724967,-0.914038361 625,8.33118294"
            id="path-9"/>
          <path
            d="M41.1944193,365 C19.0653592,291.838356 36.8813422,242.742106 94.6423684,217.71125 C181.283908,180.164966 284.036587,237.624859 367.919616,198.379029 C445.735931,161.971596 445.735931,51.674898 548.423245,22.4784225 C568.851864,16.6700742 594.377449,18.1359091 625,26.875927"
            id="path-9-bak"/>
          <path
            d="M77.6207372,364 C56.872411,294.644453 73.5767728,248.102343 127.733823,224.373671 C208.969397,188.780662 305.310864,243.251311 383.960045,206.047172 C456.921041,171.533767 456.921041,66.9750479 553.201221,39.2974641 C572.355205,33.7912842 596.288131,35.1808618 625,43.4661967"
            id="path-9-bak"/>
          <path
            d="M110.109075,364 C90.5922139,299.0849 106.30513,255.52262 157.247822,233.313161 C233.661861,199.998973 324.28522,250.982172 398.266373,216.160006 C466.896951,183.8563 466.896951,85.9918893 557.462659,60.086346 C575.479806,54.9326959 597.992253,56.2333066 625,63.988178"
            id="path-9-bak"/>
          <path
            d="M141.612917,365 C123.290205,304.313896 138.041718,263.58955 185.867459,242.826962 C257.606069,211.683079 342.684594,259.344897 412.139176,226.791276 C476.57056,196.592046 476.57056,105.103167 561.594963,80.8852811 C578.509722,76.0673737 599.644734,77.2832541 625,84.5329221"
            id="path-9-bak"/>
        </g>
    </g>
  </g>
</svg>
