<?xml version="1.0" encoding="UTF-8"?>
<svg viewBox="0 0 640 370" version="1.1" xmlns="http://www.w3.org/2000/svg">
  <g id="final" stroke="none" stroke-width="1" fill="none" fill-rule="evenodd">
    <g id="stake-stone" transform="translate(0.000000, -0.000000)" stroke="#E6E6E7">
      <g id="group-6-bak-2"
         transform="translate(630.0, 0.0) scale(-1, 1)">
        <path
          d="M9.70608178,367 C-13.6544438,289.397909 5.15298522,237.321829 66.1283687,210.77176 C157.591444,170.946655 266.062232,231.893998 354.613288,190.266196 C436.760021,151.649063 436.760021,34.6580566 545.161807,3.6895406 C566.727263,-2.47133745 593.673327,-0.916535734 626,8.35394573"
          id="path-9"/>
        <path
          d="M41.2099242,367 C19.043547,293.626906 36.8895738,244.38876 94.7480048,219.28556 C181.535651,181.630761 284.461607,239.256723 368.486091,199.897466 C446.43363,163.384809 446.43363,52.7693342 549.29411,23.4884757 C569.757179,17.6633403 595.325809,19.1334117 626,27.8986898"
          id="path-9-bak"/>
        <path
          d="M77.6362421,366 C56.8505988,296.644453 73.5850044,250.102343 127.839459,226.373671 C209.221141,190.780662 305.735884,245.251311 384.52652,208.047172 C457.618741,173.533767 457.618741,68.9750479 554.072087,41.2974641 C573.26052,35.7912842 597.236491,37.1808618 626,45.4661967"
          id="path-9-bak"/>
        <path
          d="M109.140085,366 C89.5485895,300.87345 105.321593,257.169274 156.459095,234.887471 C233.165348,201.464768 324.135259,252.614036 398.399323,217.678442 C467.29235,185.269513 467.29235,87.0863254 558.20439,61.0963992 C576.290436,55.925962 598.888973,57.2308092 626,65.0109408"
          id="path-9-bak"/>
        <path
          d="M142.612917,367 C124.290205,306.102447 139.041718,265.236204 186.867459,244.401272 C258.606069,213.148874 343.684594,260.976761 413.139176,228.309712 C477.57056,198.005259 477.57056,106.197603 562.594963,81.8953343 C579.509722,77.0606398 600.644734,78.2807567 626,85.5556849"
          id="path-9-bak"/>
      </g>
    </g>
  </g>
</svg>
