<?xml version="1.0" encoding="UTF-8"?>
<svg viewBox="0 0 280 800" version="1.1" xmlns="http://www.w3.org/2000/svg">
  <g id="final" stroke="none" stroke-width="1" fill="none" fill-rule="evenodd">
    <g id="stake-stone" transform="translate(-400.000000, -550.000000)" stroke="#E6E6E7">
      <g id="group-6"
         transform="translate(575.123115, 1015.346071) scale(-1, 1) rotate(115.000000) translate(-575.123115, -1015.346071) translate(171.638369, 776.127245)">
        <path
          d="M8.96184548,477.609335 C-12.6074577,377.382112 4.75786814,310.123088 61.0578229,275.832262 C145.507755,224.396023 245.661294,303.112755 327.422493,249.348237 C403.270435,199.472157 408.68904,52.520489 503.360262,8.37457306 C558.265088,-17.2279675 659.468164,15.873089 806.969492,107.677743"
          id="path-9"/>
        <path
          d="M38.5969391,477.706392 C18.1844671,383.188315 34.6184346,319.760501 87.8988416,287.42295 C167.819452,238.916624 262.601435,313.14949 339.977517,262.447508 C411.75749,215.412472 416.91616,76.9641137 506.479178,35.2001926 C561.319273,9.62783621 651.729219,38.1783104 777.709015,120.851615"
          id="path-9-bak"/>
        <path
          d="M70.8015238,477.176133 C51.5832001,387.521402 67.0557654,327.357211 117.21922,296.683561 C192.464402,250.673086 281.701552,321.086365 354.551062,272.99321 C422.131841,228.37832 426.610119,96.9359486 511.312224,57.4387086 C556.707195,36.2706861 636.483053,61.7726865 750.639799,133.94471"
          id="path-9-bak"/>
        <path
          d="M99.7102776,478.437653 C81.6114679,394.280618 96.1827187,337.80574 143.42403,309.013022 C214.285997,265.823944 298.324867,331.919427 366.930717,286.775381 C430.574751,244.89631 434.860727,121.6033 514.56016,84.4388444 C562.535823,62.0674255 635.518687,84.0433209 733.508751,150.366531"
          id="path-9-bak"/>
        <path
          d="M130.704833,478.400783 C113.762854,399.741443 127.402747,346.95588 171.624511,320.044092 C237.957156,279.676412 316.624469,341.454099 380.845203,299.259161 C440.421268,260.115909 444.175388,145.04985 519.038537,110.14059 C557.028427,92.4256133 618.797251,109.832095 704.34501,162.360035"
          id="path-9-bak"/>
      </g>
    </g>
  </g>
</svg>
