<?xml version="1.0" encoding="UTF-8"?>
<svg viewBox="0 0 141 141" version="1.1" xmlns="http://www.w3.org/2000/svg" xmlns:xlink="http://www.w3.org/1999/xlink">
  <defs>
    <polygon id="path-1" points="0 0 55.2502098 27.5520559 55.2502098 82.7685703 0 55.0320938"/>
    <polygon id="path-3" points="0 0 55.2502098 27.5520559 55.2502098 82.7685703 0 55.0320938"/>
  </defs>

  <g id="final" stroke="none" stroke-width="1" fill="none" fill-rule="evenodd">
    <g id="group-5" transform="translate(1.000000, 1.000000)">
      <g id="group" transform="translate(0.0, 0.0)">
        <polygon id="rect" stroke="#FFFFFF" stroke-width="0.583333333" fill="#131313" fill-rule="nonzero"
                 points="0 35.3777103 69.3514968 69.9617658 69.3514968 139.200694 0 104.385149"/>
        <g id="rect" transform="translate(7.050643, 45.905622)">
          <polygon id="path" stroke="#FF7803"
                   points="0.5 0.808060592 54.7502098 27.8614387 54.7502098 81.958094 0.5 54.7236333"/>
          <g id="Clipped">
            <mask id="mask-2" fill="white">
              <use xlink:href="#path-1"/>
            </mask>
            <g id="path-2"/>
            <polygon id="path" fill="#FFB06C" fill-rule="nonzero" mask="url(#mask-2)"
                     points="1.00004029 1.61155614 7.44875592 4.81583712 7.44875592 51.6431587 1.00004029 54.4155863"/>
          </g>
          <g id="path-Clipped">
            <mask id="mask-4" fill="white">
              <use xlink:href="#path-3"/>
            </mask>
            <g id="path-2"/>
            <polygon id="path" fill="#FFDCBE" fill-rule="nonzero" mask="url(#mask-4)"
                     points="54.2525918 81.1628518 1.00004029 54.4155863 7.44875592 51.6431587 54.2525918 73.2961736"/>
          </g>
        </g>
        <g id="path-30" transform="translate(69.839852, 35.377320)">
          <polygon id="path" stroke="#FFFFFF" stroke-width="0.583333333" fill="#000000"
                   points="69.5768144 0 69.5768144 69.0984578 0.094977822 103.683132 0.094977822 34.5846745"/>
          <g id="group-3" opacity="0.627456665" transform="translate(26.030673, 34.412568)" stroke="#FF7B0A"
             stroke-width="1.5716878">
            <polygon id="path-21"
                     points="12.7330088 0.016801409 5.72097611 8.98244709 0 23.7379254 12.7330088 29.266826 25.4786371 12.5619274 18.7491716 1.09359113"/>
            <polyline id="path-22" points="6.20425745 8.62558049 12.6229523 7.88034608 19.3445049 1.46146674"/>
            <path
              d="M0.371397206,23.5906017 C2.22745596,21.4332978 3.64133442,19.9520685 5.01966668,18.9694489 C7.08716507,17.4955197 5.88205071,21.4425329 10.0012925,19.9538423 C14.1205342,18.4651517 18.0738521,13.3340908 20.770965,12.3889559 C22.5690403,11.7588659 24.0799478,11.8745722 25.3036875,12.7360746 L12.6405185,29.1235746 L0.371397206,23.5906017 Z"
              id="path-25" fill="#FF7B0A" fill-rule="nonzero"/>
            <polyline id="path-23" points="13.4168255 0 11.9171868 11.5205018 13.9254071 21.6879301"/>
          </g>
          <line x1="0" y1="94.7762651" x2="69.868481" y2="60.9219309" id="path" stroke="#FF7803"/>
        </g>
        <polygon id="rect" stroke="#FFFFFF" stroke-width="0.583333333" fill="#191919" fill-rule="nonzero"
                 points="69.6433638 0 139.056463 34.9050101 69.6432846 69.4555103 0.359233802 34.9050109"/>
        <g id="STAKE-STONE-4" transform="translate(64.504293, 13.783104)" fill="#FF7B0A" fill-rule="nonzero">
          <path
            d="M5.56581572,3.96969105 C4.77316376,4.36482816 3.95762014,4.60040703 3.11918485,4.67642765 C2.28074957,4.75244827 1.56724533,4.64380759 0.978672149,4.35050559 C0.638403277,4.18094037 0.400365727,4.00395739 0.264559499,3.81955666 C0.128753271,3.63515593 0.0405667713,3.4430595 0,3.24326736 L1.92938693,2.28146771 L2.04526228,2.33921154 C1.9218564,2.61891061 1.90392562,2.87215707 1.99146994,3.09895093 C2.07901425,3.32574479 2.24785821,3.50146839 2.49800182,3.62612174 C2.56237701,3.65820165 2.6577933,3.69497558 2.78425068,3.73644353 C2.91070805,3.77791148 3.03226473,3.80257115 3.1489207,3.81042253 C3.29470286,3.81842216 3.44244384,3.81123603 3.59214365,3.78886414 C3.74184347,3.76649225 3.9121719,3.70771024 4.10312897,3.61251812 C4.27967418,3.52451031 4.39373409,3.42960722 4.44530871,3.32780885 C4.49688333,3.22601049 4.48332714,3.12138582 4.40464015,3.01393484 C4.32219896,2.90102151 4.22651743,2.78599958 4.11759556,2.66886904 C4.00867369,2.5517385 3.92744183,2.43134686 3.87389996,2.30769412 C3.74789399,2.02581845 3.79727508,1.75322709 4.02204324,1.48992005 C4.24681139,1.226613 4.63842514,0.955763443 5.19688448,0.677371388 C5.94630088,0.30378721 6.72941783,0.0843730438 7.54623533,0.0191288879 C8.36305284,-0.046115268 9.04091775,0.0555399758 9.57983007,0.324094619 C9.85020588,0.458830225 10.0660207,0.617555944 10.2272745,0.800271777 C10.3885284,0.982987609 10.4882543,1.16108106 10.5264525,1.33455212 L8.67272779,2.25863414 L8.55961138,2.20226516 C8.65348854,1.99045637 8.66778524,1.78119098 8.60250146,1.57446899 C8.53721769,1.36774699 8.379504,1.20205932 8.1293604,1.07740597 C8.04107442,1.03341067 7.94153863,0.995481765 7.83075304,0.963619255 C7.71996744,0.931756745 7.59168357,0.911825677 7.44590141,0.903826052 C7.3201246,0.895021038 7.17654093,0.905176754 7.01515039,0.934293201 C6.85375985,0.963409648 6.70280679,1.01299139 6.56229122,1.08303842 C6.34971638,1.18900701 6.22806633,1.29090233 6.19734109,1.38872437 C6.16661584,1.48654641 6.21937039,1.61609199 6.35560474,1.77736111 C6.44517624,1.88305307 6.53057153,1.98486814 6.6117906,2.08280633 C6.69300967,2.18074451 6.76318688,2.29472943 6.82232224,2.42476109 C6.93507508,2.6820747 6.89255963,2.93474244 6.69477589,3.1827643 C6.49699215,3.43078616 6.1206721,3.69309507 5.56581572,3.96969105 Z M13.4670358,3.9581938 L12.1841302,3.31888709 L5.69339152,6.55452121 L4.63395978,6.02657761 L11.1246985,2.79094349 L9.84179284,2.15163679 L11.3982731,1.37573119 L15.023516,3.1822882 L13.4670358,3.9581938 Z M11.4099086,9.40321688 L10.3146107,8.85740019 L11.6571782,7.9048612 L10.1342451,7.14594228 L8.22333657,7.81526152 L7.15562802,7.28319336 L16.7202622,4.02782287 L17.9397122,4.63550795 L11.4099086,9.40321688 Z M12.8760106,7.04150601 L15.2570989,5.35124959 L11.8662397,6.53830977 L12.8760106,7.04150601 Z M15.8352432,11.6084813 L14.535784,10.9609255 L16.5291064,8.7434223 L15.6917176,8.91334423 L13.0597528,10.225379 L12.0003211,9.69743545 L20.0475399,5.68589573 L21.1069717,6.21383933 L17.4643756,8.02967397 L22.574726,6.9452612 L23.8024529,7.55707084 L18.473089,8.6131527 L15.8352432,11.6084813 Z M19.3280572,13.3490453 L16.3566823,11.8683285 L24.4039012,7.85678882 L27.3752761,9.33750563 L25.8187959,10.1134112 L22.8474209,8.63269442 L21.4760916,9.31630227 L24.2919066,10.7370566 L22.7354264,11.5129622 L19.9019983,10.100988 L17.9131625,11.0924229 L20.8845374,12.5731397 L19.3280572,13.3490453 Z M26.0343679,14.1697264 C25.2417159,14.5648635 24.4261723,14.8004424 23.587737,14.876463 C22.7493017,14.9524836 22.0357975,14.8438429 21.4472243,14.5505409 C21.1069554,14.3809757 20.8689179,14.2039927 20.7331116,14.019592 C20.5973054,13.8351913 20.5091189,13.6430948 20.4685521,13.4433027 L22.3979391,12.481503 L22.5138144,12.5392469 C22.3904086,12.8189459 22.3724778,13.0721924 22.4600221,13.2989863 C22.5475664,13.5257801 22.7164104,13.7015037 22.966554,13.8261571 C23.0309292,13.858237 23.1263454,13.8950109 23.2528028,13.9364789 C23.3792602,13.9779468 23.5008169,14.0026065 23.6174728,14.0104579 C23.763255,14.0184575 23.910996,14.0112713 24.0606958,13.9888995 C24.2103956,13.9665276 24.3807241,13.9077456 24.5716811,13.8125534 C24.7482263,13.7245456 24.8622862,13.6296425 24.9138609,13.5278442 C24.9654355,13.4260458 24.9518793,13.3214211 24.8731923,13.2139702 C24.7907511,13.1010568 24.6950696,12.9860349 24.5861477,12.8689044 C24.4772258,12.7517738 24.395994,12.6313822 24.3424521,12.5077294 C24.2164461,12.2258538 24.2658272,11.9532624 24.4905954,11.6899554 C24.7153635,11.4266483 25.1069773,11.1557988 25.6654366,10.8774067 C26.414853,10.5038225 27.19797,10.2844084 28.0147875,10.2191642 C28.831605,10.1539201 29.5094699,10.2555753 30.0483822,10.5241299 C30.318758,10.6588655 30.5345728,10.8175913 30.6958267,11.0003071 C30.8570805,11.1830229 30.9568065,11.3611164 30.9950046,11.5345874 L29.1412799,12.4586695 L29.0281635,12.4023005 C29.1220407,12.1904917 29.1363374,11.9812263 29.0710536,11.7745043 C29.0057698,11.5677823 28.8480561,11.4020946 28.5979125,11.2774413 C28.5096266,11.233446 28.4100908,11.1955171 28.2993052,11.1636546 C28.1885196,11.1317921 28.0602357,11.111861 27.9144536,11.1038614 C27.7886768,11.0950564 27.6450931,11.1052121 27.4837025,11.1343285 C27.322312,11.163445 27.1713589,11.2130267 27.0308434,11.2830737 C26.8182685,11.3890423 26.6966185,11.4909376 26.6658932,11.5887597 C26.635168,11.6865817 26.6879225,11.8161273 26.8241569,11.9773964 C26.9137284,12.0830884 26.9991237,12.1849035 27.0803427,12.2828416 C27.1615618,12.3807798 27.231739,12.4947648 27.2908744,12.6247964 C27.4036272,12.88211 27.3611118,13.1347778 27.163328,13.3827996 C26.9655443,13.6308215 26.5892242,13.8931304 26.0343679,14.1697264 Z M33.935588,14.1582291 L32.6526823,13.5189224 L26.1619437,16.7545565 L25.1025119,16.2266129 L31.5932506,12.9909788 L30.310345,12.3516721 L31.8668252,11.5757665 L35.4920682,13.3823235 L33.935588,14.1582291 Z M36.0980114,17.6978188 C34.8153564,18.3372225 33.6090108,18.7515735 32.4789745,18.9408718 C31.3489383,19.13017 30.4528477,19.0598368 29.7907029,18.729872 C29.1303974,18.4008239 28.9900473,17.9546706 29.3696528,17.3914123 C29.7492582,16.828154 30.5803884,16.226823 31.8630434,15.5874193 C33.1565073,14.9426274 34.3664559,14.5264803 35.4928892,14.3389781 C36.6193224,14.1514759 37.5126919,14.2222489 38.1729974,14.5512971 C38.8314636,14.8794287 38.9736152,15.3246839 38.599452,15.8870627 C38.2252888,16.4494415 37.3914753,17.0530269 36.0980114,17.6978188 Z M32.6562367,18.0137006 C33.0042385,17.9428951 33.3697069,17.8367975 33.7526419,17.6954077 C34.1355769,17.5540178 34.5522296,17.371068 35.0026001,17.1465583 C35.4853972,16.9058839 35.867626,16.6869242 36.1492865,16.4896793 C36.4309471,16.2924343 36.630281,16.1188114 36.7472883,15.9688104 C36.8696623,15.8143008 36.9183328,15.682323 36.8933,15.572877 C36.8682671,15.4634311 36.7895362,15.3757117 36.6571072,15.3097187 C36.522839,15.2428092 36.3495492,15.2031441 36.1372378,15.1907235 C35.9249265,15.1783028 35.6610211,15.2012274 35.3455215,15.2594974 C35.051791,15.3142493 34.698511,15.4156462 34.2856814,15.5636879 C33.8728518,15.7117296 33.4322444,15.9024956 32.9638592,16.1359857 C32.484665,16.374864 32.1046786,16.5922475 31.8238999,16.7881361 C31.5431212,16.9840247 31.3424267,17.1578676 31.2218164,17.3096646 C31.1012062,17.4614616 31.0520758,17.5932103 31.0744253,17.7049106 C31.0967748,17.8166108 31.1760034,17.906374 31.3121109,17.9742001 C31.4482185,18.0420262 31.6292307,18.0810502 31.8551477,18.0912721 C32.0810647,18.101494 32.3480944,18.0756368 32.6562367,18.0137006 Z M36.6210731,21.9666247 L35.6002665,21.4579291 L39.3799614,17.8356347 L33.8566184,20.5890219 L32.8854727,20.1050736 L40.9326915,16.0935339 L42.1990435,16.7245915 L39.0871545,19.7692182 L43.6971462,17.4711367 L44.668292,17.955085 L36.6210731,21.9666247 Z M40.640844,23.9697857 L37.6694691,22.4890689 L45.716688,18.4775292 L48.6880629,19.958246 L47.1315827,20.7341516 L44.1602077,19.2534348 L42.7712653,19.9458228 L45.6046934,21.3577969 L44.0482132,22.1337025 L41.2147851,20.7217284 L39.2259493,21.7131633 L42.1973242,23.1938801 L40.640844,23.9697857 Z"
            id="shape-combine"/>
        </g>
        <polygon id="path-47" stroke="#FF7803" stroke-width="0.583333333" fill="#FFAF6A" fill-rule="nonzero"
                 points="28.2971046 20.4420438 98.454947 55.4002659 111.197076 48.9876914 41.0961282 14.0599536"/>
        <polygon id="path-48" stroke="#FF7803" stroke-width="0.583333333" fill="#FF7B0A" fill-rule="nonzero"
                 points="98.454947 55.4002659 111.197076 48.9876914 111.197076 61.8448451 98.454947 68.2306726"/>
        <g id="x_" transform="translate(24.672062, 67.852798)" fill="#FF7803" fill-rule="nonzero">
          <path
            d="M5.81838714,0 L8.24268584,1.26044168 L8.24268584,3.69408531 L5.81836205,2.43363058 L5.81838714,0 Z M8.72755562,1.51253524 L11.1518543,2.77297692 L11.1518543,5.20662055 L8.72755562,3.94617887 L8.72755562,1.51253524 Z M11.6367241,3.02507047 L14.0610479,4.2855252 L14.0610479,6.71916883 L11.6367241,5.4587141 L11.6367241,3.02507047 Z M14.5459177,4.53761876 L16.9702164,5.79806044 L16.9702164,8.23170407 L14.5459177,6.97126239 L14.5459177,4.53761876 Z M17.4550861,6.050154 L19.8794099,7.31060873 L19.8794099,9.74425235 L17.4550861,8.48379762 L17.4550861,6.050154 Z M5.81838714,2.92037739 L8.24271094,4.18083212 L8.24271094,6.61445056 L5.81838714,5.35399583 L5.81838714,2.92037739 Z M2.90921867,1.40784216 L5.33351737,2.66828384 L5.33351737,5.10190227 L2.90921867,3.84146059 L2.90921867,1.40784216 Z M17.4551112,8.97054444 L19.879435,10.2309992 L19.879435,12.6646176 L17.4551112,11.4041629 L17.4551112,8.97054444 Z M8.72755562,7.35326483 L11.1518543,8.61370651 L11.1518543,11.0473501 L8.72755562,9.78690846 L8.72755562,7.35326483 Z M11.6367241,8.86580007 L14.0610479,10.1262548 L14.0610479,12.5598984 L11.6367241,11.2994437 L11.6367241,8.86580007 Z M14.5459177,10.3783484 L16.9702164,11.63879 L16.9702164,14.0724337 L14.5459177,12.811992 L14.5459177,10.3783484 Z M5.81836205,8.76109394 L8.24268584,10.0215487 L8.24268584,12.4551671 L5.81836205,11.1947124 L5.81836205,8.76109394 Z M8.72755562,10.2736422 L11.1518543,11.5340839 L11.1518543,13.9677023 L8.72755562,12.7072607 L8.72755562,10.2736422 Z M11.6367241,11.7861775 L14.0610479,13.0466322 L14.0610479,15.4802506 L11.6367241,14.2197959 L11.6367241,11.7861775 Z M17.4551112,14.811274 L19.8794099,16.0717157 L19.8794099,18.5053341 L17.4550861,17.2448794 L17.4551112,14.811274 Z M5.81833695,11.6814331 L8.24266075,12.9418878 L8.24266075,15.3755315 L5.81833695,14.1150767 L5.81833695,11.6814331 Z M8.72753053,13.1939814 L11.1518292,14.4544231 L11.1518292,16.8880667 L8.72753053,15.627625 L8.72753053,13.1939814 Z M14.5458926,16.2190649 L16.9701913,17.4795066 L16.9701913,19.9131502 L14.5458926,18.6527085 L14.5458926,16.2190649 Z M17.4550611,17.7316001 L19.8793848,18.9920549 L19.8793848,21.4256985 L17.4550611,20.1652438 L17.4550611,17.7316001 Z M5.81838714,14.6018366 L8.24271094,15.8622913 L8.24271094,18.2959097 L5.81838714,17.035455 L5.81838714,14.6018366 Z M8.72758072,16.1143849 L11.1518794,17.3748265 L11.1518794,19.808445 L8.72758072,18.5480033 L8.72758072,16.1143849 Z M14.5459428,19.1394684 L16.9702415,20.3999101 L16.9702415,22.8335285 L14.5459428,21.5730868 L14.5459428,19.1394684 Z M17.4551112,20.6520036 L19.879435,21.9124584 L19.879435,24.3460768 L17.4551112,23.0856221 L17.4551112,20.6520036 Z M5.81838714,17.5221888 L8.24271094,18.7826435 L8.24271094,21.2162871 L5.81838714,19.9558324 L5.81838714,17.5221888 Z M8.72758072,19.0347371 L11.1518794,20.2951787 L11.1518794,22.7288224 L8.72758072,21.4683807 L8.72758072,19.0347371 Z M11.6367492,20.5472723 L14.061073,21.807727 L14.061073,24.2413707 L11.6367492,22.9809159 L11.6367492,20.5472723 Z M14.5459428,22.0598206 L16.9702415,23.3202623 L16.9702415,25.7539059 L14.5459428,24.4934642 L14.5459428,22.0598206 Z M17.4551112,23.5723558 L19.879435,24.8328106 L19.879435,27.2664542 L17.4551112,26.0059995 L17.4551112,23.5723558 Z M20.3643048,10.4830927 L22.7886035,11.7435344 L22.7886035,14.1771528 L20.3643048,12.9167112 L20.3643048,10.4830927 Z M5.81836205,23.3629053 L8.24268584,24.6233601 L8.24268584,27.0570037 L5.81836205,25.796549 L5.81836205,23.3629053 Z M8.72755562,24.8754536 L11.1518543,26.1358953 L11.1518543,28.5695389 L8.72755562,27.3090972 L8.72755562,24.8754536 Z M11.6367241,26.3879888 L14.0610479,27.6484436 L14.0610479,30.0820872 L11.6367241,28.8216325 L11.6367241,26.3879888 Z M14.5459177,27.9005371 L16.9702164,29.1609788 L16.9702164,31.5946224 L14.5459177,30.3341808 L14.5459177,27.9005371 Z M17.4550861,29.4130724 L19.8794099,30.6735271 L19.8794099,33.1071707 L17.4550861,31.846716 L17.4550861,29.4130724 Z M5.81838714,20.4425662 L8.24271094,21.7030209 L8.24271094,24.1366393 L5.81838714,22.8761846 L5.81838714,20.4425662 Z M2.90921867,18.9300309 L5.33351737,20.1904726 L5.33351737,22.6240911 L2.90921867,21.3636494 L2.90921867,18.9300309 Z M8.72758072,21.9551145 L11.1518794,23.2155561 L11.1518794,25.6491746 L8.72758072,24.3887329 L8.72758072,21.9551145 Z M14.5459428,24.980198 L16.9702415,26.2406397 L16.9702415,28.6742581 L14.5459428,27.4138164 L14.5459428,24.980198 Z M17.4551112,26.4927332 L19.879435,27.7531879 L19.879435,30.1868064 L17.4551112,28.9263517 L17.4551112,26.4927332 Z M20.3643048,28.0052815 L22.7886035,29.2657232 L22.7886035,31.6993416 L20.3643048,30.4388999 L20.3643048,28.0052815 Z M0,16.9307106 L0,14.497067 L2.42432379,15.7575217 L2.42432379,18.1911654 L0,16.9307106 Z M0,14.0103333 L0,11.5767148 L2.42432379,12.8371695 L2.42432379,15.270788 L0,14.0103333 Z M0,11.0899811 L0,8.65633743 L2.42432379,9.91679216 L2.42432379,12.3504358 L0,11.0899811 Z M0,8.16960366 L0,5.73598523 L2.42432379,6.99643995 L2.42432379,9.43005839 L0,8.16960366 Z M0,5.24925146 L0,2.81560783 L2.42432379,4.07606256 L2.42432379,6.50970619 L0,5.24925146 Z M2.90919357,18.4432589 L2.90919357,16.0096153 L5.33349227,17.270057 L5.33349227,19.7037006 L2.90919357,18.4432589 Z M2.90919357,15.5228815 L2.90919357,13.0892631 L5.33349227,14.3497048 L5.33349227,16.7833232 L2.90919357,15.5228815 Z M2.90919357,12.6025293 L2.90919357,10.1688857 L5.33349227,11.4293274 L5.33349227,13.862971 L2.90919357,12.6025293 Z M2.90919357,9.68215195 L2.90919357,7.24853351 L5.33349227,8.50897519 L5.33349227,10.9425936 L2.90919357,9.68215195 Z M2.90919357,6.76179975 L2.90919357,4.32815612 L5.33349227,5.5885978 L5.33349227,8.02224143 L2.90919357,6.76179975 Z M23.2734482,29.0310447 L23.2734482,26.5974011 L25.697772,27.8578558 L25.697772,30.2914995 L23.2734482,29.0310447 Z M23.2734482,26.1106673 L23.2734482,23.6770489 L25.697772,24.9375036 L25.697772,27.3711221 L23.2734482,26.1106673 Z M23.2734482,23.1903151 L23.2734482,20.7566715 L25.697772,22.0171262 L25.697772,24.4507699 L23.2734482,23.1903151 Z M23.2734482,20.2699377 L23.2734482,17.8363193 L25.697772,19.096774 L25.697772,21.5303925 L23.2734482,20.2699377 Z M23.2734482,17.3495855 L23.2734482,14.9159419 L25.697772,16.1763966 L25.697772,18.6100403 L23.2734482,17.3495855 Z M20.3642797,27.5185095 L20.3642797,25.0848659 L22.7885784,26.3453076 L22.7885784,28.7789512 L20.3642797,27.5185095 Z M20.3642797,24.5981321 L20.3642797,22.1645137 L22.7885784,23.4249554 L22.7885784,25.8585738 L20.3642797,24.5981321 Z M20.3642797,21.6777799 L20.3642797,19.2441363 L22.7885784,20.504578 L22.7885784,22.9382216 L20.3642797,21.6777799 Z M20.3642797,18.7574025 L20.3642797,16.3237841 L22.7885784,17.5842258 L22.7885784,20.0178442 L20.3642797,18.7574025 Z M20.3642797,15.8370503 L20.3642797,13.4034067 L22.7885784,14.6638484 L22.7885784,17.097492 L20.3642797,15.8370503 Z"
            id="shape"/>
        </g>
      </g>
    </g>
  </g>
</svg>
