<?xml version="1.0" encoding="UTF-8"?>
<svg viewBox="0 0 38 38" version="1.1" xmlns="http://www.w3.org/2000/svg">
  <g id="final" stroke="none" stroke-width="1" fill="none" fill-rule="evenodd">
    <g id="stake-stone" transform="translate(-701.000000, -1286.000000)" fill-rule="nonzero">
      <g id="group-5" transform="translate(480.000000, 790.000000)">
        <g id="cup" transform="translate(221.000000, 496.000000)">
          <rect id="rect" fill="#000000" opacity="0" x="4" y="4" width="30" height="30"/>
          <polygon id="path" fill="#FFB300"
                   points="17.1484375 22.2460938 20.8544922 22.2460938 20.8544922 25.9521484 17.1484375 25.9521484"/>
          <path
            d="M21.8623047,27.34375 L16.1376953,27.34375 L16.1376953,25.5507812 C16.1376953,25.2138672 16.4130859,24.9384766 16.75,24.9384766 L21.2529297,24.9384766 C21.5898437,24.9384766 21.8652344,25.2138672 21.8652344,25.5507812 L21.8652344,27.34375 L21.8623047,27.34375 Z"
            id="path" fill="#FFCA28"/>
          <path
            d="M24.7451172,33.7714844 L13.2548828,33.7714844 C12.9179687,33.7714844 12.6425781,33.4960938 12.6425781,33.1591797 L12.6425781,27.9414062 C12.6425781,27.6044922 12.9179687,27.3291016 13.2548828,27.3291016 L24.7480469,27.3291016 C25.0849609,27.3291016 25.3603516,27.6044922 25.3603516,27.9414062 L25.3603516,33.1591797 C25.3574219,33.4990234 25.0849609,33.7714844 24.7451172,33.7714844 Z"
            id="path" fill="#455A64"/>
          <path
            d="M22.7001953,32.2421875 L15.2998047,32.2421875 C15.1298828,32.2421875 14.9951172,32.1044922 14.9951172,31.9375 L14.9951172,28.9814453 C14.9951172,28.8115234 15.1328125,28.6767578 15.2998047,28.6767578 L22.7001953,28.6767578 C22.8701172,28.6767578 23.0048828,28.8144531 23.0048828,28.9814453 L23.0048828,31.9345703 C23.0048828,32.1044922 22.8701172,32.2421875 22.7001953,32.2421875 Z"
            id="path" fill="#CFD8DC"/>
          <path
            d="M11.5351562,7.39257812 L11.5351562,15.7363281 C9.08007812,15.3935547 7.18457031,13.28125 7.18457031,10.7324219 L7.18457031,7.39257812 L11.5351562,7.39257812 M13.0644531,5.86328125 L6.87695312,5.86328125 C6.20019531,5.86328125 5.65234375,6.41113281 5.65234375,7.08789063 L5.65234375,10.7353516 C5.65234375,14.3710938 8.59960937,17.3183594 12.2353516,17.3183594 L13.0644531,17.3183594 L13.0644531,5.86328125 L13.0644531,5.86328125 Z M30.8154297,7.39257812 L30.8154297,10.5800781 C30.8154297,13.1582031 28.9287109,15.3056641 26.4648437,15.7128906 L26.4648437,7.39257812 L30.8154297,7.39257812 M31.1230469,5.86328125 L24.9355469,5.86328125 L24.9355469,17.3154297 L25.6123047,17.3154297 C29.3300781,17.3154297 32.3447382,14.3007812 32.3447382,10.5830078 L32.3447382,7.08789062 C32.3476562,6.41113281 31.796875,5.86328125 31.1230469,5.86328125 Z"
            id="形状" fill="#FFB300"/>
          <path
            d="M19,22.9814453 C14.2333984,22.9814453 10.3691406,19.1171875 10.3691406,14.3505859 L10.3691406,4.80859375 C10.3691406,4.48925781 10.6298828,4.22851562 10.9492187,4.22851562 L27.0478516,4.22851562 C27.3671875,4.22851562 27.6279314,4.48925781 27.6279314,4.80859375 L27.6279314,14.3505859 C27.6308594,19.1171875 23.7666016,22.9814453 19,22.9814453 Z"
            id="path" fill="#FFCA28"/>
          <path
            d="M27.0654297,17.4296875 L22.7529297,11.7636719 L16.703125,16.0996094 L21.5957031,22.5859375 C22.8818359,22.1611328 23.78125,21.5927734 24.6396484,20.8779297 C25.6621094,20.0253906 26.4824219,18.8916016 27.0654297,17.4296875 L27.0654297,17.4296875 Z"
            id="path" fill="#FFB806"/>
          <path
            d="M19.3017578,9.22363281 L20.21875,11.078125 C20.2626953,11.1689453 20.3505859,11.2304688 20.4501953,11.2451172 L22.4980469,11.5439453 C22.75,11.5791016 22.8496094,11.8896484 22.6679687,12.0654297 L21.1855469,13.5097656 C21.1123047,13.5800781 21.0800781,13.6826172 21.0976562,13.7792969 L21.4462891,15.8183594 C21.4902344,16.0673828 21.2265625,16.2578125 21.0009766,16.140625 L19.0263672,15.1035156 L17.0517578,16.140625 C16.8261719,16.2578125 16.5654297,16.0673828 16.6064453,15.8183594 L16.9550781,13.7792969 C16.9726562,13.6796875 16.9404297,13.5800781 16.8671875,13.5097656 L15.3847656,12.0654297 C15.203125,11.8896484 15.3027344,11.5791016 15.5546875,11.5439453 L17.6025391,11.2451172 C17.7021484,11.2304688 17.7871094,11.1689453 17.8339844,11.078125 L18.7509766,9.22363281 C18.8652344,8.99511719 19.1904297,8.99511719 19.3017578,9.22363281 L19.3017578,9.22363281 Z"
            id="path" fill="#FFF8E1"/>
        </g>
      </g>
    </g>
  </g>
</svg>
