<?xml version="1.0" encoding="UTF-8"?>
<svg viewBox="0 0 71 82" version="1.1" xmlns="http://www.w3.org/2000/svg" xmlns:xlink="http://www.w3.org/1999/xlink">
  <defs>
    <polygon id="path-1"
             points="1.52515248 4.15393281 0 7.85293529 0.530499082 11 7.41373309 10.4818244 10.2133183 8.72895203 14 5.5 8.9561773 3.31944907e-23"/>
    <polygon id="path-3"
             points="9.03832231 7.76708563e-18 0.770801097 2.59313127 0 6.07530202 2.8307809 7.74972673 10.7043005 7.74972673 12.7915813 3.67606715"/>
    <polygon id="path-5"
             points="9.03832231 7.76708563e-18 0.770801097 2.59313127 0 6.07530202 2.8307809 7.74972673 10.7043005 7.74972673 12.7915813 3.67606715"/>
    <polygon id="path-7"
             points="8.78129022 0 0.843518181 5.53921043 0 9.32149551 3.0978357 11.1402322 11.7141402 11.1402322 13.9983342 6.71548021"/>
    <polygon id="path-9"
             points="8.78129022 0 0.843518181 5.53921043 0 9.32149551 3.0978357 11.1402322 11.7141402 11.1402322 13.9983342 6.71548021"/>
    <polygon id="path-11"
             points="6.57723189 -1.35921499e-17 0.712627429 1.99756106 -1.77635533e-16 5.22775222 2.61713706 6.78101089 9.89642877 6.78101089 11.8261789 3.00213268"/>
    <polygon id="path-13"
             points="6.57723189 -1.35921499e-17 0.712627429 1.99756106 -1.77635533e-16 5.22775222 2.61713706 6.78101089 9.89642877 6.78101089 11.8261789 3.00213268"/>
  </defs>
  <g id="final" stroke="none" stroke-width="1" fill="none" fill-rule="evenodd">
    <g id="group-8" transform="translate(0.289768, 1.000000)">
      <polygon id="rect" stroke="#FFF3D1" stroke-width="0.5" fill="#585858" fill-rule="nonzero"
               points="60.3669435 5.33575817 69.9710334 55.3534167 50.78512 63.2046039 15.4490063 62.9591124 0.015940847 55.3675171 9.85416009 5.33575817"/>
      <polygon id="path-50" fill="#383430" fill-rule="nonzero"
               points="20.7096655 9.10954405 45.2999941 9.74562825 50.8334577 63.2087087 15.3900253 63.2087087"/>
      <ellipse id="oval" stroke="#FFF3D1" stroke-width="0.5" fill="#000000" fill-rule="nonzero" cx="35.1110197"
               cy="4.96466869" rx="25.4624872" ry="4.96466869"/>
      <polygon id="path-51" fill="#000000" fill-rule="nonzero"
               points="0.930898376 50.6746018 0 55.4105154 21.1770258 66.902925 53.1736555 66.0251409 70.2551436 55.4105154 69.5034787 50.770053"/>
      <g id="path-52" transform="translate(0.600410, 56.026086)">
        <polygon id="path" stroke="#FFF3D1" stroke-width="0.5"
                 points="69.3435121 0 54.3952251 18.9319741 44.7675638 23.7239132 24.2561013 23.7239132 15.0620753 18.9335046 0 0.097351612 14.7313626 7.29120753 50.2795794 7.43280918"/>
        <g id="Clipped" transform="translate(0.000000, 0.000000)">
          <polygon id="path" stroke="#FFF3D1" stroke-width="0.5" fill="#000000"
                   points="69.3435121 0 54.3952252 18.931974 44.7675638 23.7239132 24.2561013 23.7239132 15.0620753 18.9335046 0 0.097351615 14.7313626 7.29120752 50.2795794 7.43280918"/>
          <g id="path-Clipped" transform="translate(12.208529, 14.528397)" fill="#383430" fill-rule="nonzero">
            <polygon id="path"
                     points="0 0.440308195 10.3219289 6.53411322 33.4076865 6.53411322 45.3402822 0 42.0323093 4.23167329 32.3752517 8.97461412 12.1307587 8.97461412 3.03703245 4.23167329"/>
          </g>
        </g>
      </g>
      <path
        d="M35.231695,55.9433399 C54.1594785,55.9433399 69.5034787,53.3953003 69.5034787,50.2521343 C69.5034787,47.1089682 54.1594785,44.5609287 35.231695,44.5609287 C16.3039114,44.5609287 0.959911176,47.0652668 0.959911176,50.2521343 C0.959911176,53.4390018 17.2009854,55.9433399 35.231695,55.9433399 Z"
        id="oval" stroke="#FFF3D1" stroke-width="0.5" fill="#676767" fill-rule="nonzero"/>
      <polyline id="path-49" stroke="#FFF3D1" stroke-width="0.5"
                points="20.7096655 9.10954405 15.3900253 63.2087087 24.7952883 80"/>
      <g id="path-35"
         transform="translate(44.710232, 70.500000) rotate(32.000000) translate(-44.710232, -70.500000) translate(37.710232, 65.000000)">
        <g id="mask" fill="#6C6C6C" fill-rule="nonzero">
          <polygon id="path-3"
                   points="1.52515248 4.15393281 0 7.85293529 0.530499082 11 7.41373309 10.4818244 10.2133183 8.72895203 14 5.5 8.9561773 3.31944907e-23"/>
        </g>
        <g id="path-Clipped">
          <mask id="mask-2" fill="white">
            <use xlink:href="#path-1"/>
          </mask>
          <g id="path-3"/>
          <polygon id="path" fill="#343333" fill-rule="nonzero" mask="url(#mask-2)"
                   points="1.52515248 4.15393281 6.81551171 3.35423526 11.5005589 10.6001878 -1.85077898 11.3771968"/>
        </g>
      </g>
      <polyline id="path-49" stroke="#FFF3D1" stroke-width="0.5"
                transform="translate(48.115157, 44.622121) scale(-1, 1) translate(-48.115157, -44.622121) "
                points="50.8334577 9.50082662 45.396857 63.2087087 50.8334577 79.7434147"/>
      <g id="path-34bak-5"
         transform="translate(24.939698, 69.505362) rotate(51.000000) translate(-24.939698, -69.505362) translate(18.543907, 65.630498)">
        <g id="mask" fill="#262626" fill-rule="nonzero">
          <polygon id="path-5"
                   points="9.03832231 7.76708563e-18 0.770801097 2.59313127 0 6.07530202 2.8307809 7.74972673 10.7043005 7.74972673 12.7915813 3.67606715"/>
        </g>
        <g id="path-34-Clipped">
          <mask id="mask-4" fill="white">
            <use xlink:href="#path-3"/>
          </mask>
          <g id="path-5"/>
          <polygon id="path-34" fill="#444342" fill-rule="nonzero" mask="url(#mask-4)"
                   points="0.880858308 2.62158465 5.58503234 4.81814991 12.7915813 3.71986728 13.3804753 6.73663179 7.13066682 11.0790521 -2.54094859 5.61286915"/>
        </g>
        <g id="path-3-Clipped">
          <mask id="mask-6" fill="white">
            <use xlink:href="#path-5"/>
          </mask>
          <g id="path-7"/>
          <polygon id="path-3" fill="#151515" fill-rule="nonzero" mask="url(#mask-6)"
                   points="5.58503234 4.81814991 2.45145902 8.13042789 12.3541681 8.74031347 13.3804753 3.55476017"/>
        </g>
      </g>
      <g id="path-34bak-2" transform="translate(24.853620, 64.419603)">
        <g id="mask" fill="#6C6C6C" fill-rule="nonzero">
          <polygon id="path-7"
                   points="8.78129022 0 0.843518181 5.53921043 0 9.32149551 3.0978357 11.1402322 11.7141402 11.1402322 13.9983342 6.71548021"/>
        </g>
        <g id="path-34-Clipped">
          <mask id="mask-8" fill="white">
            <use xlink:href="#path-7"/>
          </mask>
          <g id="path-9"/>
          <polygon id="path-34" fill="#444342" fill-rule="nonzero" mask="url(#mask-8)"
                   points="0.963958148 5.57011609 6.11192218 7.95599451 13.9983342 6.7630553 14.6427843 10.0398226 7.80337123 14.7564987 -2.78066072 8.81920741"/>
        </g>
        <g id="path-3-Clipped">
          <mask id="mask-10" fill="white">
            <use xlink:href="#path-9"/>
          </mask>
          <g id="path-11"/>
          <polygon id="path-3" fill="#151515" fill-rule="nonzero" mask="url(#mask-10)"
                   points="6.11192218 7.95599451 2.68272874 11.5537444 13.5196557 12.2161936 14.6427843 6.58371827"/>
        </g>
      </g>
      <g id="path-34bak-3"
         transform="translate(54.177717, 67.325751) rotate(-47.000000) translate(-54.177717, -67.325751) translate(48.264627, 63.935246)">
        <g id="mask" fill="#6C6C6C" fill-rule="nonzero">
          <polygon id="path-9"
                   points="6.57723189 -1.35921499e-17 0.712627429 1.99756106 -1.77635533e-16 5.22775222 2.61713706 6.78101089 9.89642877 6.78101089 11.8261789 3.00213268"/>
        </g>
        <g id="path-34-Clipped">
          <mask id="mask-12" fill="white">
            <use xlink:href="#path-11"/>
          </mask>
          <g id="path-13"/>
          <polygon id="path-34" fill="#444342" fill-rule="nonzero" mask="url(#mask-12)"
                   points="0.814378435 2.02395548 5.16352047 4.06157115 11.8261789 3.04276331 12.3706281 5.84122633 6.59250328 9.86941698 -2.34917888 4.79878228"/>
        </g>
        <g id="path-3-Clipped">
          <mask id="mask-14" fill="white">
            <use xlink:href="#path-13"/>
          </mask>
          <g id="path-15"/>
          <polygon id="path-3" fill="#151515" fill-rule="nonzero" mask="url(#mask-14)"
                   points="5.16352047 4.06157115 2.26644325 7.13416345 11.4217781 7.69991601 12.3706281 2.88960381"/>
        </g>
      </g>
    </g>
  </g>
</svg>
