<?xml version="1.0" encoding="UTF-8"?>
<svg viewBox="0 0 900 390" version="1.1" xmlns="http://www.w3.org/2000/svg" xmlns:xlink="http://www.w3.org/1999/xlink">
  <defs>
    <rect id="path-1" x="0" y="0" width="900" height="388" rx="30"/>
  </defs>

  <g id="final" stroke="none" stroke-width="1" fill="none" fill-rule="evenodd">
    <mask id="mask-2" fill="white">
      <use xlink:href="#path-1"/>
    </mask>
    <use id="mask" fill="#161619" xlink:href="#path-1"/>
    <g id="group-3" opacity="0.5" mask="url(#mask-2)">
      <g transform="translate(-44.000000, 0.000000)" opacity="0.699999988">
        <g id="group-2-bak">
          <line x1="45.3586179" y1="0" x2="151.895721" y2="202.478315" id="path-4" stroke="#FFF3D1"
                stroke-width="2"/>
          <line x1="0" y1="116.761293" x2="334.262689" y2="42.1451339" id="path-5" stroke="#FFF3D1"
                stroke-width="2"/>
          <line x1="171.019742" y1="0" x2="144.017053" y2="85.389901" id="path-9" stroke="#FFF3D1"
                stroke-width="2"/>
          <polyline id="path" stroke="#FFF3D1" stroke-width="2"
                    points="245.604158 0 268.466404 8.57479007 291.101403 130.320136"/>
          <line x1="57.8524242" y1="105.005559" x2="0" y2="291.076305" id="path-12" stroke="#FFF3D1"
                stroke-width="2"/>
          <line x1="36.4276538" y1="178.859652" x2="354.078879" y2="250.84015" id="path" stroke="#FFF3D1"
                stroke-width="2"/>
          <line x1="334.262689" y1="384.072618" x2="363.297645" y2="338.780881" id="path" stroke="#FFF3D1"
                stroke-width="2"/>
          <polyline id="path-16" stroke="#FFF3D1" stroke-width="2"
                    points="0 291.076305 258.049597 349.151168 275.213827 388"/>
          <line x1="258.049597" y1="349.151168" x2="298.257158" y2="279.830096" id="path-17" stroke="#FFF3D1"
                stroke-width="2"/>
          <line x1="120.579279" y1="225.919647" x2="71.2406998" y2="384.072618" id="path-18" stroke="#FFF3D1"
                stroke-width="2"/>
          <line x1="116.115222" y1="384.072618" x2="151.895721" y2="368.980398" id="path-19" stroke="#FFF3D1"
                stroke-width="2"/>
          <line x1="416.677742" y1="92.4013725" x2="468.120326" y2="0" id="path" stroke="#FFF3D1"
                stroke-width="2"/>
          <line x1="425.229137" y1="77.0348498" x2="344.776887" y2="0" id="path-22" stroke="#FFF3D1"
                stroke-width="2"/>
          <line x1="468.120326" y1="121.936266" x2="514" y2="166.616826" id="path-23" stroke="#FFF3D1"
                stroke-width="2"/>
        </g>
        <g id="group-2" transform="translate(536.000000, 0.000000)">
          <line x1="45.3586179" y1="0" x2="151.895721" y2="202.478315" id="path-4" stroke="#FFF3D1"
                stroke-width="2"/>
          <line x1="0" y1="116.761293" x2="334.262689" y2="42.1451339" id="path-5" stroke="#FFF3D1"
                stroke-width="2"/>
          <line x1="171.019742" y1="0" x2="144.017053" y2="85.389901" id="path-9" stroke="#FFF3D1"
                stroke-width="2"/>
          <polyline id="path-11" stroke="#FFF3D1" stroke-width="2"
                    points="245.604158 0 268.466404 8.57479007 291.101403 130.320136 457.052873 202.478315 468.120326 384.072618"/>
          <line x1="57.8524242" y1="105.005559" x2="0" y2="291.076305" id="path-12" stroke="#FFF3D1"
                stroke-width="2"/>
          <polyline id="path" stroke="#FFF3D1" stroke-width="2"
                    points="94.8268229 192.093038 461.264157 275.128581 514 333.69476"/>
          <line x1="334.262689" y1="384.072618" x2="411.356593" y2="263.81355" id="path-14" stroke="#FFF3D1"
                stroke-width="2"/>
          <polyline id="path" stroke="#FFF3D1" stroke-width="2"
                    points="91.5316852 311.675795 258.049597 349.151168 275.213827 388"/>
          <line x1="258.049597" y1="349.151168" x2="298.257158" y2="279.830096" id="path-17" stroke="#FFF3D1"
                stroke-width="2"/>
          <line x1="120.579279" y1="225.919647" x2="71.2406998" y2="384.072618" id="path-18" stroke="#FFF3D1"
                stroke-width="2"/>
          <line x1="116.115222" y1="384.072618" x2="151.895721" y2="368.980398" id="path-19" stroke="#FFF3D1"
                stroke-width="2"/>
          <line x1="375.3598" y1="166.616826" x2="468.120326" y2="0" id="path-21" stroke="#FFF3D1"
                stroke-width="2"/>
          <line x1="425.229137" y1="77.0348498" x2="344.776887" y2="0" id="path-22" stroke="#FFF3D1"
                stroke-width="2"/>
        </g>
      </g>
    </g>
  </g>
</svg>
