<?xml version="1.0" encoding="UTF-8"?>
<svg viewBox="0 0 98 93" version="1.1" xmlns="http://www.w3.org/2000/svg" xmlns:xlink="http://www.w3.org/1999/xlink">
  <defs>
    <circle id="path-1" cx="32" cy="32" r="32"/>
  </defs>
  <g id="final" stroke="none" stroke-width="1" fill="none" fill-rule="evenodd">
    <g id="stake-stone" transform="translate(-672.000000, -279.000000)">
      <g id="group-4" transform="translate(528.000000, 279.000000)">
        <g id="group-2" transform="translate(149.000000, 3.000000)">
          <g id="bucket"
             transform="translate(21.574923, 60.000000) rotate(20.000000) translate(-21.574923, -60.000000) translate(4.074923, 45.000000)"
             fill-rule="nonzero" stroke="#FFFFFF">
            <path
              d="M28.0251555,6.77681292 L22.8185004,0 L20.9637552,1.41019311 L25.0914637,6.78246306 L9.98551994,6.78246306 L13.9998621,1.46459585 L12.2202753,0.0532323484 L7.04890771,6.7824227 L0,6.7824227 L0,14.9092548 L2.33331711,14.9092548 L3.42631267,26.4778266 C3.42631267,28.3981866 4.99632395,30 6.92634918,30 L28.0736508,30 C30.0036761,30 31.5736873,28.3981866 31.5736873,26.4778266 L32.6666829,14.9092548 L35,14.9092548 L35,6.78250341 L28.0251555,6.77681292 Z"
              id="path" stroke-width="0.838049866" fill="#D3D7DE"/>
            <path
              d="M28.0736914,27.6773504 L6.92634918,27.6773504 C6.28253423,27.6773504 5.75958922,27.1184712 5.75958922,26.4779073 L4.72361744,15.3032803 L30.3904301,15.3032803 L29.2404108,26.4779073 C29.2404108,27.1184712 28.7162895,27.6773504 28.0736914,27.6773504 Z"
              id="path" stroke-width="1.37679621" fill="#FFFFFF"/>
            <polygon id="path" stroke-width="1.43665691" fill="#FFFFFF"
                     points="32.6666829 12.5866051 2.33327655 12.5866051 2.33327655 9.10527413 32.6666423 9.10527413 32.6666423 12.5866051"/>
            <path
              d="M8.16654904,17.2298865 L10.4998662,17.2298865 L10.4998662,25.3568397 L8.16654904,25.3568397 L8.16654904,17.2298865 Z M24.500215,17.2298865 L26.8335321,17.2298865 L26.8335321,25.3568397 L24.500215,25.3568397 L24.500215,17.2298865 Z M16.3330575,17.2298865 L18.6669425,17.2298865 L18.6669425,25.3568397 L16.3330981,25.3568397 L16.3330575,17.2298865 Z"
              id="shape" stroke-width="0.838049866" fill="#D3D7DE"/>
          </g>
          <g id="group" transform="translate(19.074923, 0.000000)">
            <g id="bucket" transform="translate(3.000000, 21.000000)">
              <mask id="mask-2" fill="white">
                <use xlink:href="#path-1"/>
              </mask>
              <circle stroke="#E2E4E8" stroke-width="2" cx="32" cy="32" r="33"/>
              <g mask="url(#mask-2)" fill-rule="nonzero">
                <g
                  transform="translate(43.000000, 32.000000) rotate(-16.000000) translate(-43.000000, -32.000000) translate(14.000000, 7.000000)">
                  <path
                    d="M46.4416863,11.2946882 L37.813515,0 L34.7399373,2.35032186 L41.5801398,11.3041051 L16.547433,11.3041051 L23.1997715,2.44099308 L20.250742,0.0887205806 L11.6810471,11.3040378 L0,11.3040378 L0,24.848758 L3.86663978,24.848758 L5.67788957,44.129711 C5.67788957,47.330311 8.27962254,50 11.4779501,50 L46.5220499,50 C49.7203775,50 52.3221104,47.330311 52.3221104,44.129711 L54.1333602,24.848758 L58,24.848758 L58,11.3041724 L46.4416863,11.2946882 Z"
                    id="path" stroke="#F1F2F4" stroke-width="1.4" fill="#D3D7DE"/>
                  <path
                    d="M46.5221171,46.1289173 L11.4779501,46.1289173 C10.4110567,46.1289173 9.54446214,45.1974521 9.54446214,44.1298455 L7.8277089,25.5054671 L50.3612842,25.5054671 L48.4555379,44.1298455 C48.4555379,45.1974521 47.5869941,46.1289173 46.5221171,46.1289173 Z"
                    id="path" stroke="#FFFFFF" stroke-width="2.3" fill="#FFFFFF"/>
                  <polygon id="path" stroke="#FFFFFF" stroke-width="2.4" fill="#FFFFFF"
                           points="54.1333602 20.9776752 3.86657257 20.9776752 3.86657257 15.1754569 54.133293 15.1754569 54.133293 20.9776752"/>
                  <path
                    d="M13.5331384,28.7164775 L17.3997782,28.7164775 L17.3997782,42.2613995 L13.5331384,42.2613995 L13.5331384,28.7164775 Z M40.6003562,28.7164775 L44.466996,28.7164775 L44.466996,42.2613995 L40.6003562,42.2613995 L40.6003562,28.7164775 Z M27.0662096,28.7164775 L30.9337904,28.7164775 L30.9337904,42.2613995 L27.0662768,42.2613995 L27.0662096,28.7164775 Z"
                    id="shape" stroke="#FFFFFF" stroke-width="1.4" fill="#D3D7DE"/>
                </g>
              </g>
            </g>
            <circle id="oval" fill="#F1F2F4" cx="16" cy="9" r="9"/>
            <circle id="oval-bak" fill="#EAEBED" cx="5" cy="23" r="5"/>
          </g>
        </g>
      </g>
    </g>
  </g>
</svg>
