<svg viewBox="0 0 22 22" version="1.1" xmlns="http://www.w3.org/2000/svg">
  <g id="for-T" stroke="none" stroke-width="1" fill="none" fill-rule="evenodd" transform="translate(-2, -2)">
    <path
      d="M9.00652174,2 L20.4413043,2 C21.8820472,2 23.05,3.16795283 23.05,4.60869565 L23.05,19.3913043 C23.05,20.8320472 21.8820472,22 20.4413043,22 L7.15401337,22 L7.15401337,22 L4.22391304,22 C4.37316754,21.8044852 4.57268321,21.5777481 4.82246005,21.3197888 C5.07223689,21.0618295 5.25500645,20.825664 5.37076872,20.6112924 L6.39782609,12.4435286 L6.39782609,4.60869565 C6.39782609,3.16795283 7.56577891,2 9.00652174,2 Z"
      id="rect" fill="#1346FF"/>
    <rect id="rect" fill="#37DBFF" x="9.00652174" y="8.08695652" width="11.434783" height="2.60869565"
          rx="0.66"/>
    <rect id="rect" fill="#37DBFF" x="9.00652174" y="13.3043478" width="4" height="2.60869565" rx="0.66"/>
    <circle id="oval" fill="#37DBFF" cx="15.6586957" cy="14.6086957" r="1.30434783"/>
    <circle id="oval-2" fill="#37DBFF" cx="19.1369565" cy="14.6086957" r="1.30434783"/>
    <path
      d="M2.05,12.4347826 L6.39782609,12.4347826 L6.39782609,19.826087 C6.39782609,21.026706 5.42453206,22 4.22391304,22 C3.02329402,22 2.05,21.026706 2.05,19.826087 L2.05,12.4347826 L2.05,12.4347826 Z"
      id="rect" fill="#37DBFF"/>
  </g>
</svg>
