<svg viewBox="0 0 23 23" version="1.1" xmlns="http://www.w3.org/2000/svg">
  <g id="for-T" stroke="none" stroke-width="1" fill="none" fill-rule="evenodd" transform="translate(-2, -2)">
    <path
      d="M5.59756337,2.5 L18.2064584,2.5 C19.8777465,2.5 21.2325932,3.8548467 21.2325932,5.5261348 L21.2325932,18.7380599 C21.2325932,20.409348 19.8777465,21.7641947 18.2064584,21.7641947 L5.59756337,21.7641947 C3.92627527,21.7641947 2.57142857,20.409348 2.57142857,18.7380599 L2.57142857,5.5261348 C2.57142857,3.8548467 3.92627527,2.5 5.59756337,2.5 Z"
      id="rect" fill="#1346FF"/>
    <line x1="7.64484156" y1="8.58342991" x2="14.6488211" y2="8.58342991" id="path-5" stroke="#37DBFF" stroke-width="2.11829436"/>
    <line x1="7.64484156" y1="13.1460023" x2="10.6263054" y2="13.1460023" id="path-6" stroke="#37DBFF" stroke-width="2.11829436"/>
    <path
      d="M24.5714286,21.4600232 C24.5714286,21.2359502 24.5552892,21.013905 24.5391498,20.7928737 L24.5361236,20.7289977 C24.513974,20.4555749 24.4799818,20.1832522 24.4342438,19.9128042 C24.4271828,19.8763036 24.4241567,19.8387891 24.4170957,19.8012746 C24.3715347,19.5563451 24.3156692,19.313466 24.2496496,19.0732909 C24.2345189,19.0154983 24.2234231,18.9566918 24.206275,18.8999131 C24.1426217,18.6850372 24.0709525,18.472643 23.9914194,18.2631808 C23.9631755,18.1871379 23.9389664,18.1080533 23.9087051,18.0320104 C23.8330517,17.844438 23.7442851,17.6619351 23.6555184,17.4784183 C23.6121438,17.3881808 23.5738128,17.2959154 23.5274121,17.2056779 C23.4376367,17.0353418 23.3347482,16.8710892 23.233877,16.7058227 C23.1773891,16.6125435 23.1269536,16.5162225 23.0664309,16.424971 C22.9534551,16.254635 22.8273662,16.0913963 22.7032947,15.9281576 C22.6619375,15.8744206 22.6266326,15.8186559 22.5842667,15.7659328 L23.338783,15.0075319 L21.9124648,13.5738702 L21.1569398,14.3322711 C19.7331522,13.183414 17.9950246,12.4976688 16.1739045,12.3663094 C15.8481038,12.3402672 15.5211659,12.3314679 15.1944455,12.3399479 L15.0169123,14.3312573 C16.4853123,14.7616202 17.8493763,15.4923833 19.0235148,16.4776941 L13.4634964,22.0663384 L14.8898146,23.5 L20.449833,17.9113558 C21.4301702,19.0918711 22.1571906,20.463304 22.5852754,21.9396002 L24.5613414,21.6820684 C24.5633589,21.6080533 24.5562979,21.5340383 24.5562979,21.4590093 L24.5714286,21.4590093 L24.5714286,21.4600232 Z"
      id="path" fill="#37DBFF" fill-rule="nonzero"/>
  </g>
</svg>
