<svg viewBox="0 0 22 22" version="1.1" xmlns="http://www.w3.org/2000/svg">
  <g id="for-T" stroke="none" stroke-width="1" fill="none" fill-rule="evenodd" transform="translate(-2, -2)">
    <path
      d="M11.4283938,19.0572664 L17.9705338,12.4669662 C18.3553667,12.0793003 19.1250292,12.0793003 19.5098622,12.4669662 L22.2036861,15.1806208 L22.2036861,4.51982506 C22.2036861,3.16299776 21.0491906,2 19.7022753,2 L4.50141082,2 C3.15449886,2 2,3.16299435 2,4.51982506 L2,20.9956096 C2,22.3524369 3.15449548,23.5154346 4.50141082,23.5154346 L14.3146207,23.5154346 L11.4283803,20.6079471 C11.0435474,20.2202811 11.0435474,19.4449527 11.4283803,19.0572868 L11.4283938,19.0572664 Z"
      id="path" fill="#1346FF"/>
    <path
      d="M6.61799544,7.26430466 C6.61799544,6.87663874 7.00283178,6.68280578 7.19524826,6.68280578 L16.0463927,6.68280578 C16.4312256,6.68280578 16.6236421,6.8766384 16.6236421,7.26430466 L16.6236421,8.62113197 C16.6236421,8.81496459 16.2388091,9.00879789 16.0463927,9.00879789 L7.0028284,9.00879789 C6.81041226,9.00879789 6.61799544,8.62113197 6.61799544,8.42729901 L6.61799544,7.26430466 L6.61799544,7.26430466 Z"
      id="path" fill="#37DBFF"/>
    <path
      d="M7.19524826,14.4361139 C6.8104153,14.2422813 6.61799883,14.048448 6.61799883,13.8546151 L6.61799883,12.4977878 C6.61799883,12.3039551 6.81041497,12.1101218 7.19524826,12.1101218 L11.2359977,12.1101218 C11.6208306,12.1101218 11.8132471,12.3039545 11.8132471,12.6916207 L11.8132471,14.048448 C11.8132471,14.2422806 11.4284141,14.4361139 11.2359977,14.4361139 L7.19524826,14.4361139 Z"
      id="path" fill="#37DBFF"/>
    <path
      d="M22.5885427,22.1585801 L20.6643813,20.2202539 L21.8188768,19.0572595 C22.2037098,18.6695936 22.2037098,17.8942652 21.8188768,17.5065993 L19.317466,14.9867742 C18.9326331,14.5991083 18.1629705,14.5991083 17.7781376,14.9867742 L13.7373882,18.8634334 C13.3525552,19.2510993 13.3525552,20.0264277 13.7373882,20.4140937 L16.238799,22.9339187 C16.6236319,23.3215846 17.3932945,23.3215846 17.7781274,22.9339187 L18.9326229,21.7709244 L20.8567843,23.7092506 C21.2416172,24.0969165 22.0112798,24.0969165 22.3961127,23.7092506 C23.1657786,23.3215846 23.1657786,22.5462562 22.5885289,22.1585903 L22.5885427,22.1585801 Z"
      id="path" fill="#37DBFF"/>
  </g>
</svg>
