<svg viewBox="0 0 22 22" version="1.1" xmlns="http://www.w3.org/2000/svg">
  <g id="for-T" stroke="none" stroke-width="1" transform="translate(-2, -2)" fill="none" fill-rule="evenodd">
    <path
      d="M6.07692309,3 L17.6153846,3 C19.3147223,3 20.6923077,4.37758539 20.6923077,6.07692309 L20.6923077,17.4553846 C20.6923077,19.1547223 19.3147223,20.5323077 17.6153846,20.5323077 L6.07692309,20.5323077 C4.37758539,20.5323077 3,19.1547223 3,17.4553846 L3,6.07692309 C3,4.37758539 4.37758539,3 6.07692309,3 Z"
      id="path-2" fill="#1346FF"/>
    <path
      d="M8.63692309,7.57692309 L9.93538461,7.57692309 C10.3495982,7.57692309 10.6853846,7.24113665 10.6853846,6.82692309 C10.6853846,6.41270952 10.3495982,6.07692309 9.93538461,6.07692309 L6.84615385,6.07692309 C6.42131943,6.07692309 6.07692309,6.42131943 6.07692309,6.84615385 L6.07692309,9.93461539 C6.07692309,10.3488289 6.41270953,10.6846154 6.82692309,10.6846154 C7.24113664,10.6846154 7.57692309,10.3488289 7.57692309,9.93461539 L7.57692309,8.63615385 L15.3053846,16.3653846 L14.0061538,16.3653846 C13.6014975,16.3783489 13.2801698,16.710136 13.2801698,17.115 C13.2801698,17.519864 13.6014975,17.8516511 14.0061538,17.8646154 L17.0946154,17.8646154 C17.2986281,17.8646154 17.4942849,17.7835717 17.6385437,17.6393129 C17.7828024,17.4950542 17.8638462,17.2993973 17.8638462,17.0953846 L17.8638462,14.0061538 C17.8508817,13.6014976 17.5190946,13.2801701 17.1142308,13.2801701 C16.7093669,13.2801701 16.3775798,13.6014976 16.3646154,14.0061538 L16.3646154,15.3038462 L8.63692309,7.57692309 Z"
      id="path-1" fill="#37DBFF"/>
    <path
      d="M19.7469231,22.9984615 L8.49307691,22.9984615 C8.07886335,22.9984615 7.74307691,22.6626751 7.74307691,22.2484615 C7.74307691,21.834248 8.07886335,21.4984615 8.49307691,21.4984615 L19.7469231,21.4984615 C20.7124695,21.4971902 21.4948826,20.7147772 21.4961538,19.7492308 L21.4961538,8.4123077 C21.4961538,7.99809413 21.8319403,7.6623077 22.2461538,7.6623077 C22.6603674,7.6623077 22.9961538,7.99809413 22.9961538,8.4123077 L22.9961538,19.7492308 C22.9940345,21.5428528 21.5405451,22.9963422 19.7469231,22.9984615 L19.7469231,22.9984615 Z"
      id="path" fill="#37DBFF"/>
  </g>
</svg>
