<?xml version="1.0" encoding="UTF-8"?>
<svg viewBox="0 0 165 30" version="1.1" xmlns="http://www.w3.org/2000/svg"
     xmlns:xlink="http://www.w3.org/1999/xlink">
  <defs>
    <path
      d="M0,10.0312291 C1.78345804,8.7873092 3.3373961,7.99994886 4.66181417,7.66914809 C6.64844127,7.17294694 5.49046559,10.4180936 9.44858103,10.8155299 C13.4066965,11.2129661 17.2053782,8.0502809 19.7969922,8.33884059 C21.5247348,8.53121372 22.9765424,9.31045706 24.1524148,10.6765706 L11.9845723,20.761078 L0,10.0312291 Z"
      id="path-1"/>
  </defs>
  <g id="final" stroke="none" stroke-width="1" fill="none" fill-rule="evenodd">
    <g id="stake-stone" transform="translate(-39.000000, -20.000000)">
      <g id="group-11-bak-5" transform="translate(40.000000, 21.000000)">
        <g id="STAKESTONE-bak-4" transform="translate(35.211581, 8.000000)" fill="#06070A" fill-rule="nonzero">
          <path
            d="M11.0009835,8.81753707 C11.0009835,10.0468515 10.463753,11.0456695 9.38929188,11.813991 C8.3148308,12.5823125 6.8558106,12.9664732 5.01223128,12.9664732 C3.94641199,12.9664732 3.01742084,12.8756716 2.22525785,12.6940683 C1.43309486,12.5124651 0.691342246,12.2819686 0,12.002579 L0,9.01031593 L0.362954679,9.01031593 C1.04853574,9.54115624 1.81621369,9.94906512 2.66598854,10.2340426 C3.51576338,10.51902 4.33241141,10.6615087 5.11593262,10.6615087 C5.31757411,10.6615087 5.58258864,10.6447453 5.9109762,10.6112186 C6.23936377,10.5776918 6.50725889,10.5218139 6.71466156,10.4435848 C6.96815372,10.3430045 7.17699669,10.2172792 7.34119047,10.0664088 C7.50538426,9.91553836 7.58748115,9.69202665 7.58748115,9.39587363 C7.58748115,9.12207178 7.46793655,8.88598753 7.22884736,8.68762089 C6.98975816,8.48925424 6.63976615,8.33698689 6.17887132,8.23081883 C5.69493175,8.11906297 5.18362655,8.01429185 4.64495571,7.91650548 C4.10628488,7.81871911 3.60074086,7.69439072 3.12832366,7.54352031 C2.04522081,7.20266495 1.26602049,6.74027509 0.790722694,6.15635074 C0.3154249,5.57242639 0.0777760027,4.84741027 0.0777760027,3.98130239 C0.0777760027,2.81904148 0.61500654,1.87051365 1.68946761,1.13571889 C2.76392869,0.400924135 4.14517288,0.0335267569 5.8332002,0.0335267569 C6.68009445,0.0335267569 7.51690663,0.113152805 8.34363673,0.2724049 C9.17036683,0.431656995 9.88619412,0.631420589 10.4911186,0.87169568 L10.4911186,3.74661509 L10.1368057,3.74661509 C9.618299,3.344294 8.98312831,3.00762949 8.23129361,2.73662153 C7.47945892,2.46561358 6.71178097,2.33010961 5.92825976,2.33010961 C5.65172286,2.33010961 5.37662626,2.34826993 5.10296995,2.38459059 C4.82931365,2.42091124 4.56573942,2.4893617 4.31224726,2.58994197 C4.08756103,2.67375887 3.89456132,2.80088115 3.73324813,2.97130883 C3.57193494,3.14173651 3.49127834,3.33591231 3.49127834,3.55383623 C3.49127834,3.88351601 3.62090501,4.13636364 3.88015835,4.31237911 C4.1394117,4.48839458 4.62911245,4.64904363 5.34926063,4.79432624 C5.82167783,4.88931872 6.27537118,4.9815173 6.71034067,5.07092199 C7.14531017,5.16032667 7.61340648,5.28325811 8.11462961,5.43971631 C9.09979231,5.75263271 9.82714197,6.17870191 10.2966786,6.71792392 C10.7662152,7.25714593 11.0009835,7.95701698 11.0009835,8.81753707 Z"
            id="path"/>
          <polygon id="path"
                   points="23.3414426 2.67375887 19.3230158 2.67375887 19.3230158 12.7401676 16.004573 12.7401676 16.004573 2.67375887 11.9861462 2.67375887 11.9861462 0.259832366 23.3414426 0.259832366"/>
          <path
            d="M37.2287799,12.7401676 L33.797994,12.7401676 L32.9078909,10.2172792 L28.1376294,10.2172792 L27.2475263,12.7401676 L23.9031582,12.7401676 L28.6561361,0.259832366 L32.475802,0.259832366 L37.2287799,12.7401676 Z M32.1042055,7.92907801 L30.5227602,3.45325596 L28.9413148,7.92907801 L32.1042055,7.92907801 Z"
            id="形状"/>
          <polygon id="path"
                   points="51.090192 12.7401676 47.0199145 12.7401676 43.1743233 7.74468085 42.3965632 8.65828498 42.3965632 12.7401676 39.0781204 12.7401676 39.0781204 0.259832366 42.3965632 0.259832366 42.3965632 5.90909091 46.9939892 0.259832366 50.8395804 0.259832366 45.8100656 6.03481625"/>
          <polygon id="path"
                   points="62.030683 12.7401676 52.723488 12.7401676 52.723488 0.259832366 62.030683 0.259832366 62.030683 2.67375887 52.723488 2.67375887 52.723488 4.80053706 61.5985941 4.827853 61.5985941 7.2417795 52.723488 7.2417795 52.723488 10.3262411 62.030683 10.3262411"/>
          <path
            d="M75.114335,8.81753707 C75.114335,10.0468515 74.5771045,11.0456695 73.5026434,11.813991 C72.4281823,12.5823125 70.9691621,12.9664732 69.1255828,12.9664732 C68.0597635,12.9664732 67.1307724,12.8756716 66.3386094,12.6940683 C65.5464464,12.5124651 64.8046938,12.2819686 64.1133515,12.002579 L64.1133515,9.01031593 L64.4763062,9.01031593 C65.1618873,9.54115624 65.9295652,9.94906512 66.7793401,10.2340426 C67.6291149,10.51902 68.4457629,10.6615087 69.2292841,10.6615087 C69.4309256,10.6615087 69.6959402,10.6447453 70.0243277,10.6112186 C70.3527153,10.5776918 70.6206104,10.5218139 70.8280131,10.4435848 C71.0815052,10.3430045 71.2903482,10.2172792 71.454542,10.0664088 C71.6187358,9.91553836 71.7008327,9.69202665 71.7008327,9.39587363 C71.7008327,9.12207178 71.5812881,8.88598753 71.3421989,8.68762089 C71.1031097,8.48925424 70.7531177,8.33698689 70.2922228,8.23081883 C69.8082833,8.11906297 69.2969781,8.01429185 68.7583072,7.91650548 C68.2196364,7.81871911 67.7140924,7.69439072 67.2416752,7.54352031 C66.1585723,7.20266495 65.379372,6.74027509 64.9040742,6.15635074 C64.4287764,5.57242639 64.1911275,4.84741027 64.1911275,3.98130239 C64.1911275,2.81904148 64.7283581,1.87051365 65.8028191,1.13571889 C66.8772802,0.400924135 68.2585244,0.0335267569 69.9465517,0.0335267569 C70.793446,0.0335267569 71.6302582,0.113152805 72.4569883,0.2724049 C73.2837184,0.431656995 73.9995456,0.631420589 74.6044701,0.87169568 L74.6044701,3.74661509 L74.2501572,3.74661509 C73.7316505,3.344294 73.0964798,3.00762949 72.3446451,2.73662153 C71.5928104,2.46561358 70.8251325,2.33010961 70.0416113,2.33010961 C69.7650744,2.33010961 69.4899778,2.34826993 69.2163215,2.38459059 C68.9426652,2.42091124 68.6790909,2.4893617 68.4255988,2.58994197 C68.2009126,2.67375887 68.0079128,2.80088115 67.8465997,2.97130883 C67.6852865,3.14173651 67.6046299,3.33591231 67.6046299,3.55383623 C67.6046299,3.88351601 67.7342565,4.13636364 67.9935099,4.31237911 C68.2527632,4.48839458 68.742464,4.64904363 69.4626122,4.79432624 C69.9350294,4.88931872 70.3887227,4.9815173 70.8236922,5.07092199 C71.2586617,5.16032667 71.726758,5.28325811 72.2279811,5.43971631 C73.2131438,5.75263271 73.9404935,6.17870191 74.4100301,6.71792392 C74.8795667,7.25714593 75.114335,7.95701698 75.114335,8.81753707 Z M87.4547941,2.67375887 L83.4363673,2.67375887 L83.4363673,12.7401676 L80.1179245,12.7401676 L80.1179245,2.67375887 L76.0994977,2.67375887 L76.0994977,0.259832366 L87.4547941,0.259832366 L87.4547941,2.67375887 Z M101.964339,6.50419084 C101.964339,8.49344509 101.376699,10.0733935 100.201417,11.2440361 C99.0261349,12.4146787 97.4014807,13 95.3274539,13 C93.2591884,13 91.6374147,12.4146787 90.4621329,11.2440361 C89.2868511,10.0733935 88.6992101,8.49344509 88.6992101,6.50419084 C88.6992101,4.49817322 89.2868511,2.91263701 90.4621329,1.74758221 C91.6374147,0.582527402 93.2591884,0 95.3274539,0 C97.3899583,0 99.011732,0.582527402 100.192775,1.74758221 C101.373818,2.91263701 101.964339,4.49817322 101.964339,6.50419084 Z M97.5656744,9.66408769 C97.8883008,9.28411777 98.12739,8.8356974 98.282942,8.31882656 C98.438494,7.80195573 98.51627,7.19428326 98.51627,6.49580916 C98.51627,5.74704492 98.4269717,5.11003654 98.2483749,4.58478401 C98.0697782,4.05953149 97.8364502,3.63485923 97.5483909,3.31076725 C97.2545704,2.97549968 96.9161008,2.73243069 96.532982,2.58156028 C96.1498631,2.43068988 95.7509011,2.35525467 95.3360957,2.35525467 C94.9155292,2.35525467 94.5194477,2.42789598 94.1478512,2.57317859 C93.7762548,2.71846121 93.4349045,2.9587363 93.1238005,3.29400387 C92.8357412,3.60692027 92.6009729,4.03857726 92.4194956,4.58897485 C92.2380183,5.13937245 92.1472796,5.77777778 92.1472796,6.50419084 C92.1472796,7.24736729 92.2351377,7.88018483 92.4108538,8.40264346 C92.58657,8.92510208 92.8184577,9.35117129 93.106517,9.68085106 C93.3945762,10.0105308 93.7316056,10.2535998 94.117605,10.410058 C94.5036044,10.5665162 94.909768,10.6447453 95.3360957,10.6447453 C95.7624234,10.6447453 96.168587,10.5651193 96.5545864,10.4058672 C96.9405858,10.2466151 97.2776152,9.99935525 97.5656744,9.66408769 Z M116.197348,12.7401676 L112.99989,12.7401676 L107.538286,4.17408124 L107.538286,12.7401676 L104.49638,12.7401676 L104.49638,0.259832366 L108.462957,0.259832366 L113.155442,7.40941328 L113.155442,0.259832366 L116.197348,0.259832366 L116.197348,12.7401676 Z M128.788419,12.7401676 L119.481224,12.7401676 L119.481224,0.259832366 L128.788419,0.259832366 L128.788419,2.67375887 L119.481224,2.67375887 L119.481224,4.827853 L128.35633,4.827853 L128.35633,7.2417795 L119.481224,7.2417795 L119.481224,10.3262411 L128.788419,10.3262411 L128.788419,12.7401676 Z"
            id="shape-combine"/>
        </g>
        <g id="group-3">
          <g id="path" transform="translate(0.357721, 7.238922)">
            <line x1="11.4958842" y1="0" x2="10.0549047" y2="11.0281634" stroke="#06070A" stroke-width="1.50509537"/>
            <mask id="mask-2" fill="white">
              <use xlink:href="#path-1"/>
            </mask>
            <use id="mask" fill="#06070A" fill-rule="nonzero" xlink:href="#path-1"/>
            <line x1="10.0549047" y1="10.380539" x2="11.9845723" y2="20.761078" stroke="#FFF3D1"
                  stroke-width="1.50509537" mask="url(#mask-2)"/>
          </g>
          <polygon id="path-21" stroke="#06070A" stroke-width="1.50509537"
                   points="12.3361781 0 5.54047519 5.43074927 2.19278713e-14 16.852436 12.3361781 28 24.6885883 17.7378562 18.166735 3.73489428"/>
          <polyline id="path-22" stroke="#06070A" stroke-width="1.50509537"
                    points="5.54047519 5.43074927 11.7080994 7.23892198 18.166735 3.73489428"/>
        </g>
      </g>
    </g>
  </g>
</svg>
