<svg xmlns="http://www.w3.org/2000/svg" viewBox="0 0 48 48" fill="none">
  <path fill-rule="evenodd" clip-rule="evenodd"
        d="M11.1199 41.2109C5.90117 37.2978 2.51515 31.0435 2.51515 24C2.51515 12.1435 12.1013 2.52391 23.9166 2.52391C33.6717 2.52391 44.3237 8.37391 46.8974 17.3348C44.0183 7.32391 34.8221 0 23.9166 0C10.7105 0 0 10.7478 0 24C0 37.2522 10.7105 48 23.9166 48C37.1228 48 47.8333 37.2522 47.8333 24V22.7348H46.5204C46.4814 22.7348 46.4229 22.7348 46.345 22.7348C46.189 22.7348 45.968 22.7283 45.6821 22.7152C45.1166 22.6957 44.3367 22.6565 43.4594 22.5783C41.6656 22.4217 39.6184 22.1152 38.2276 21.5543C35.9854 20.6543 34.7181 19.4674 33.2753 18.0717L33.1908 17.9935C31.7415 16.5978 30.1168 15.0261 27.2896 13.6957C24.508 12.3848 21.434 12.5935 19.1788 13.063C18.035 13.2978 17.0471 13.6109 16.3517 13.8652C16.0007 13.9891 15.7213 14.1065 15.5263 14.1848C14.389 14.6674 13.2841 15.2348 12.1728 15.763C12.1728 15.763 14.363 16.363 15.4418 16.7022C15.4808 16.7152 15.5393 16.7348 15.6238 16.7609C15.7863 16.813 16.0202 16.8978 16.2997 17.0152C16.8716 17.25 17.619 17.5957 18.3599 18.0783C19.5297 18.8283 20.4981 19.7804 20.8946 20.9413C18.4184 21.2674 16.0917 22.363 14.35 23.387C13.2971 24.0065 12.4197 24.6326 11.8023 25.0957C11.4969 25.3304 11.2499 25.5261 11.0809 25.663C10.938 25.7804 8.70227 27.7565 8.70227 27.7565C8.70227 27.7565 11.5879 28.063 13.0112 28.35C13.96 28.5391 15.2339 28.8522 16.5727 29.3152C17.9115 29.7848 19.2633 30.3978 20.3876 31.187C21.512 31.9761 22.3373 32.8826 22.7403 33.9261C23.9231 36.9652 22.7598 39.9196 20.4266 41.5826C18.1194 43.2261 14.6164 43.6174 11.1134 41.2043L11.1199 41.2109ZM19.2828 44.9674C20.2251 44.6609 21.1025 44.2109 21.8954 43.65C25.067 41.387 26.7372 37.2391 25.093 33.013C24.4431 31.35 23.2082 30.0848 21.8369 29.1196C20.4591 28.1544 18.8798 27.45 17.411 26.9348C16.4492 26.5957 15.5133 26.3348 14.7009 26.1391C14.9934 25.95 15.2988 25.7543 15.6303 25.5587C17.567 24.4174 20.0107 23.3674 22.3503 23.3674C25.8793 23.3674 28.505 24.4565 31.0136 25.6174C31.2411 25.7217 31.4686 25.8326 31.7025 25.937C33.9447 26.9935 36.2974 28.1022 39.0335 28.1022C41.7696 28.1022 43.7518 27.3522 45.1751 26.5696C43.9078 37.213 34.8806 45.4696 23.9296 45.4696C22.3373 45.4696 20.7841 45.2935 19.2958 44.9674H19.2828ZM42.4455 25.0239C41.5031 25.3435 40.3593 25.5783 39.027 25.5783C36.8823 25.5783 35.0366 24.7174 32.6969 23.6217C32.4889 23.5239 32.2809 23.4261 32.0665 23.3283C29.7203 22.2391 27.0102 21.0848 23.4812 20.8761C23.0068 18.5348 21.239 16.9304 19.7182 15.9522C19.5492 15.8413 19.3803 15.737 19.2113 15.6391C19.3608 15.6065 19.5167 15.5674 19.6792 15.5348C21.7199 15.1109 24.1506 15.0065 26.2108 15.9848C28.6545 17.1391 30.0388 18.4696 31.4751 19.8522L31.5271 19.8978C33.0023 21.3196 34.5686 22.813 37.2917 23.9087C38.806 24.5152 40.7687 24.8413 42.4455 25.0239Z"
        fill="url(#paint0_linear_362_1381)"/>
  <defs>
    <linearGradient id="paint0_linear_362_1381" x1="-0.428939" y1="24.4435" x2="48.2623" y2="23.5562"
                    gradientUnits="userSpaceOnUse">
      <stop stop-color="#29CCB9"/>
      <stop offset="0.49" stop-color="#0091FF"/>
      <stop offset="1" stop-color="#FF66B7"/>
    </linearGradient>
  </defs>
</svg>
