<?xml version="1.0" encoding="UTF-8"?>
<svg viewBox="0 0 169 42" version="1.1" xmlns="http://www.w3.org/2000/svg">
  <g id="ATcapital">
    <g id="group" transform="translate(51.567236, 0.006419)" fill="#535456" fill-rule="nonzero">
      <path
        d="M55.496046,24.3764328 C54.2465558,23.2338377 52.3916424,22.6240257 50.0150346,22.6240257 L44.5919892,22.6240257 C44.3375827,22.4699679 44.0541931,22.3544246 43.7482612,22.2966529 C42.3441948,22.0238423 40.9819928,22.9449794 40.7082643,24.3539661 C40.4377561,25.7533242 41.3426704,27.1045392 42.7306351,27.3933975 L44.743345,30.1921137 L48.5175785,30.1921137 L45.7577507,26.5428702 L49.8153738,26.5171939 C50.8265592,26.5171939 51.5479144,26.9633196 51.9343547,27.6918845 C52.1565579,28.1059147 52.2724899,28.6130215 52.2724899,29.1811096 C52.2724899,30.8019257 51.3482536,31.6749198 49.7606281,31.6749198 C47.9830027,31.6749198 43.6258885,31.6620816 41.8611445,31.6813388 L41.8611445,40.6455754 L47.1972408,40.6455754 L47.1972408,35.7863365 L50.0182549,35.7863365 C54.6619791,35.7863365 57.3284171,33.3182027 57.3284171,29.0270518 C57.3284171,27.0339294 56.6907906,25.4644658 55.4992664,24.3764328 L55.496046,24.3764328 Z M44.5275825,25.0953691 C44.3923284,25.7982577 43.7128375,26.260431 43.007584,26.1224209 C42.3055508,25.9844108 41.8450428,25.303989 41.9835172,24.6011004 C42.1187713,23.8982118 42.7982622,23.4360385 43.5035157,23.5740486 C44.2055489,23.7120587 44.6660569,24.3924805 44.5275825,25.0953691 Z"
        id="shape"/>
      <path
        d="M31.958612,22.607978 L26.5323463,22.607978 L18.9484556,40.6455754 L24.3747213,40.6455754 L25.4406525,37.7634113 L32.6187808,37.7634113 L33.6589493,40.6455754 L39.2880962,40.6455754 L31.958612,22.607978 L31.958612,22.607978 Z M26.9123459,33.8509858 L29.0925132,27.958276 L31.2243755,33.8509858 L26.9123459,33.8509858 Z"
        id="shape"/>
      <path
        d="M95.6214295,22.607978 L90.1951638,22.607978 L82.6112731,40.6455754 L88.0375388,40.6455754 L89.10347,37.7634113 L96.2815984,37.7634113 L97.3217668,40.6455754 L102.950914,40.6455754 L95.6214295,22.607978 Z M90.5751634,33.8509858 L92.7553307,27.958276 L94.887193,33.8509858 L90.5751634,33.8509858 Z"
        id="shape"/>
      <path
        d="M36.6377599,15.6721687 C36.3543703,15.4089867 36.0774214,15.1490142 35.8069132,14.9018799 C35.4043713,14.5295736 35.0147106,14.173315 34.6379314,13.8363136 C35.2433545,12.9633196 35.7457269,11.9619441 36.1482688,10.8899587 L34.1999657,9.50664833 L32.9891195,8.64649243 L32.9504754,8.6176066 C32.9440348,8.6432829 32.9343737,8.66895919 32.9279331,8.69784503 C32.6767469,9.61577258 32.3353913,10.4630903 31.919968,11.2173315 C31.6752225,10.9734067 31.440138,10.7391105 31.2147145,10.5080238 C30.6286134,9.91104998 30.106919,9.35580009 29.6528516,8.87116002 C31.6913241,7.82164145 33.7072543,6.52498854 33.7072543,4.07611188 C33.7072543,2.77945896 33.0406448,1.68500688 31.929629,0.959651536 C31.3081042,0.555249885 30.548105,0.263182027 29.685055,0.118752866 C29.4628518,0.0802384227 29.234208,0.0513525906 28.9991235,0.0320953691 C28.793022,0.0160476845 28.5837001,0.00641907382 28.3679377,0.00641907382 C25.1443816,0.00641907382 23.105909,1.7042641 23.105909,4.37780834 C23.105909,5.60064191 23.4826883,6.74965612 24.4906534,8.2003668 C22.7033671,9.19853278 21.1415042,10.4983952 21.1415042,12.7964237 C21.1415042,13.2008253 21.1930296,13.5891793 21.283199,13.958276 C21.3089617,14.0609812 21.3379447,14.1604768 21.3701481,14.256763 C21.3926904,14.3273728 21.4152328,14.3979826 21.4377751,14.4653829 C22.213876,16.5772581 24.4713314,17.9637781 27.3631929,17.9637781 C29.1247166,17.9637781 30.7864098,17.389271 32.2226795,16.3654287 C32.9536958,17.0651077 33.733017,17.8129298 34.5896263,18.6121045 L37.1594543,16.1632279 C36.9823358,15.996332 36.811658,15.8358551 36.6377599,15.6753783 L36.6377599,15.6721687 Z M28.419463,2.82118294 C29.1569199,2.82118294 29.6625126,3.27051811 29.7172583,3.98945438 C29.7204787,4.0343879 29.7269193,4.07290234 29.7269193,4.11783586 C29.7269193,4.99724897 29.1343776,5.63594681 28.2487852,6.21045392 C28.1006498,6.30674003 27.949294,6.3998166 27.7882772,6.49289317 C27.2601422,5.66804218 27.057261,4.99403943 27.057261,4.34571298 C27.057261,3.44704264 27.5596334,2.82118294 28.4162427,2.82118294 L28.419463,2.82118294 Z M27.5628537,14.4589638 C27.1699728,14.4589638 26.8060748,14.3851444 26.4904819,14.2503439 C25.753025,13.9358093 25.2699747,13.2842733 25.2699747,12.4112792 C25.2699747,11.6634571 25.724042,11.08895 26.4518379,10.5882623 C26.7899731,10.9541495 27.1570914,11.3360844 27.5531927,11.7469051 C28.1618362,12.3759743 28.8477677,13.0628152 29.6238686,13.8363136 C28.9701404,14.2342962 28.2648869,14.4621733 27.5596334,14.4621733 L27.5628537,14.4589638 Z"
        id="shape"/>
      <rect id="rect" x="60.3523124" y="22.607978" width="5.18474056" height="18.0375974"/>
      <polygon id="path"
               points="117.432764 40.6327373 117.432764 36.434663 111.217516 36.4154058 109.900398 36.4089867 109.900398 22.607978 105.002268 22.607978 105.002268 40.6455754 117.432764 40.6455754"/>
      <path
        d="M10.7237181,40.6455754 C13.4706645,40.6455754 16.4526954,39.3104081 18.4203205,37.2434663 L16.4526954,35.2054104 L15.3094762,34.0210912 C14.0664266,35.256763 12.382191,36.0623567 10.9813449,36.0623567 C10.0989729,36.0623567 9.29388898,35.8055938 8.62083881,35.3626777 C7.41965358,34.5699221 6.64999333,33.1673544 6.64999333,31.5048143 C6.64999333,28.9115085 8.51778807,26.9697387 10.9781246,26.9697387 C12.4820214,26.9697387 14.166257,27.9005044 15.3062558,29.3127006 L18.4074392,25.7436956 L18.4171002,25.7340669 C16.5750681,23.8179734 13.6477829,22.6111875 10.9008365,22.6111875 C5.2781303,22.6111875 1.13033785,26.4144888 1.13033785,31.5529574 C1.13033785,33.6776708 1.80660836,35.5777166 2.97881057,37.086199 C4.68558852,39.2815222 7.4486366,40.6455754 10.7204977,40.6455754 L10.7237181,40.6455754 Z"
        id="path"/>
      <polygon id="path"
               points="78.8563616 26.8253095 83.9316107 26.8253095 83.9316107 22.607978 68.6092532 22.607978 68.6092532 26.8253095 73.6587397 26.8253095 73.6587397 27.9807428 73.6587397 40.6455754 78.8563616 40.6455754"/>
      <polygon id="path"
               points="47.8477486 4.2173315 52.9197774 4.2173315 52.9197774 0 37.6070809 0 37.6070809 4.2173315 42.6533471 4.2173315 42.6533471 5.37276479 42.6533471 18.0279688 47.8477486 18.0279688"/>
      <path
        d="M12.6849025,0 L7.39389089,0 L0,18.0375974 L5.30389299,18.0087116 L6.33118009,15.1554333 L13.3289697,15.1554333 L14.3433754,18.0375974 L19.8340479,18.0375974 L12.6881229,0 L12.6849025,0 Z M9.30032966,11.5864282 L7.6740601,11.5864282 L9.7994817,5.69371848 L10.627108,8.0430995 L11.8765983,11.5864282 L9.30032966,11.5864282 Z"
        id="shape"/>
    </g>

    <g id="group">
      <g transform="translate(5.255588, 3.597891)" fill="#B2B2B2" fill-rule="nonzero" id="path">
        <polygon points="33.9230168 0 0.966100726 0 3.43287791 2.39752407 33.9230168 2.39752407"/>
        <polygon points="4.71135121 8.66574966 0 8.66574966 2.41203148 11.0632737 7.18134873 11.0632737"/>
        <polygon
          points="13.5576135 8.66574966 9.8896511 8.66574966 12.3596486 11.0632737 13.5543932 11.0632737"/>
        <polygon
          points="37.5587759 0 37.5523352 19.7579092 37.5458945 35.5071068 37.5458945 35.519945 37.5458945 35.519945 33.9681015 37.0605227 36.7987767 38.4021091 39.986909 36.8390646 39.986909 3.02338377"/>
        <polyline
          points="13.5833762 27.2746447 16.2111702 28.69326 19.5893024 27.1173773 19.5860821 26.870243 19.5957431 23.1118753 17.1740506 20.7624943 17.1740506 20.7624943 17.1676099 25.7340669"/>
        <polygon
          points="19.5957431 18.0857405 19.5957431 11.6313618 17.1676099 8.66574966 17.1804912 15.7427785"/>
      </g>

      <polygon id="path" fill="#535456" fill-rule="nonzero"
               points="22.4231979 29.3319578 22.4296385 24.3603851 18.8099811 20.8459422 18.8099811 25.7372765"/>

      <g fill="#434446" fill-rule="nonzero">
        <polygon id="path"
                 points="22.4231979 29.3319578 18.8099811 25.7372765 7.66761943 14.6611646 5.25558795 12.2636405 4.93677471
                 12.2636405 0 12.2636405 18.8389642 30.8725355 22.4231979 29.3319578"/>
        <polygon id="shape"
                 points="39.8580956 0.00641907382 2.56982793 0.00641907382 2.56982793 0.0513525906 2.55050592 0.0320953691
                 1.31067665 3.88353966 6.26677338 8.67537827 11.4482936 8.67537827 8.68846586 5.99541495 6.21846834 3.59789088
                 39.1753844 3.59789088 39.1753844 35.6354883 24.8481107 21.6836314 22.4328589 19.3374599 18.8099811 15.8198074
                 17.6152366 14.6579551 15.145239 12.260431 9.96371882 12.260431 12.4337163 14.6579551 18.8067608 20.8427327
                 22.4264182 24.3539661 24.8481107 26.7033471 39.2236895 40.6519945 39.2236895 40.6519945 42.8014825 39.1114168
                 42.8014825 23.349381 42.8111435 3.5914718 39.8548753 0"/>
      </g>

      <polygon id="path" fill="#535456" fill-rule="nonzero"
               points="18.8099811 15.8198074 22.4360792 19.3406694 22.4231979 12.2636405 19.489472 8.67537827 11.4482936
               8.67537827 6.26677338 8.67537827 1.15610054 8.67537827 0 12.2636405 4.93677471 12.2636405 5.25558795 12.2636405
               9.96693916 12.2636405 9.96693916 12.2636405 15.145239 12.2636405 18.8132015 12.2636405 18.8099811 14.6611646"/>
    </g>
  </g>
</svg>
