<svg xmlns="http://www.w3.org/2000/svg" viewBox="0 0 101 100" fill="none">
  <g clip-path="url(#clip0_39_128)">
    <path
      d="M0 0.80505C0.000341967 0.670597 0.0343545 0.538372 0.0989329 0.420442C0.163511 0.302513 0.256599 0.202637 0.369698 0.12993C0.482797 0.0572236 0.612305 0.0140026 0.746402 0.00421236C0.880498 -0.00557789 1.01491 0.0183745 1.13737 0.0738831L21.0783 9.10638C21.2195 9.17137 21.339 9.2755 21.4228 9.40641C21.5066 9.53732 21.5511 9.68951 21.551 9.84493V59.7194C21.5214 68.4934 35.0886 80.5022 50.2216 80.5022C62.2157 80.5022 78.9217 69.3206 78.9217 59.7489V33.0355C78.9217 30.7164 77.4446 26.0635 71.743 26.0635H42.4151C42.3094 26.0635 42.2047 26.0427 42.107 26.0023C42.0093 25.9618 41.9206 25.9025 41.8458 25.8278C41.7711 25.753 41.7118 25.6643 41.6713 25.5666C41.6309 25.4689 41.61 25.3642 41.61 25.2585V10.1256C41.61 10.0199 41.6309 9.91518 41.6713 9.81751C41.7118 9.71984 41.7711 9.6311 41.8458 9.55635C41.9206 9.48159 42.0093 9.42229 42.107 9.38184C42.2047 9.34138 42.3094 9.32056 42.4151 9.32056H80.192C80.2982 9.32025 80.4034 9.30022 80.5022 9.26148L99.3279 1.41805C99.4499 1.3671 99.5826 1.34699 99.7142 1.35949C99.8459 1.37199 99.9724 1.41672 100.083 1.48972C100.193 1.56272 100.283 1.66176 100.346 1.77807C100.409 1.89438 100.442 2.02438 100.443 2.1566V59.7194C100.443 75.6795 80.5022 98.1906 50.2216 100C21.5214 98.2275 0 76.4771 0 59.7194V0.80505Z"
      fill="#14AE86"/>
    <path
      d="M61.3737 42.2156C61.3737 42.1093 61.3526 42.004 61.3117 41.9059C61.2708 41.8077 61.2108 41.7186 61.1353 41.6438C61.0598 41.5689 60.9701 41.5098 60.8716 41.4698C60.7731 41.4297 60.6676 41.4096 60.5613 41.4106H39.8818C39.6683 41.4106 39.4635 41.4954 39.3126 41.6464C39.1616 41.7974 39.0768 42.0021 39.0768 42.2156V52.5554C39.0768 55.5151 40.2525 58.3535 42.3453 60.4464C44.4382 62.5392 47.2766 63.7149 50.2363 63.7149C53.196 63.7149 56.0345 62.5392 58.1273 60.4464C60.2201 58.3535 61.3958 55.5151 61.3958 52.5554L61.3737 42.2156Z"
      fill="#14AE86"/>
  </g>
  <defs>
    <clipPath id="clip0_39_128">
      <rect width="101" height="100" fill="white"/>
    </clipPath>
  </defs>
</svg>
