<svg viewBox="0 0 11.90625 9.5250003" xmlns="http://www.w3.org/2000/svg">
  <path
    d="M 2.8924237,4.429001e-6 A 2.8948062,2.8948062 0 1 0 5.7896114,2.8971924 2.898775,2.898775 0 0 0 2.8924237,4.429001e-6 Z m 0,4.603749970999 a 1.70815,1.70815 0 1 1 1.70815,-1.707885 1.7137062,1.7137062 0 0 1 -1.70815,1.707885 z m 8.5338703,-2.12725 a 2.4368125,2.4368125 0 0 1 -0.304271,1.18454 3.3250187,3.3250187 0 0 0 -1.039283,-0.572823 1.3043958,1.3043958 0 0 0 0.154516,-0.611717 1.2887854,1.2887854 0 0 0 -2.5775696,0 1.2504208,1.2504208 0 0 0 0.154516,0.611717 3.3292521,3.3292521 0 0 0 -1.039548,0.572823 A 2.4735896,2.4735896 0 0 1 8.9492654,4.429001e-6 2.479675,2.479675 0 0 1 11.426294,2.4765044 Z M 8.9492654,3.4787464 A 2.8948062,2.8948062 0 1 0 11.84169,6.3764634 2.9006271,2.9006271 0 0 0 8.9492654,3.4787464 Z m 0,4.600575 A 1.7057687,1.7057687 0 1 1 10.65715,6.3764634 1.7078854,1.7078854 0 0 1 8.9492654,8.0793214 Z M 5.3694528,6.7913294 a 2.4778229,2.4778229 0 0 1 -4.95564578,0 H 1.6028445 a 1.2887854,1.2887854 0 1 0 2.5775708,0 z"
    fill="#cda146"
    id="path1414"
    style="stroke-width:0.264583"/>
</svg>
