<svg
  viewBox="0 0 960 960"
  version="1.1"
  xmlns="http://www.w3.org/2000/svg"
>
  <path
    d="M 480,0 C 215.04,0 0,215.3271 0,480.64085 0,745.95461 215.04,960 480,960 744.96,960 960,744.6729 960,479.35915 960,214.04539 744.96,0 480,0 Z m 126.72,584.45928 c -32,0 -111.36,1.28171 -111.36,1.28171 L 459.52,724.16555 H 311.04 L 345.6,588.30441 H 113.92 l 37.12,-111.50868 c 0,0 403.2,1.28171 436.48,0 33.28,-1.28171 84.48,-8.97196 85.76,-75.62083 1.28,-91.00134 -138.24,-85.8745 -149.76,-5.12684 -7.68,51.26836 -7.68,64.08545 -7.68,64.08545 H 384 L 409.6,339.65287 H 195.84 l 32,-112.79039 c 0,0 313.6,1.28171 372.48,1.28171 58.88,0 216.32,15.38051 216.32,160.21362 0,158.93191 -152.32,196.10147 -209.92,196.10147 z"
    fill="#1a72fe"/>
</svg>
