<svg viewBox="0 0 224 224" fill="none" version="1.1" xmlns="http://www.w3.org/2000/svg">
  <rect width="224" height="224" fill="#ffffff" id="rect9" x="0" y="0"/>
  <path
    d="M 144.382,74.667 H 79.673 c -2.749,0 -4.978,2.228 -4.978,4.977 v 64.71 c 0,2.749 2.229,4.978 4.978,4.978 h 64.709 c 2.749,0 4.978,-2.229 4.978,-4.978 v -64.71 c 0,-2.749 -2.229,-4.977 -4.978,-4.977 z"
    fill="#000000"
    id="path11"/>
  <path
    d="M 69.687,0 H 4.978 C 2.229,0 0,2.228 0,4.978 v 64.709 c 0,2.749 2.229,4.978 4.978,4.978 h 64.709 c 2.75,0 4.978,-2.229 4.978,-4.978 V 4.978 C 74.665,2.228 72.437,0 69.687,0 Z"
    fill="#000000"
    id="path13"/>
  <path
    d="m 219.017,0 h -64.71 c -2.749,0 -4.978,2.228 -4.978,4.978 v 64.709 c 0,2.749 2.229,4.978 4.978,4.978 h 64.71 c 2.749,0 4.977,-2.229 4.977,-4.978 V 4.978 C 223.994,2.228 221.766,0 219.017,0 Z"
    fill="#000000"
    id="path15"/>
  <path
    d="M 69.687,149.328 H 4.978 C 2.229,149.328 0,151.556 0,154.305 v 64.71 c 0,2.749 2.229,4.978 4.978,4.978 h 64.709 c 2.75,0 4.978,-2.229 4.978,-4.978 v -64.71 c 0,-2.749 -2.228,-4.977 -4.978,-4.977 z"
    fill="#000000"
    id="path17"/>
  <path
    d="m 219.017,149.328 h -64.71 c -2.749,0 -4.978,2.228 -4.978,4.977 v 64.71 c 0,2.749 2.229,4.978 4.978,4.978 h 64.71 c 2.749,0 4.977,-2.229 4.977,-4.978 v -64.71 c 0,-2.749 -2.228,-4.977 -4.977,-4.977 z"
    fill="#000000"
    id="path19"/>
</svg>
