<svg xmlns="http://www.w3.org/2000/svg" viewBox="0 0 56 56" fill="none">
  <rect x="0" y="0" rx="5" ry="5" width="56" height="56" fill="#4a21ef"/>

  <g transform="translate(10, 10)">
    <path
      d="M15.5874 0.222168C14.5053 0.222168 13.4675 0.652049 12.7023 1.41724L0.682861 13.4369C0.227615 13.8922 -3.72714e-06 14.4888 0 15.0855C3.72723e-06 15.6822 0.22763 16.2789 0.682874 16.7341L8.55959 24.6109V10.6662C8.55959 9.62553 9.3966 8.7819 10.4373 8.7819C14.8339 8.7819 25.5359 8.7819 26.9956 8.7819L35.5552 0.222289L15.5874 0.222168Z"
      fill="#F7F6FF"/>
    <path
      d="M8.55996 27.218H25.1117C26.1524 27.218 26.996 26.3744 26.996 25.3337V11.389L34.8727 19.2657C35.328 19.721 35.5556 20.3177 35.5556 20.9144C35.5556 21.511 35.328 22.1077 34.8727 22.563L22.8533 34.5827C22.0881 35.3478 21.0503 35.7777 19.9682 35.7777L0.000373357 35.7776L8.55996 27.218Z"
      fill="#F7F6FF"/>
  </g>
</svg>
